<svg xmlns="http://www.w3.org/2000/svg" xmlns:xlink="http://www.w3.org/1999/xlink" viewBox="0,0,256,256" width="50px" height="50px" fill-rule="nonzero"><g fill="#483181" fill-rule="nonzero" stroke="none" stroke-width="1" stroke-linecap="butt" stroke-linejoin="miter" stroke-miterlimit="10" stroke-dasharray="" stroke-dashoffset="0" font-family="none" font-weight="none" font-size="none" text-anchor="none" style="mix-blend-mode: normal"><g transform="scale(5.12,5.12)"><path d="M25.00195,2c-4.22833,0 -8.2501,1.18149 -11.62891,3.22461c-0.54045,0.18792 -0.80095,0.45206 -1.11133,0.73633c-0.0035,0.00321 -0.0082,0.0046 -0.01172,0.00781c-0.018,0.01244 -0.03559,0.02547 -0.05273,0.03906c-0.00192,0.00074 -0.00416,0.0006 -0.00586,0.00195v0.00195c-0.00851,0.00677 -0.01383,0.01219 -0.01953,0.01758c-0.00623,0.00357 -0.01193,0.00757 -0.01758,0.01172c-0.00188,0.00138 -0.00413,0.00237 -0.00586,0.00391c-0.0066,0.00642 -0.01311,0.01293 -0.01953,0.01953c-0.08105,0.07195 -0.15068,0.13734 -0.20898,0.19336c-0.0057,0.00543 -0.01406,0.01428 -0.01953,0.01953c-0.0044,0.00439 -0.01334,0.01138 -0.01758,0.01563c-0.28583,0.28603 -0.37129,0.71604 -0.21656,1.08963c0.15474,0.37359 0.51922,0.61724 0.92359,0.6174h0.00195c0.25759,0.00004 0.50525,-0.09931 0.69141,-0.27734c0.06589,-0.06315 0.11551,-0.11074 0.16406,-0.1543c0.53654,-0.41689 1.37875,-0.52042 2.51953,-0.28711c1.14935,0.23507 2.5009,0.80691 3.75977,1.47656c2.51773,1.3393 4.6543,3.02539 4.6543,3.02539c0.36387,0.28832 0.87831,0.28832 1.24219,0c0,0 2.13659,-1.68622 4.6543,-3.02539c1.25885,-0.66959 2.61046,-1.24163 3.75977,-1.47656c1.14312,-0.23367 1.98699,-0.12828 2.52344,0.29102c0.04951,0.04461 0.09873,0.09153 0.16016,0.15039c0.18615,0.17804 0.43382,0.27738 0.69141,0.27734h0.00195c0.40437,-0.00016 0.76885,-0.24381 0.92359,-0.6174c0.15474,-0.37359 0.06928,-0.8036 -0.21656,-1.08963c-0.004,-0.00398 -0.01152,-0.01152 -0.01562,-0.01562l-0.00195,-0.00195c-0.0706,-0.06767 -0.15235,-0.14498 -0.25,-0.23047c-0.0041,-0.00363 -0.00879,-0.00687 -0.01367,-0.00977c-0.0086,-0.00783 -0.01567,-0.01416 -0.02734,-0.02344v-0.00195c-0.0017,-0.00135 -0.00397,-0.00115 -0.00586,-0.00195c-0.02452,-0.01941 -0.04994,-0.03766 -0.07617,-0.05469c-0.30459,-0.27978 -0.56129,-0.54195 -1.10156,-0.72852c-3.37846,-2.04335 -7.39953,-3.22461 -11.62695,-3.22461zM25.00195,4c2.74954,0 5.31397,0.69747 7.72266,1.67578c-1.1515,0.34252 -2.31626,0.74703 -3.38672,1.31641c-2.37676,1.2642 -3.86921,2.45934 -4.33594,2.82031c-0.46672,-0.36098 -1.9592,-1.55601 -4.33594,-2.82031c-1.07017,-0.56928 -2.23359,-0.97379 -3.38477,-1.31641c2.4083,-0.97758 4.9718,-1.67578 7.7207,-1.67578zM11.41992,8.00781c-1.95527,0 -3.20117,1.27539 -3.20117,1.27539c-0.0066,0.00642 -0.01311,0.01293 -0.01953,0.01953c-3.79546,4.09409 -6.19727,9.59994 -6.19727,15.69727c0,5.98144 2.348,11.38477 6.09961,15.47852c0.00316,0.0034 0.00465,0.0083 0.00781,0.01172c0.0274,0.03786 0.05742,0.07376 0.08984,0.10742c4.2021,4.52455 10.15085,7.40234 16.80273,7.40234c6.5798,0 12.58022,-2.80238 16.77344,-7.26367c0.12397,-0.05699 0.23497,-0.13874 0.32617,-0.24023c3.69345,-4.09316 5.99609,-9.49958 5.99609,-15.49414c0.00005,-0.00586 0.00005,-0.01172 0,-0.01758c-0.1001,-5.98519 -2.39594,-11.48448 -6.19727,-15.58594c-0.00829,-0.00927 -0.01676,-0.01839 -0.02539,-0.02734l-0.28711,-0.28711l0.03906,0.04297c-1.12347,-1.26446 -2.74428,-1.06445 -3.50195,-1.06445c-0.11999,-0.00042 -0.23907,0.02075 -0.35156,0.0625c-0.24017,0.0901 -1.54599,0.47934 -3.23242,1.3457c-1.68643,0.86637 -3.85814,2.25165 -6.22461,4.4707c-0.19865,0.18647 -0.31262,0.44591 -0.31557,0.71835c-0.00295,0.27244 0.10538,0.53429 0.29994,0.72501c0,0 5.13521,5.04361 8.28906,10.05273c2.25789,3.69501 3.7922,6.67861 4.0625,10.0625c-0.50656,-0.98733 -1.15174,-2.09726 -2.00977,-3.31641c-1.98718,-2.98667 -5.04555,-6.26896 -7.70703,-8.92187c-1.33248,-1.32819 -2.56408,-2.49506 -3.50391,-3.37109c-0.93983,-0.87604 -1.64293,-1.51793 -1.72266,-1.59766c-0.38365,-0.38373 -1.0033,-0.39153 -1.39648,-0.01758c0,0 -1.55591,1.47761 -3.25781,3.125c-1.69395,1.6397 -3.46921,3.37143 -4.1582,4.17188c-1.14669,1.19825 -3.22458,3.58706 -5.10938,6.25c-0.67465,0.95318 -1.24399,1.93158 -1.81641,2.9043c0.26093,-1.40329 0.68225,-3.04454 1.51367,-5.13867l0.00195,-0.00391c0.00091,-0.0023 0.00095,-0.00356 0.00195,-0.00586c1.88043,-4.55946 7.87539,-11.94774 10.20508,-14.1875c0.19349,-0.18623 0.30396,-0.44245 0.30653,-0.711c0.00257,-0.26854 -0.10297,-0.52684 -0.29286,-0.71674c0,0 -2.39576,-2.38618 -5.33398,-4.18359c-0.03385,-0.03041 -0.06975,-0.05847 -0.10742,-0.08398c-0.0062,-0.00396 -0.01337,-0.00582 -0.01953,-0.00977c-0.0031,-0.00185 -0.00471,-0.00402 -0.00781,-0.00586v0.00195c-1.4545,-0.93007 -3.10944,-1.56306 -4.75195,-1.67187c-0.02211,-0.00139 -0.04426,-0.00204 -0.06641,-0.00195zM11.39844,10.01367c1.20561,0.08953 2.58204,0.59161 3.78516,1.36523c0.00839,0.00533 0.01685,0.01054 0.02539,0.01563l0.00391,0.00195c2.11432,1.26974 3.65683,2.66699 4.39844,3.36328c-2.83357,2.89904 -7.97175,9.1981 -9.97656,14.06836c-0.00197,0.00324 -0.00392,0.0065 -0.00586,0.00977c-1.41966,3.5723 -1.84759,6.16965 -1.93555,8.03906c-2.32157,-3.37862 -3.69141,-7.46321 -3.69141,-11.87695c0,-5.5646 2.18461,-10.57416 5.65039,-14.32031c0.00797,-0.008 0.66435,-0.65507 1.74609,-0.66602zM38.89844,10.06445c0.54313,0.00945 0.9528,0.07372 1.23437,0.39063c0.01324,0.01473 0.02692,0.02906 0.04102,0.04297l0.26563,0.26758c3.46306,3.73999 5.56448,8.75593 5.6582,14.24414c-0.0016,4.28412 -1.3128,8.20247 -3.48828,11.50977c-0.04725,-4.30579 -1.7936,-8.0061 -4.31836,-12.13672c-0.00258,-0.00327 -0.00519,-0.00653 -0.00781,-0.00977c-2.92862,-4.6514 -6.76745,-8.55571 -7.82031,-9.60937c1.8981,-1.65524 3.64585,-2.82398 4.99219,-3.51562c1.45267,-0.74628 2.31387,-0.98729 2.85547,-1.18164c0.21087,-0.00148 0.40685,-0.0051 0.58789,-0.00195zM25.01367,20.375c0.31326,0.28887 0.50209,0.46342 1.05469,0.97852c0.92949,0.8664 2.14431,2.01766 3.45508,3.32422c2.62154,2.61311 5.62985,5.86485 7.46289,8.62305c0.0051,0.00789 0.01031,0.0157 0.01563,0.02344c2.487,3.52961 2.99963,5.60035 3.125,6.18359c-3.81813,3.9723 -9.19606,6.49219 -15.125,6.49219c-5.86763,0 -11.15829,-2.41003 -14.9668,-6.2832c0.26414,-1.65142 1.65472,-4.29398 3.38477,-6.73828c1.81523,-2.56465 3.8836,-4.94104 4.93945,-6.04297c0.01275,-0.01333 0.02512,-0.027 0.03711,-0.04102c0.46612,-0.54367 2.35523,-2.41728 4.04883,-4.05664c1.33991,-1.29699 2.10429,-2.02111 2.56836,-2.46289z"></path></g></g></svg>