<svg xmlns="http://www.w3.org/2000/svg"  viewBox="0 0 64 64" width="64px" height="64px"><path fill="#483181" d="M 14.576172 1.1210938 C 14.318922 1.1229688 14.062187 1.2224219 13.867188 1.4199219 C 13.804187 1.4849219 13.750031 1.5558594 13.707031 1.6308594 C 13.488031 2.0168594 13.544953 2.5157969 13.876953 2.8417969 L 15.308594 4.2539062 C 15.705594 4.6439062 16.344422 4.6381875 16.732422 4.2421875 C 17.122422 3.8471875 17.117656 3.2103125 16.722656 2.8203125 L 15.289062 1.4101562 C 15.091062 1.2151563 14.833422 1.1192187 14.576172 1.1210938 z M 25.753906 3.8144531 C 25.065773 3.7983379 24.398016 3.8691719 23.759766 4.0292969 C 17.475766 5.5992969 14.431031 11.185766 14.707031 20.634766 C 10.463031 21.556766 6.9722656 22.998781 4.3222656 24.925781 C 3.9732656 25.178781 3.8260312 25.627109 3.9570312 26.037109 L 4.1972656 26.785156 C 4.2782656 27.041156 4.4592187 27.253047 4.6992188 27.373047 C 4.9392188 27.493047 5.2167031 27.514734 5.4707031 27.427734 C 7.8517031 26.617734 11.252047 26.014031 15.123047 25.707031 C 15.347047 27.490031 15.648484 29.332313 16.021484 31.195312 C 17.011484 36.146313 19.530031 42.052891 22.832031 47.212891 C 21.253031 47.768891 19.81125 47.963391 18.53125 47.775391 C 17.48425 47.625391 16.713687 47.066156 16.304688 46.160156 C 15.699687 44.817156 15.972047 42.940953 16.998047 41.376953 C 17.177047 41.104953 17.211797 40.761984 17.091797 40.458984 L 14.490234 33.882812 C 14.364234 33.563812 14.082141 33.331531 13.744141 33.269531 C 13.407141 33.203531 13.060172 33.320266 12.826172 33.572266 C 6.0151719 40.926266 5.7125156 49.249781 9.3535156 53.050781 C 13.666516 57.556781 19.722281 57.61275 27.363281 53.21875 C 29.814281 55.94675 32.365031 58.031875 34.957031 59.421875 C 35.106031 59.501875 35.268687 59.539062 35.429688 59.539062 C 35.679688 59.539062 35.927187 59.445625 36.117188 59.265625 L 36.6875 58.726562 C 36.8825 58.541563 36.995 58.286578 37 58.017578 C 37.005 57.748578 36.900891 57.489828 36.712891 57.298828 C 35.131891 55.692828 33.379234 53.334406 31.615234 50.441406 C 33.287234 49.228406 35.022203 47.841547 36.783203 46.310547 C 40.690203 42.910547 44.764469 37.475109 47.605469 31.912109 C 48.460469 32.679109 49.105344 33.495656 49.527344 34.347656 C 49.997344 35.295656 49.973031 36.246656 49.457031 37.097656 C 48.695031 38.357656 46.994047 39.197281 45.123047 39.238281 C 44.798047 39.245281 44.496453 39.408687 44.314453 39.679688 L 40.371094 45.550781 C 40.180094 45.835781 40.148109 46.199672 40.287109 46.513672 C 40.426109 46.827672 40.718594 47.048656 41.058594 47.097656 C 50.979594 48.546656 58.008219 44.073922 59.074219 38.919922 C 60.319219 32.926922 57.300344 27.509031 50.777344 23.957031 C 51.597344 21.064031 51.978063 18.350047 51.914062 15.873047 C 51.903063 15.442047 51.617078 15.066406 51.205078 14.941406 L 50.455078 14.714844 C 50.197078 14.639844 49.920547 14.664922 49.685547 14.794922 C 49.450547 14.922922 49.276125 15.139437 49.203125 15.398438 C 48.677125 17.259438 47.712438 19.549594 46.398438 22.058594 C 43.812437 21.161594 40.940609 20.508234 37.849609 20.115234 C 34.682609 19.713234 28.562094 19.138281 21.996094 19.613281 C 22.235094 17.518281 22.837016 15.840281 23.791016 14.613281 C 24.441016 13.778281 25.304828 13.378469 26.298828 13.480469 C 27.764828 13.619469 29.260328 14.786125 30.111328 16.453125 C 30.258328 16.743125 30.537375 16.944234 30.859375 16.990234 L 37.859375 17.990234 C 38.200375 18.040234 38.541672 17.909484 38.763672 17.646484 C 38.985672 17.384484 39.059078 17.027219 38.955078 16.699219 C 36.321328 8.3342187 30.570836 3.9272598 25.753906 3.8144531 z M 11.298828 5.6308594 C 10.909813 5.5854375 10.514094 5.7705625 10.308594 6.1328125 C 10.034594 6.6158125 10.2055 7.2309062 10.6875 7.5039062 L 12.435547 8.4941406 C 12.917547 8.7681406 13.532641 8.6001875 13.806641 8.1171875 C 14.080641 7.6331875 13.909734 7.0190937 13.427734 6.7460938 L 11.679688 5.7558594 C 11.558937 5.6873594 11.4285 5.646 11.298828 5.6308594 z M 25.787109 5.8046875 C 29.516756 5.8974922 34.014672 9.3172187 36.513672 15.777344 L 31.634766 15.082031 C 30.432766 13.042031 28.498375 11.681234 26.484375 11.490234 C 24.810375 11.329234 23.286938 12.003719 22.210938 13.386719 C 20.831937 15.159719 20.055297 17.606203 19.904297 20.658203 C 19.889297 20.948203 20.001938 21.229688 20.210938 21.429688 C 20.419938 21.629688 20.702141 21.726125 20.994141 21.703125 C 27.809141 21.080125 34.322656 21.685562 37.597656 22.101562 C 40.867656 22.516563 43.869531 23.232469 46.519531 24.230469 C 46.987531 24.410469 47.512 24.210484 47.75 23.771484 C 48.462 22.460484 49.088141 21.195953 49.619141 20.001953 C 49.403141 21.335953 49.073859 22.728922 48.630859 24.169922 C 48.486859 24.635922 48.700719 25.137422 49.136719 25.357422 C 55.300719 28.456422 58.207234 33.252672 57.115234 38.513672 C 56.290234 42.495672 50.845219 45.945781 42.949219 45.300781 L 45.697266 41.208984 C 48.057266 41.013984 50.121922 39.862812 51.169922 38.132812 C 52.044922 36.687813 52.098312 35.027031 51.320312 33.457031 C 50.613312 32.030031 49.448422 30.714922 47.857422 29.544922 C 47.617422 29.366922 47.309484 29.306859 47.021484 29.380859 C 46.733484 29.452859 46.492281 29.650922 46.363281 29.919922 C 43.624281 35.638922 39.449703 41.339781 35.470703 44.800781 C 33.494703 46.519781 31.555031 48.048703 29.707031 49.345703 C 29.279031 49.645703 29.155875 50.224828 29.421875 50.673828 C 30.454875 52.420828 31.493766 54.004766 32.509766 55.384766 C 31.094766 54.244766 29.695219 52.873203 28.324219 51.283203 C 28.128219 51.056203 27.849406 50.9375 27.566406 50.9375 C 27.389406 50.9375 27.211781 50.983078 27.050781 51.080078 C 19.878781 55.409078 14.561875 55.601969 10.796875 51.667969 C 7.983875 48.729969 8.237375 42.290391 13.234375 36.150391 L 15.046875 40.732422 C 13.870875 42.788422 13.646516 45.140375 14.478516 46.984375 C 15.172516 48.523375 16.510141 49.508812 18.244141 49.757812 C 20.193141 50.037813 22.378187 49.648516 24.742188 48.603516 C 25.013188 48.483516 25.218781 48.250797 25.300781 47.966797 C 25.382781 47.682797 25.333969 47.375859 25.167969 47.130859 C 21.674969 41.946859 18.988469 35.842687 17.980469 30.804688 C 17.552469 28.663688 17.219141 26.55225 16.994141 24.53125 C 16.935141 23.99925 16.479547 23.633531 15.935547 23.644531 C 13.493547 23.804531 11.243906 24.071641 9.2539062 24.431641 C 11.190906 23.589641 13.421688 22.916828 15.929688 22.423828 C 16.416687 22.328828 16.760328 21.890531 16.736328 21.394531 C 16.295328 12.388531 18.749188 7.3437031 24.242188 5.9707031 C 24.735563 5.8473281 25.254303 5.7914297 25.787109 5.8046875 z M 8.9804688 10.855469 C 8.6515469 10.882047 8.3537031 11.071078 8.1894531 11.361328 C 8.1464531 11.436328 8.1137969 11.517469 8.0917969 11.605469 C 7.9527969 12.142469 8.2735469 12.692031 8.8105469 12.832031 L 10.755859 13.335938 C 11.293859 13.475938 11.844422 13.153234 11.982422 12.615234 C 12.121422 12.078234 11.798719 11.530625 11.261719 11.390625 L 9.3164062 10.884766 C 9.2039063 10.855266 9.0901094 10.846609 8.9804688 10.855469 z M 10.371094 16.435547 L 8.3613281 16.451172 C 7.9883281 16.454172 7.6651406 16.658938 7.4941406 16.960938 C 7.4101406 17.109938 7.3632344 17.281844 7.3652344 17.464844 C 7.3692344 18.020844 7.8229062 18.467891 8.3789062 18.462891 L 10.386719 18.447266 C 10.942719 18.442266 11.389766 17.986594 11.384766 17.433594 C 11.380766 16.877594 10.927094 16.430547 10.371094 16.435547 z M 21.125 23.478516 C 20.808 23.479516 20.49325 23.572641 20.28125 23.806641 C 20.09225 24.015641 20.000344 24.294219 20.027344 24.574219 C 20.625344 30.727219 23.154797 38.597969 26.966797 46.167969 C 27.095797 46.423969 27.327469 46.612547 27.605469 46.685547 C 27.688469 46.706547 27.774375 46.71875 27.859375 46.71875 C 28.056375 46.71875 28.250016 46.659875 28.416016 46.546875 C 33.770016 42.949875 39.692062 36.525922 44.664062 28.919922 C 44.824063 28.675922 44.870062 28.375703 44.789062 28.095703 C 44.708062 27.815703 44.507188 27.583891 44.242188 27.462891 C 38.679188 24.928891 30.259 23.478516 21.125 23.478516 z M 22.144531 25.484375 C 30.025531 25.579375 37.250031 26.775312 42.332031 28.820312 C 37.993031 35.245312 32.842281 40.875469 28.238281 44.230469 C 25.039281 37.650469 22.859531 30.939375 22.144531 25.484375 z"/></svg>