<svg xmlns="http://www.w3.org/2000/svg" xmlns:xlink="http://www.w3.org/1999/xlink" viewBox="0,0,256,256" width="50px" height="50px" fill-rule="nonzero"><g fill="#483181" fill-rule="nonzero" stroke="none" stroke-width="1" stroke-linecap="butt" stroke-linejoin="miter" stroke-miterlimit="10" stroke-dasharray="" stroke-dashoffset="0" font-family="none" font-weight="none" font-size="none" text-anchor="none" style="mix-blend-mode: normal"><g transform="scale(5.12,5.12)"><path d="M24.98438,3.98633c-0.04844,0.00105 -0.09675,0.00562 -0.14453,0.01367h-19.83984c-0.55226,0.00006 -0.99994,0.44774 -1,1v19.83203c-0.01785,0.10799 -0.01785,0.21818 0,0.32617v19.8418c0.00006,0.55226 0.44774,0.99994 1,1h19.83203c0.10799,0.01785 0.21818,0.01785 0.32617,0h19.8418c0.55226,-0.00006 0.99994,-0.44774 1,-1v-19.83203c0.01785,-0.10799 0.01785,-0.21818 0,-0.32617v-19.8418c-0.00006,-0.55226 -0.44774,-0.99994 -1,-1h-19.8457c-0.05615,-0.00939 -0.113,-0.01396 -0.16992,-0.01367zM6,6h18v18h-18zM26,6h18v18h-18zM6,26h18v18h-18zM26,26h18v18h-18z"></path></g></g></svg>