<svg xmlns="http://www.w3.org/2000/svg" xmlns:xlink="http://www.w3.org/1999/xlink" viewBox="0,0,256,256" width="50px" height="50px" fill-rule="nonzero"><g fill="#483181" fill-rule="nonzero" stroke="none" stroke-width="1" stroke-linecap="butt" stroke-linejoin="miter" stroke-miterlimit="10" stroke-dasharray="" stroke-dashoffset="0" font-family="none" font-weight="none" font-size="none" text-anchor="none" style="mix-blend-mode: normal"><g transform="scale(5.12,5.12)"><path d="M19.5,0c-1.92187,0 -3.5,1.57813 -3.5,3.5c0,1.92188 1.57813,3.5 3.5,3.5c1.92188,0 3.5,-1.57812 3.5,-3.5c0,-1.92187 -1.57812,-3.5 -3.5,-3.5zM7.59375,2c-2.31641,0 -4.28125,1 -5.59375,2.53125c-1.3125,1.53125 -2,3.57422 -2,5.71875c0,2.29297 1.34766,3.94531 2.875,4.90625c1.52734,0.96094 3.22266,1.34375 4.5,1.34375c1.625,0 3.48438,-0.53906 5,-1.8125c1.51563,-1.27344 2.625,-3.29687 2.625,-6.03125c0,-2.94141 -1.67578,-4.77734 -3.375,-5.65625c-1.69922,-0.87891 -3.375,-1 -4.03125,-1zM19.5,2c0.83984,0 1.5,0.66016 1.5,1.5c0,0.83984 -0.66016,1.5 -1.5,1.5c-0.83984,0 -1.5,-0.66016 -1.5,-1.5c0,-0.83984 0.66016,-1.5 1.5,-1.5zM7.59375,4c0.35156,0 1.87891,0.13672 3.125,0.78125c1.24609,0.64453 2.28125,1.62891 2.28125,3.875c0,2.21875 -0.80859,3.57813 -1.90625,4.5c-1.09766,0.92188 -2.55078,1.34375 -3.71875,1.34375c-0.82812,0 -2.30469,-0.32031 -3.4375,-1.03125c-1.13281,-0.71094 -1.9375,-1.66406 -1.9375,-3.21875c0,-1.70703 0.56641,-3.28125 1.53125,-4.40625c0.96484,-1.125 2.30078,-1.84375 4.0625,-1.84375zM31.3125,5.03125c-11.8125,0 -22.5,10.58594 -22.5,24.625c0,6.11719 3.87891,10.96875 8.625,14.25c4.74609,3.28125 10.375,5.09375 14.5,5.09375c4.23828,0 8.69922,-2.52734 12.15625,-6.6875c3.45703,-4.16016 5.90625,-10 5.90625,-16.78125c0,-6.54297 -3.64062,-11.69922 -7.71875,-15.15625c-2.03906,-1.72656 -4.20312,-3.03516 -6.125,-3.9375c-1.92187,-0.90234 -3.5625,-1.40625 -4.84375,-1.40625zM31.3125,7.03125c0.67188,0 2.24219,0.39453 4,1.21875c1.75781,0.82422 3.76563,2.05469 5.65625,3.65625c3.78125,3.20703 7.03125,7.82422 7.03125,13.625c0,6.30078 -2.27344,11.69141 -5.4375,15.5c-3.16406,3.80859 -7.20312,5.96875 -10.625,5.96875c-3.51562,0 -8.96875,-1.66797 -13.375,-4.71875c-4.40625,-3.05078 -7.75,-7.35547 -7.75,-12.625c0,-13.02344 9.88672,-22.625 20.5,-22.625zM17,18v12.5c0,4.12891 3.37109,7.5 7.5,7.5h16.5v-20h-7v12.5c0,0.28516 -0.21484,0.5 -0.5,0.5h-9c-0.28516,0 -0.5,-0.21484 -0.5,-0.5v-12.5zM19,20h3v10.5c0,1.36719 1.13281,2.5 2.5,2.5h9c1.36719,0 2.5,-1.13281 2.5,-2.5v-10.5h3v16h-14.5c-3.05078,0 -5.5,-2.44922 -5.5,-5.5z"></path></g></g></svg>