<?xml version="1.0" encoding="UTF-8"?>
<svg xmlns="http://www.w3.org/2000/svg" id="a" width="865.76" height="682.89" viewBox="0 0 865.76 682.89">
  <g>
    <g>
      <path d="M634.24,649.84s21.14,4.03,63.91,2.52c0,0,12.58-.5,27.68,1.01,15.1,1.51,18.62,4.03,27.68,8.05,0,0,8.05,3.52,17.61-1.01l10.57-4.53s11.07-6.54-.5-23.65c0,0-9.49-17.27-45.26-22.48-35.77-5.2-49.86-12.25-49.86-12.25,0,0-57.37,20.63-57.37,21.14s6.88,8.2,6.88,8.2c0,0,3.69,11.93-1.35,23.01Z" fill="#fff"></path>
      <path d="M760.97,663.24c-4.46,0-7.46-1.27-7.66-1.36-1.28-.57-2.45-1.11-3.56-1.62-6.68-3.08-11.09-5.11-23.97-6.4-14.89-1.49-27.48-1.01-27.61-1-42.35,1.5-63.81-2.48-64.03-2.52l-.62-.12,.26-.58c4.65-10.23,1.69-21.37,1.35-22.55-6.93-7.75-6.93-8.22-6.93-8.44,0-.51,0-.66,29.01-11.23,14.34-5.22,28.69-10.38,28.69-10.38l.2-.07,.19,.1c.14,.07,14.46,7.07,49.71,12.2,35.6,5.18,45.53,22.55,45.62,22.73,4.43,6.54,6.12,12.37,5.02,17.28-1.09,4.87-4.55,6.96-4.7,7.04l-10.62,4.56c-3.83,1.81-7.41,2.37-10.35,2.37Zm-57.48-11.46c5.1,0,13.32,.18,22.39,1.09,13.05,1.31,17.52,3.36,24.29,6.48,1.1,.51,2.27,1.04,3.54,1.61,.08,.03,7.97,3.37,17.2-1l10.58-4.54h0s3.19-1.96,4.18-6.4c1.03-4.63-.62-10.19-4.9-16.52-.12-.21-9.86-17.16-44.92-22.26-33.21-4.83-47.97-11.35-49.81-12.2-14.92,5.37-52.28,18.88-56.65,20.79,.84,1.15,3.83,4.61,6.56,7.66l.1,.19c.04,.12,3.56,11.82-1.11,22.77,3.8,.63,24.94,3.75,63.18,2.4,.05,0,2.04-.08,5.35-.08Zm-74.31-33.28h0Z"></path>
    </g>
    <g>
      <path d="M765.08,596.5c-22.65,18.12-96.63,26.67-96.63,26.67-42.78,6.54-56.37,2.52-56.37,2.52-14.47,8.77-8.69,21.36-6.96,24.46,.17,.31-.06,.7-.42,.69l-116.54-2.36c-4.83-.1-9.63-.75-14.31-1.96-3.85-.99-7.99-2.11-12.27-3.32-19.34-5.44-41.83-12.56-55.85-17.09-8.26-2.67-13.57-4.44-13.57-4.44-12.08-5.03-16.1-14.59-16.1-14.59,0,0-3.02-4.03-8.05-15.1-5.03-11.07,1.01-27.18,1.01-27.18,7.55-30.7,36.4-35.46,36.4-35.46l90.08,9.06c21.8,7.31,60.39-1.01,60.39-1.01l26.34-7.15c6.13-1.67,12.49-2.37,18.84-2.08,38.65,1.73,62.45,7.93,71.01,10.55,2.38,.73,4.96,.42,7.1-.85,22.91-13.62,33.73-26.65,33.73-26.65,5.91-5.48,10.96-9.29,14.68-11.8,3.94-2.66,8.59-4.02,13.34-3.9l12.25,.32c.56,.02,1.13,.04,1.69,.1,22.62,2.45,35.39,23.07,35.39,23.07,22.14,44.79-25.16,77.5-25.16,77.5Z" fill="#B499FA"></path>
      <path d="M604.72,651.33h-.02l-116.54-2.36c-4.88-.1-9.73-.77-14.42-1.98-3.7-.95-7.83-2.07-12.29-3.32-18.88-5.31-40.8-12.22-55.86-17.09-8.26-2.67-13.58-4.45-13.58-4.45-11.81-4.92-16-13.94-16.38-14.82-.37-.51-3.31-4.66-8.07-15.14-5.06-11.13,.74-26.89,.99-27.56,7.52-30.61,36.49-35.73,36.78-35.78h.07s.07,0,.07,0l90.14,9.06,.05,.02c21.42,7.18,59.74-.94,60.13-1.02l26.31-7.14c6.19-1.68,12.58-2.38,19-2.1,38.75,1.74,62.65,7.97,71.13,10.57,2.24,.69,4.69,.4,6.7-.8,22.56-13.41,33.49-26.41,33.6-26.54,5.04-4.68,10-8.66,14.78-11.9,4.05-2.73,8.77-4.11,13.63-3.99l12.25,.32c.47,.01,1.1,.04,1.73,.1,22.6,2.44,35.63,23.1,35.76,23.3,11.57,23.39,4.05,43.41-4.29,56.08-8.86,13.47-20.51,21.73-21,22.08-22.51,17.99-96.13,26.68-96.87,26.77-40.01,6.12-54.39,3.06-56.35,2.56-13.68,8.42-8.52,20.24-6.6,23.67,.17,.3,.16,.66-.02,.96-.18,.3-.49,.47-.83,.47Zm-212.36-30.13s5.31,1.77,13.54,4.43c15.06,4.87,36.96,11.78,55.83,17.08,4.44,1.25,8.57,2.37,12.26,3.32,4.62,1.19,9.39,1.85,14.19,1.95l116.54,2.36c-1.48-2.54-7.94-15.95,7.11-25.07l.19-.11,.21,.06c.14,.04,14.05,3.91,56.15-2.53,.76-.09,74.11-8.75,96.39-26.57l.03-.02c.12-.08,11.87-8.3,20.77-21.84,8.18-12.46,15.56-32.11,4.23-55.03-.1-.16-12.89-20.4-35-22.79-.6-.06-1.19-.09-1.65-.1l-12.25-.32c-4.64-.12-9.17,1.2-13.04,3.81-4.74,3.2-9.66,7.16-14.62,11.75-.06,.08-11.09,13.2-33.81,26.71-2.26,1.34-5,1.67-7.51,.9-8.44-2.59-32.25-8.8-70.88-10.53-6.31-.28-12.6,.41-18.69,2.06l-26.33,7.15c-.41,.09-38.94,8.26-60.63,1.02l-89.96-9.05c-1.5,.28-28.72,5.75-35.93,35.08-.08,.21-5.92,16.1-1.04,26.85,4.94,10.87,7.97,14.96,8,15l.06,.11c.04,.09,4.1,9.44,15.83,14.33h0Z"></path>
    </g>
    <path d="M744.98,93.49s2.01,2.52,2.77,5.28l-4.28,.25-.5-2.01s0-2.01,2.01-3.52Z"></path>
    <g>
      <path d="M717.94,251.02s32.71-14.09,41.77-23.15l.5-72.97-6.54-44.29s15.97-.52,26.04-8.06l23.28,82.04s22.14,66.43,4.53,75.49c0,0-6.54,6.04-24.66,15.1l-44.79,30.2-16.1,10.07-20.13-24.16v-24.16l7.05-11.57,9.06-4.53Z" fill="#ffc0c0"></path>
      <path d="M721.86,316.09l-20.53-24.63v-24.48l7.19-11.82,9.21-4.61c.33-.14,32.38-14.01,41.47-22.9l.5-72.77-6.62-44.77,.56-.02c.16,0,15.93-.6,25.75-7.97l.58-.44,.2,.7,23.28,82.04c.9,2.7,22.02,66.78,4.34,76.04-.68,.62-7.37,6.46-24.72,15.13l-44.73,30.16-16.49,10.31Zm-19.53-24.99l19.74,23.68,15.74-9.83,44.78-30.19c17.88-8.94,24.54-14.99,24.6-15.05l.11-.08c17.03-8.76-4.56-74.23-4.78-74.89l-23.09-81.38c-9.01,6.38-22.3,7.53-25.18,7.71l6.46,43.74-.5,73.25-.15,.15c-9,9-40.4,22.6-41.91,23.25l-8.92,4.46-6.9,11.33v23.84Z"></path>
    </g>
    <g>
      <path d="M476.24,237.14l-.23-11.87c-.01-.73,.38-1.4,1.01-1.76l2.64-1.47c.53-.29,.88-.83,.95-1.43,.66-6.29,5.35-41.86,28.03-53.18,.08-.04,.15,.07,.07,.12-4.28,2.95-22.61,17.3-18.38,43.99,0,0,1.26,2.98-.25,6.51,0,0-.5,1.51-3.02,1.51l-.4,3.64c-.06,.56-.36,1.07-.83,1.4l-3.44,2.41c-.54,.38-.86,1-.84,1.67l.15,6.09-4.33,2.1-1.13,.28Z" fill="#B499FA"></path>
      <path d="M475.76,237.77l-.24-12.49c-.02-.92,.47-1.76,1.27-2.21l2.64-1.47c.39-.22,.65-.61,.69-1.04,.73-6.95,5.51-42.2,28.3-53.58l.42-.21,.33,.43c.15,.26,.08,.59-.16,.76-3.77,2.6-22.36,16.91-18.18,43.44,.18,.47,1.2,3.4-.28,6.84,0,.03-.57,1.62-3.03,1.8l-.36,3.22c-.08,.7-.46,1.34-1.04,1.75l-3.44,2.41c-.41,.28-.64,.75-.63,1.24l.16,6.42-4.72,2.28-1.74,.42Zm27.53-66.36c-17.55,13.62-21.52,43.02-22.17,49.26-.08,.76-.53,1.44-1.2,1.81l-2.64,1.47c-.48,.26-.77,.77-.75,1.31l.22,11.24,.48-.12,3.99-1.94-.14-5.77c-.02-.83,.37-1.61,1.05-2.09l3.44-2.41c.35-.24,.57-.62,.62-1.04l.46-4.09h.45c2.09,0,2.53-1.13,2.55-1.18,1.41-3.3,.27-6.12,.26-6.15l-.03-.12c-3.23-20.36,6.66-33.69,13.44-40.21Z"></path>
    </g>
    <g>
      <path d="M735.55,325.51l-20.63,13.08c-12.08,6.54-29.69,33.72-29.69,33.72l2.52,59.38c1.01,16.1,4.03,28.69,4.03,28.69,3.02,11.57,21.14,50.83,21.14,50.83-11.4,12.87-26.01,22.24-33.07,26.36-2.51,1.47-5.52,1.84-8.31,.99-24-7.34-54.77-9.68-70.38-10.41-6.37-.3-12.75,.4-18.9,2.08l-26.37,7.16c-27.79,4.68-43.25,4.54-51.54,3.45-6.88-.9-8.85-2.45-8.85-2.45-1.13-3.11,6-8.92,12.46-13.42,2.67-1.86,5.24-3.49,7.05-4.62,1.38-.86,1.91-2.61,1.23-4.09-3.11-6.75-.24-12.38,1.62-15.02,.66-.94,.71-2.16,.23-3.2-1.64-3.52,1-7.17,2.36-8.71,.49-.56,.77-1.26,.8-2.01,.63-13.01-4.1-23.42-4.1-23.42l-.81,4.31c-.38,2.02-2.37,3.31-4.38,2.86-4.31-.97-8.51-1.71-12.55-2.27-.08-.01-.16-.02-.23-.03-10.66-1.44-20.24-1.59-27.82-1.26-1.5,.07-2.92,.15-4.25,.25-3.68,.26-6.72,.62-8.96,.94s-4.26-1.52-4.12-3.82l2.16-33.72,.07-.99,4.53-53.35c.5-17.61,11.57-26.67,11.57-26.67,5.03-3.52,8.05-8.05,8.05-8.05,8.56-14.59,22.14-14.59,22.14-14.59,11.57-5.03,23.15-20.13,23.15-20.13h.08s48.74,4.53,48.74,4.53l15.8-33.2,.13-.27c12.9-5.79,34.4-5.79,34.4-5.79,9.56,2.01,20.13-4.03,20.13-4.03,31.71-10.57,48.31-5.54,48.31-5.54,10.57-13.59,24.66-12.08,24.66-12.08l-.39,.2c-11.44,6.11-.61,40.57-.61,40.57l5.03,23.65,16.1-10.07c1.01,15.6-2.52,20.13-2.52,20.13Z" fill="#483181"></path>
      <path d="M515.39,541.95c-4.73,0-8.36-.27-11.11-.63-6.94-.9-9.01-2.48-9.09-2.55l-.11-.09-.05-.13c-1.02-2.79,3.12-7.37,12.64-14,2.74-1.9,5.36-3.57,7.07-4.63,1.17-.72,1.61-2.21,1.04-3.46-3.19-6.92-.33-12.69,1.66-15.52,.54-.77,.61-1.78,.18-2.7-1.79-3.83,1.11-7.75,2.44-9.25,.41-.46,.65-1.07,.68-1.7,.47-9.83-2.17-18.24-3.43-21.61l-.49,2.62c-.21,1.11-.84,2.06-1.78,2.67-.95,.62-2.09,.83-3.2,.58-4.06-.92-8.27-1.68-12.51-2.26l-.23-.03c-9.11-1.23-18.43-1.66-27.73-1.25-1.5,.07-2.91,.15-4.24,.25-3.12,.22-6.12,.54-8.92,.93-1.24,.17-2.46-.21-3.38-1.06-.91-.85-1.39-2.04-1.31-3.29l2.22-34.7,4.53-53.35c.5-17.61,11.64-26.93,11.76-27.02,4.93-3.45,7.92-7.9,7.95-7.94,8.18-13.95,21.12-14.77,22.45-14.81,11.29-4.96,22.75-19.79,22.86-19.94l.16-.21,.27,.02,48.48,4.5,15.86-33.32,.17-.07c12.85-5.76,34.39-5.83,34.6-5.83h.1c9.26,1.96,19.68-3.9,19.78-3.96,29.15-9.73,45.84-6.29,48.37-5.67,10.59-13.37,24.76-12.02,24.9-12.01l1.7,.18-1.92,.96c-10.94,5.84-.47,39.63-.36,39.97l4.9,23,16.21-10.13,.05,.84c1.01,15.61-2.47,20.28-2.62,20.47l-.13,.12-20.63,13.08c-11.43,6.19-28.1,31.37-29.45,33.44l2.51,59.22c.99,15.87,3.98,28.46,4.01,28.59,2.97,11.39,20.92,50.34,21.1,50.74l.14,.3-.22,.24c-11.3,12.75-25.64,22.05-33.19,26.46-2.64,1.54-5.81,1.92-8.7,1.03-23.81-7.29-54.23-9.64-70.25-10.39-6.31-.3-12.62,.4-18.75,2.06l-26.37,7.16c-18.56,3.12-31.6,4.09-40.63,4.09Zm-19.47-3.88c.51,.31,2.76,1.52,8.49,2.27,7.92,1.04,23.27,1.28,51.4-3.45l26.32-7.15c6.23-1.69,12.64-2.39,19.06-2.09,16.07,.75,46.59,3.11,70.5,10.43,2.62,.8,5.51,.46,7.91-.94,7.45-4.35,21.56-13.49,32.73-26.02-1.68-3.66-18.17-39.66-21.03-50.61-.03-.14-3.04-12.82-4.04-28.78l-2.52-59.55,.09-.13c.72-1.11,17.82-27.36,29.87-33.89l20.52-13.01c.39-.59,3.17-5.35,2.42-18.89l-16,10-5.18-24.35c-.42-1.33-10.13-32.69-.22-40.41-3.99,.1-14.39,1.44-22.55,11.92l-.21,.27-.33-.1c-.17-.05-16.86-4.85-48.01,5.53-.35,.21-10.72,6.05-20.34,4.05-1.17,0-21.6,.2-33.98,5.67l-.05,.11-15.95,33.51-48.89-4.54c-1.48,1.88-12.38,15.37-23.18,20.07l-.2,.04c-.13,0-13.41,.19-21.71,14.35-.14,.21-3.15,4.67-8.2,8.21-.08,.07-10.87,9.11-11.36,26.28l-4.6,54.35-2.16,33.71c-.06,.94,.3,1.85,.99,2.49,.69,.64,1.62,.93,2.56,.8,2.83-.4,5.85-.72,8.99-.94,1.34-.1,2.76-.18,4.27-.25,9.36-.4,18.75,.02,27.91,1.26l.22,.03c4.27,.59,8.51,1.35,12.6,2.28,.84,.19,1.71,.04,2.43-.44,.71-.47,1.19-1.19,1.35-2.02l1.1-5.87,.66,1.44c.05,.11,4.77,10.66,4.15,23.65-.04,.86-.37,1.68-.93,2.31-1.2,1.36-3.82,4.88-2.28,8.17,.58,1.25,.48,2.63-.27,3.7-1.87,2.65-4.55,8.05-1.57,14.52,.79,1.71,.18,3.74-1.42,4.73-1.71,1.06-4.31,2.71-7.03,4.6-11.35,7.9-12.66,11.31-12.32,12.69Z"></path>
    </g>
    <path d="M685.23,372.81c-.14,0-.28-.06-.38-.17l-16.67-19.11c-2.67-3.06-4.82-6.5-6.4-10.24l-12.75-30.17c-.11-.25,.01-.55,.27-.66,.25-.11,.55,.01,.66,.27l12.75,30.17c1.54,3.64,3.63,6.99,6.23,9.97l16.67,19.11c.18,.21,.16,.52-.05,.71-.09,.08-.21,.12-.33,.12Z"></path>
    <path d="M439.23,542.73l-.2-.1-30.29-14.64-4.08-13.76v-.06s4.38-19.33,4.38-19.33h.2c.67,.01,1.32,.16,1.92,.45,2.09,.97,3.18,3.3,2.58,5.53l-5.02,18.81,14.73,7.85c3.84-5.55,9.43-21.2,11.67-27.73,.39-1.15,1.12-2.13,2.11-2.83,.98-.7,2.14-1.07,3.35-1.07,3.1,0,5.64,2.42,5.79,5.51,.39,8.21-2.8,18.87-4.04,22.68l7.64-9.44,7.18-23.79c.17-.56,.49-1.04,.94-1.41l.36-.29,2.07,19.13-21.3,34.49Zm-30.08-15.09l29.89,14.45,20.97-33.96-1.94-17.98c-.19,.24-.34,.52-.43,.82l-7.24,23.92-9.45,11.67,.47-1.35c.51-1.46,4.92-14.31,4.46-23.81-.13-2.82-2.46-5.04-5.29-5.04-1.11,0-2.17,.34-3.07,.98-.91,.64-1.57,1.54-1.93,2.59-2.27,6.62-7.98,22.6-11.86,28.04l-.13,.18-15.47-8.25,5.12-19.19c.53-2-.44-4.08-2.31-4.95-.48-.23-.99-.36-1.52-.39l-4.26,18.86,3.98,13.42Z" fill="#ed1c24"></path>
    <path d="M554.52,496.86c-.27,0-.54,0-.82,0-.28,0-.5-.23-.49-.51,0-.28,.2-.49,.51-.49,10.14,.16,22.22-2.96,35.81-9.3,15.28-7.13,29.36-16.96,41.83-29.22,18.73-18.4,33.05-35.12,33.19-35.29,.18-.21,.5-.23,.71-.06,.21,.18,.23,.5,.05,.71-.14,.17-14.48,16.91-33.25,35.35-12.55,12.33-26.72,22.23-42.11,29.41-13.37,6.24-25.29,9.4-35.44,9.4Z"></path>
    <path d="M593.47,528.55s-.03,0-.05,0c-15.96-1.5-54.54-10.99-54.93-11.08-.27-.07-.43-.34-.37-.6,.07-.27,.33-.43,.61-.37,.39,.1,38.9,9.57,54.78,11.06,.27,.03,.48,.27,.45,.54-.02,.26-.24,.45-.5,.45Z"></path>
    <path d="M517.14,464.4c-.21,0-.41-.13-.48-.35l-9.22-28.45c-8.97-23.42-14.06-67.1-14.11-67.53-.03-.27,.17-.52,.44-.55,.25-.04,.52,.16,.55,.44,.05,.44,5.13,43.99,14.06,67.32l9.23,28.47c.08,.26-.06,.54-.32,.63-.05,.02-.1,.02-.15,.02Z"></path>
    <g>
      <path d="M612.09,625.69c8.05,2.01,23.49,1.15,23.49,1.15,3.86,15.74-1.35,23.01-1.35,23.01l-29.69-1.01s-7.55-14.09,7.55-23.15Z" fill="#f7ce21"></path>
      <path d="M634.49,650.35l-30.25-1.03-.14-.25c-.08-.15-7.6-14.62,7.73-23.82l.18-.11,.2,.05c7.89,1.97,23.19,1.14,23.34,1.14l.42-.02,.1,.4c3.87,15.79-1.21,23.11-1.42,23.42l-.16,.22Zm-29.63-2l29.11,.99c.78-1.3,4.45-8.41,1.23-21.98-2.55,.12-15.59,.65-23.02-1.14-13.37,8.15-8.26,20.17-7.32,22.13Z"></path>
    </g>
    <g>
      <path d="M747.75,98.77s-1.2-2.92-3.3-6.15c-2.11-3.24-5.03-5.86-8.38-7.78-3.13-1.79-8.28-5.37-10.96-10.74l-16.1-29.19s-.82-1.22-.24-2.94c.17-.52,.33-1.05,.41-1.59,.21-1.53,.51-4.6,.02-7.61-.15-.94-.16-1.9,.01-2.83,.5-2.78,2.32-7.29,8.86-3.65,0,0,.5-7.05,10.57-6.04l32.21,3.52s5.64-1.3,4.84,7.78c-.2,2.22-.28,4.45-.18,6.68,.28,6.39,1.23,18.59,4.41,28.82l6.54,19.63s-6.54,11.07-28.69,12.08Z" fill="#ffc0c0"></path>
      <path d="M747.42,99.29l-.13-.33s-1.21-2.91-3.26-6.06c-1.98-3.05-4.82-5.68-8.21-7.62-2.97-1.7-8.38-5.38-11.16-10.95l-16.09-29.17s-.92-1.41-.28-3.33c.16-.48,.31-.99,.39-1.5,.21-1.53,.5-4.52,.02-7.46-.17-1.02-.16-2.03,.01-3,.32-1.76,1.12-4.06,3.11-5,1.54-.73,3.52-.5,5.87,.68,.22-.91,.8-2.5,2.36-3.81,1.99-1.68,4.89-2.34,8.64-1.96l32.14,3.51c.41-.07,2.12-.28,3.53,.95,1.53,1.33,2.14,3.81,1.83,7.38-.21,2.41-.27,4.57-.18,6.62,.28,6.35,1.23,18.51,4.39,28.69l6.61,19.83-.12,.2c-.27,.46-6.94,11.32-29.09,12.32l-.35,.02Zm-33.65-73.84c-.57,0-1.08,.11-1.53,.32-1.61,.76-2.28,2.75-2.56,4.28-.16,.86-.16,1.75-.01,2.66,.5,3.07,.2,6.18-.02,7.76-.08,.59-.25,1.16-.43,1.68-.48,1.44,.16,2.46,.19,2.5l16.12,29.22c2.68,5.35,7.9,8.9,10.77,10.54,3.53,2.02,6.49,4.76,8.56,7.94,1.72,2.64,2.83,5.05,3.21,5.9,19.74-1,26.83-10.21,27.81-11.63l-6.47-19.4c-3.19-10.29-4.15-22.56-4.43-28.95-.09-2.09-.03-4.3,.19-6.75,.28-3.18-.23-5.44-1.49-6.53-1.21-1.05-2.72-.72-2.74-.71l-.08,.02-32.29-3.53c-3.44-.34-6.09,.23-7.87,1.72-1.95,1.63-2.14,3.84-2.14,3.86l-.06,.78-.68-.38c-1.55-.86-2.91-1.3-4.04-1.3Z"></path>
    </g>
    <g>
      <path d="M744.98,93.49s-3.84,3.03,.79,4.75c1.1,.41,2.28,.56,3.45,.52,4.6-.18,18.85-1.61,27.21-12.06l-2.83-8.04h2.75c1.57,0,2.98,.93,3.59,2.37l6.79,16.12c.19,.44,.26,.93,.21,1.4-.11,1.05-.48,2.95-1.65,4.31-.91,1.06-2.63,.74-3.18-.54l-.37-.86c-.12-.29-.51-.34-.7-.09-1.82,2.31-10.09,10.65-34.09,9.14-1.44-.09-2.72-.97-3.31-2.28-1.62-3.57-3.78-10.83,1.33-14.74Z" fill="#483181"></path>
      <path d="M752.56,111.19c-1.77,0-3.65-.06-5.63-.18-1.63-.1-3.06-1.09-3.74-2.58-1.12-2.48-4.32-10.9,1.48-15.34l.61,.79c-.41,.32-1.43,1.36-1.29,2.27,.12,.78,1.13,1.31,1.94,1.61,.99,.37,2.08,.53,3.26,.48,4.17-.17,18.36-1.5,26.67-11.65l-2.97-8.44h3.46s0,0,0,0c1.77,0,3.36,1.05,4.05,2.69l6.79,16.12c.22,.52,.3,1.09,.24,1.65-.12,1.08-.5,3.1-1.76,4.58-.53,.61-1.33,.91-2.14,.78-.84-.13-1.55-.67-1.88-1.45l-.31-.73c-1.99,2.47-9.34,9.4-28.79,9.4Zm-9.48-14.59c-1.92,4.13,.18,9.56,1.02,11.41,.52,1.15,1.63,1.91,2.89,1.99,23.55,1.47,31.72-6.48,33.67-8.95,.2-.26,.5-.38,.83-.34,.32,.04,.59,.25,.72,.55l.37,.86c.2,.46,.61,.78,1.11,.86,.48,.07,.92-.09,1.23-.44,1.09-1.27,1.42-3.07,1.53-4.03,.04-.39-.02-.79-.17-1.16l-6.79-16.12c-.53-1.26-1.76-2.07-3.12-2.07h-2.06s2.68,7.64,2.68,7.64l-.17,.22c-8.55,10.68-23.27,12.07-27.58,12.24-1.3,.05-2.53-.13-3.65-.55-1.4-.52-2.24-1.22-2.51-2.1Z"></path>
    </g>
    <path d="M715.04,47.44c-.12,0-.24-.04-.34-.13-.21-.19-.22-.5-.03-.71l5.03-5.54c.19-.2,.5-.22,.71-.03,.21,.19,.22,.5,.03,.71l-5.03,5.54c-.1,.11-.23,.16-.37,.16Z"></path>
    <path d="M732.51,58.52c-.25,0-.76-.07-1.27-.49-1.06-.87-1.59-2.74-1.59-5.56l-.5-12.56h0s-.25-1.31,.97-2.78c1.75-2.12,6.59-4.57,19.68-4.28,.28,0,.49,.24,.49,.51,0,.28-.2,.5-.51,.49-13.28-.31-17.5,2.29-18.84,3.87-.95,1.12-.79,2.04-.78,2.07l.51,12.66c0,3.31,.77,4.43,1.23,4.8,.37,.3,.69,.26,.69,.26l12.16-.51c.26-.03,.51,.2,.52,.48,.01,.28-.2,.51-.48,.52l-12.08,.5s-.06,.01-.17,.01Z"></path>
    <path d="M728.57,54.04c-3.74,0-5.04-2.67-5.47-5l-2.5-12.48c-.47-2.33,.56-4.71,2.55-5.93,3.25-1.99,8.13-3.1,14.51-3.31,0,0,.01,0,.02,0,.27,0,.49,.21,.5,.48,0,.28-.21,.51-.48,.52-7.74,.26-11.9,1.86-14.03,3.17-1.63,1-2.47,2.96-2.09,4.88l2.5,12.49c.84,4.61,4.18,4.26,5.28,4.15,.12-.01,.22-.02,.27-.02,.28,0,.5,.22,.5,.5s-.22,.5-.5,.5c-.04,0-.09,0-.17,.02-.31,.03-.61,.05-.9,.05Z"></path>
    <path d="M721.62,40.41c-.26,0-.67-.07-1.1-.41-.96-.77-1.45-2.5-1.45-5.14l-.27-3.19c-.16-1.89,1-3.6,2.8-4.16l11.91-3.7c.27-.08,.54,.07,.63,.33,.08,.26-.07,.54-.33,.63l-11.91,3.7c-1.36,.42-2.22,1.7-2.11,3.12l.27,3.23c0,3.03,.66,4.04,1.05,4.37,.29,.25,.54,.21,.55,.21,.27-.04,.53,.13,.58,.4s-.11,.52-.37,.58c-.02,0-.11,.02-.25,.02Z"></path>
    <path d="M748.26,87.7c-.18,0-.35-.1-.44-.27-13.64-26.26,2.02-37.27,2.18-37.38,.23-.16,.54-.09,.69,.13s.1,.54-.13,.69c-.15,.1-15.06,10.66-1.85,36.09,.13,.25,.03,.55-.21,.67-.07,.04-.15,.06-.23,.06Z"></path>
    <path d="M741.47,50.46c-.17,0-.28,0-.3,0-.28-.02-.48-.26-.46-.54s.26-.48,.54-.46c.03,0,2.42,.16,3.89-1.41,1.04-1.1,1.41-2.81,1.11-5.07-.04-.27,.16-.52,.43-.56,.26-.04,.52,.16,.56,.43,.34,2.58-.12,4.56-1.38,5.89-1.49,1.57-3.61,1.73-4.39,1.73Z"></path>
    <path d="M747.25,53.48c-.15,0-.29-.06-.39-.19l-2.84-3.56c-.17-.22-.14-.53,.08-.7,.21-.17,.53-.14,.7,.08l2.84,3.56c.17,.22,.14,.53-.08,.7-.09,.07-.2,.11-.31,.11Z"></path>
    <path d="M610.86,621.15c-.11,0-.22-.03-.31-.11-8.9-6.92-37.83-17.93-38.12-18.04-22.89-7.96-55.06-22.51-55.39-22.66-9.44-5.96-58.3-17.97-58.79-18.09-.27-.07-.43-.34-.37-.6,.07-.27,.33-.43,.6-.37,2.02,.49,49.51,12.17,59.03,18.18,.26,.11,32.39,14.64,55.26,22.6,1.21,.46,29.38,11.18,38.39,18.2,.22,.17,.26,.48,.09,.7-.1,.13-.25,.19-.39,.19Z"></path>
    <path d="M555.51,595.99s-.07,0-.11-.01c-.27-.06-.44-.33-.38-.6,1.01-4.56,5.84-5.34,6.42-5.41l32.34-10.19c2.93-.92,5.98-1.47,9.05-1.62l36.2-1.79c.29-.02,.51,.2,.52,.47,.01,.28-.2,.51-.47,.52l-36.2,1.79c-2.99,.15-5.94,.68-8.8,1.58l-32.38,10.2s-.07,.02-.1,.02c-.19,.02-4.69,.53-5.6,4.64-.05,.23-.26,.39-.49,.39Z"></path>
    <path d="M573.62,575.86c-.11,0-.23-.04-.32-.12-12.34-10.37-44.75-17.44-45.08-17.51-.27-.06-.44-.32-.38-.59,.06-.27,.32-.44,.59-.38,1.34,.29,32.98,7.19,45.51,17.72,.21,.18,.24,.49,.06,.7-.1,.12-.24,.18-.38,.18Z"></path>
    <path d="M609.86,578.99c-.17,0-.34-.09-.43-.25-.14-.24-.06-.54,.18-.68l55.86-32.32c.23-.14,.54-.06,.68,.18,.14,.24,.06,.54-.18,.68l-55.86,32.32c-.08,.05-.17,.07-.25,.07Z"></path>
    <g>
      <path d="M461.61,643.26c-71.18,7.2-57.16-15.28-55.87-17.16,14.02,4.53,36.51,11.65,55.85,17.09l.02,.07Z" fill="#fff"></path>
      <path d="M436.65,645.19c-17.91,0-28.71-2.96-32.21-8.86-2.79-4.71,.25-9.58,.89-10.51l.21-.31,.35,.11c15.06,4.87,36.96,11.78,55.83,17.08l.27,.08,.24,.84-.58,.13c-9.47,.96-17.82,1.44-25.01,1.44Zm-30.7-18.5c-.83,1.32-2.91,5.31-.65,9.12,3.16,5.32,15.09,10.82,53.79,7.18-18.17-5.16-38.72-11.65-53.14-16.31Z"></path>
    </g>
    <g>
      <path d="M522.67,299.84l5.91,14.4c1.23,2.99,1.81,6.21,1.63,9.43-.42,7.58,1.28,22.85,21.66,23.98,0,0,28.69,6.54,40.26-43.78l.47-3.4c1.33-9.56-.42-19.3-5-27.8h0s-64.92,27.18-64.92,27.18Z" fill="#ffc0c0"></path>
      <path d="M554.9,348.39c-1.92,0-3.09-.24-3.14-.26-8.97-.49-15.37-3.79-18.95-9.81-2.96-4.98-3.32-10.74-3.1-14.69,.17-3.07-.38-6.26-1.59-9.21l-6.09-14.86,65.8-27.54,.21,.4c4.66,8.65,6.41,18.37,5.06,28.11l-.47,3.4c-9.29,40.4-29.85,44.46-37.72,44.46Zm-31.57-48.28l5.72,13.94c1.27,3.09,1.84,6.42,1.66,9.65-.21,3.82,.13,9.36,2.96,14.12,3.4,5.71,9.53,8.85,18.22,9.33,.16,.03,7.22,1.55,15.59-3,7.75-4.21,18.23-14.64,24.16-40.4l.46-3.35c1.3-9.37-.33-18.73-4.73-27.1l-64.04,26.81Z"></path>
    </g>
    <g>
      <path d="M501.55,274.5l-7.78,1.73c-2.39,.53-4.9-.09-6.74-1.69-2.69-2.34-5.08-5.52-6.73-7.98-1.47-2.19-2.47-4.67-2.94-7.26l-3.1-16.88c-.46-2.5,.83-4.99,3.13-6.05l17.17-8.01,4.47,4.25v26.48c0,5.31,.88,10.43,2.51,15.19,.02,.15,.02,.23,.02,.23Z" fill="#B499FA"></path>
      <path d="M492.09,276.91c-1.97,0-3.89-.7-5.39-1.99-2.79-2.42-5.25-5.73-6.82-8.08-1.52-2.26-2.53-4.77-3.02-7.45l-3.1-16.88c-.5-2.72,.9-5.44,3.41-6.6l17.48-8.15,4.87,4.63v26.69c0,5.15,.83,10.21,2.48,15.03l.02,.11,.05,.67-8.19,1.82c-.59,.13-1.19,.2-1.79,.2Zm2.37-47.96l-16.86,7.86c-2.09,.97-3.26,3.24-2.84,5.51l3.1,16.88c.46,2.54,1.43,4.92,2.87,7.07,1.54,2.3,3.94,5.53,6.64,7.88,1.71,1.48,4.07,2.07,6.31,1.57l7.29-1.62c-1.61-4.83-2.43-9.89-2.43-15.04v-26.26l-4.07-3.86Z"></path>
    </g>
    <path d="M497.08,276.04c-.14,0-.28-.06-.38-.17-1.78-2.05-3.52-4.98-5.18-8.73-2.27-5.13-3.87-10.73-4.75-16.62l-2.54-17.04c-.04-.27,.15-.53,.42-.57,.27-.04,.53,.15,.57,.42l2.54,17.04c.87,5.8,2.44,11.31,4.67,16.36,1.62,3.65,3.3,6.5,5.02,8.47,.18,.21,.16,.52-.05,.71-.09,.08-.21,.12-.33,.12Z"></path>
    <path d="M498.64,269.88c-.16,0-.33-.08-.42-.23-4.54-7.06-5.57-15.46-5.61-15.81l-2.72-23.49c-.03-.27,.17-.52,.44-.55,.27-.03,.52,.16,.55,.44l2.72,23.49c0,.08,1.05,8.53,5.46,15.39,.15,.23,.08,.54-.15,.69-.08,.05-.18,.08-.27,.08Z"></path>
    <g>
      <path d="M593.13,214.03v45.04c0,25.98-21.07,47.05-47.05,47.05-20.67,0-38.23-13.33-44.55-31.86-1.63-4.77-2.51-9.88-2.51-15.19v-45.04c0-25.99,21.07-47.05,47.05-47.05,12.99,0,24.76,5.27,33.28,13.78,8.52,8.52,13.78,20.28,13.78,33.27Z" fill="#ffc0c0"></path>
      <path d="M546.07,306.63c-20.36,0-38.45-12.94-45.02-32.2-1.68-4.93-2.53-10.09-2.53-15.35v-45.04c0-26.22,21.33-47.56,47.55-47.56,12.7,0,24.65,4.95,33.63,13.93,8.98,8.98,13.93,20.92,13.93,33.62v45.04c0,26.22-21.33,47.56-47.56,47.56Zm0-139.15c-25.67,0-46.55,20.88-46.55,46.56v45.04c0,5.15,.83,10.21,2.48,15.03,6.43,18.86,24.14,31.52,44.07,31.52,25.67,0,46.56-20.88,46.56-46.56v-45.04c0-12.44-4.84-24.12-13.63-32.92-8.79-8.79-20.49-13.64-32.92-13.64Z"></path>
    </g>
    <path d="M498.93,237.78s-3.43,3.68-4.94-13.43c0,0-.89-4.15-2.44-8.81s-2.25-9.75-1.81-14.72c.83-9.36,4.7-23.12,18.87-33.15,.18-.13,.05-.41-.16-.36-2.28,.58-7.52,1.56-11.37-.32-2-.98-2.38-3.65-.73-5.16,2.97-2.71,10.64-6.83,30.36-10.95,0,0,23.15-6.54,46.3,8.05,0,0,41.77,15.6,45.8,67.94,0,0-1.37,30.82-25.35,21.95,0,0-6.36,1.2-5.86-15.41,0,0,3.02-18.12-3.02-28.18,0,0-8.38-14.18-6.2-24.45,0,0-9.4,7.84-37.58,7.84,0,0-14.59,.5-21.14,5.54,0,0-3.52-10.07,9.06-12.58,0,0-16.46,0-24.1,16.12-.71,1.51-1.04,3.16-1.03,4.83,.07,7.92-.06,33.43-4.65,35.26Z"></path>
    <g>
      <path d="M614.35,223.01v-14.02l7.77,5.91c.52,.4,.83,1.01,.83,1.67v7.15l-7.05,3.88-1.55-4.6Z" fill="#B499FA"></path>
      <path d="M615.62,228.33l-1.77-5.32v-15.03l8.57,6.52c.64,.49,1.02,1.26,1.02,2.07v7.45l-7.83,4.31Zm-.77-5.41l1.33,3.95,6.26-3.45v-6.86c0-.5-.24-.97-.63-1.27l-6.96-5.3v12.93Z"></path>
    </g>
    <g>
      <path d="M555.76,151.36s53.08,4.58,63,56.62c.41,2.18-1.1,4.26-3.3,4.55h0c-1.97,.26-3.81-1-4.28-2.93-2.58-10.7-13.75-43.8-55.42-58.25Z" fill="#B499FA"></path>
      <path d="M614.94,213.07c-2,0-3.76-1.36-4.24-3.34-2.39-9.93-13.43-43.44-55.1-57.89l-3.8-1.32,4,.35c.13,.01,13.54,1.24,27.97,8.85,13.34,7.03,30.32,21.1,35.47,48.17,.23,1.18-.04,2.38-.75,3.36-.7,.97-1.79,1.62-2.97,1.78-.2,.03-.39,.04-.59,.04Zm-54.42-60.46c38.38,15.4,48.82,47.21,51.16,56.89,.4,1.68,2,2.78,3.72,2.55,.93-.12,1.75-.61,2.3-1.38,.54-.76,.75-1.67,.58-2.58-5.08-26.67-21.8-40.53-34.93-47.46-9.05-4.78-17.69-7.01-22.83-8.01Z"></path>
    </g>
    <path d="M487.06,220.06c-.05,0-.1,0-.15-.02l-6.08-1.98c-.26-.09-.41-.37-.32-.63,.09-.26,.37-.41,.63-.32l6.08,1.98c.26,.09,.41,.37,.32,.63-.07,.21-.26,.35-.48,.35Z"></path>
    <path d="M489.9,208.59c-.08,0-.16-.02-.23-.06l-6.33-3.31c-.25-.13-.34-.43-.21-.67,.13-.25,.43-.34,.67-.21l6.33,3.31c.25,.13,.34,.43,.21,.67-.09,.17-.26,.27-.44,.27Z"></path>
    <g>
      <path d="M621.85,223.14h-23.02c-3.22,0-5.83,2.41-5.83,5.38v32.45c0,2.98,2.62,5.38,5.85,5.38l19.37-.05,3.63-43.15Z" fill="#B499FA"></path>
      <path d="M598.83,266.84c-1.75,0-3.44-.68-4.64-1.88-1.09-1.09-1.7-2.51-1.7-4v-32.45c0-3.24,2.84-5.88,6.33-5.88h23.56l-3.72,44.15-19.82,.05h-.02Zm0-43.2c-2.94,0-5.33,2.19-5.33,4.88v32.45c0,1.22,.5,2.39,1.4,3.29,1.01,1.01,2.44,1.58,3.93,1.58h.02l18.91-.05,3.55-42.15h-22.47Z"></path>
    </g>
    <path d="M601.3,263.34c-.28,0-.5-.22-.5-.5v-20.63c0-9.54,3.52-19.2,3.55-19.3,.1-.26,.39-.39,.64-.3,.26,.1,.39,.38,.3,.64-.03,.09-3.49,9.59-3.49,18.95v20.63c0,.28-.22,.5-.5,.5Z"></path>
    <path d="M604.72,267c-.28,0-.5-.22-.5-.5v-23.08c0-2.85,.33-5.7,.99-8.47l2.83-11.93c.06-.27,.33-.44,.6-.37,.27,.06,.43,.33,.37,.6l-2.83,11.93c-.64,2.7-.96,5.47-.96,8.24v23.08c0,.28-.22,.5-.5,.5Z"></path>
    <g>
      <ellipse cx="620.18" cy="244.72" rx="21.64" ry="6.29" transform="translate(328.21 844.1) rotate(-85.56)" fill="#B499FA"></ellipse>
      <path d="M618.65,266.8c-.06,0-.13,0-.19,0-1.94-.15-3.46-2.59-4.39-7.06-.88-4.21-1.11-9.73-.66-15.54,.45-5.81,1.53-11.23,3.05-15.25,1.61-4.27,3.46-6.46,5.43-6.3,1.94,.15,3.46,2.59,4.39,7.06,.88,4.21,1.11,9.73,.66,15.54-.45,5.81-1.53,11.23-3.05,15.25-1.56,4.13-3.37,6.3-5.24,6.3Zm3.06-43.16c-1.37,0-2.97,2.1-4.32,5.66-1.48,3.94-2.55,9.26-2.99,14.98-.44,5.72-.21,11.14,.64,15.26,.79,3.82,2.1,6.16,3.49,6.27,.03,0,.07,0,.1,0,1.37,0,2.97-2.1,4.32-5.66,1.48-3.94,2.55-9.26,2.99-14.98h0c.44-5.72,.21-11.14-.64-15.26-.79-3.82-2.1-6.16-3.49-6.27-.03,0-.07,0-.1,0Z"></path>
    </g>
    <path d="M719.3,32.12c-.28,0-.5-.22-.5-.5-.02-3.27-1.15-5.03-1.16-5.05-.15-.23-.09-.54,.14-.69s.54-.09,.69,.14c.05,.08,1.31,2,1.32,5.6,0,.28-.22,.5-.5,.5h0Z"></path>
    <path d="M781.06,101.87c-.2,0-.39-.12-.47-.32l-3.86-9.89c-.1-.26,.03-.55,.28-.65,.26-.1,.55,.03,.65,.28l3.86,9.89c.1,.26-.03,.55-.28,.65-.06,.02-.12,.03-.18,.03Z"></path>
    <g>
      <path d="M512.18,471.41l-4.22,53.56-.38,4.86c-.39,4.4-1.55,8.03-3.23,11-9.27,16.4-34.51,13.16-34.51,13.16-8.56-2.01-12.08-1.01-12.08-1.01-9.56,2.52-13.59-2.01-13.59-2.01-10.57,.5-16.1-3.02-16.1-3.02-6.54,1.51-10.57-6.54-10.57-6.54-3.02-4.53-12.08-12.08-12.08-12.08-14.09-2.01-10.07-10.07-10.07-10.07l9.7-21.51c.75-1.67,2.39-2.65,4.1-2.65h.08c.61,.01,1.23,.15,1.82,.42,1.98,.92,3.01,3.13,2.45,5.24l-5.07,19,15.1,8.05c3.81-5.34,9.37-20.8,11.83-27.97,.38-1.12,1.1-2.05,2.02-2.71,.92-.65,2.03-1.03,3.21-1.03,2.96,0,5.39,2.32,5.54,5.27,.48,9.94-4.33,23.5-4.47,23.9l8.55-10.56,7.2-23.84c.16-.53,.47-.97,.86-1.29,.73-.61,1.78-.81,2.73-.41l3.3,1.38,.86-19,.15-3.3c.55-.09,1.1-.18,1.65-.25,1.45-.21,2.92-.38,4.39-.5,10.08-.87,20.19,.08,27.82,1.26,.08,.01,.16,.02,.23,.03,7.66,1.19,12.78,2.61,12.78,2.61Z" fill="#ffc0c0"></path>
      <path d="M474.79,554.73c-3,0-4.95-.24-5.02-.25-8.33-1.96-11.85-1.03-11.88-1.02-8.78,2.31-13.03-1.13-13.92-1.98-9.54,.4-14.94-2.39-15.99-3-6.73,1.38-10.76-6.51-10.93-6.85-2.74-4.1-10.81-10.96-11.84-11.83-5.37-.79-8.8-2.55-10.21-5.23-1.45-2.76-.15-5.42-.09-5.54l9.69-21.5c.8-1.79,2.59-2.94,4.56-2.94,.79,.01,1.48,.17,2.12,.47,2.2,1.02,3.34,3.47,2.72,5.82l-4.97,18.62,14.36,7.66c3.82-5.68,9.3-21.04,11.51-27.48,.41-1.2,1.17-2.22,2.21-2.95,1.02-.73,2.23-1.12,3.5-1.12,3.23,0,5.88,2.53,6.04,5.75,.36,7.46-2.23,16.93-3.65,21.5l6.78-8.37,7.17-23.75c.18-.6,.54-1.13,1.02-1.53,.91-.75,2.15-.94,3.24-.48l2.64,1.1,1-21.99,.4-.07c.55-.09,1.11-.18,1.67-.25,1.42-.21,2.9-.38,4.41-.51,10.49-.9,20.98,.19,27.94,1.26l.21,.03c7.62,1.19,12.8,2.61,12.86,2.62l.4,.11-.03,.41-4.6,58.42c-.37,4.24-1.48,8.01-3.29,11.21-6.77,11.99-22.04,13.65-29.99,13.65Zm-14.21-2.5c1.99,0,5.05,.26,9.37,1.27,.2,.02,24.97,3,33.96-12.91,1.74-3.07,2.81-6.71,3.17-10.8l4.57-58c-1.34-.35-5.98-1.5-12.33-2.49l-.22-.03c-6.91-1.07-17.32-2.15-27.71-1.26-1.49,.13-2.96,.3-4.36,.5-.42,.06-.83,.12-1.24,.19l-1.03,22.61-3.96-1.65c-.75-.31-1.6-.18-2.22,.33-.33,.27-.58,.64-.7,1.05l-7.29,24.01-10.36,12.79,.95-2.71c.51-1.45,4.9-14.27,4.45-23.72-.13-2.69-2.34-4.8-5.04-4.8-1.06,0-2.07,.32-2.92,.93-.87,.61-1.5,1.46-1.84,2.46-2.28,6.63-7.99,22.63-11.89,28.1l-.25,.36-15.83-8.44,5.17-19.39c.5-1.88-.41-3.84-2.17-4.66-.51-.24-1.06-.37-1.62-.38-1.64,0-3.07,.92-3.72,2.35l-9.7,21.52s-1.13,2.35,.08,4.65c1.26,2.4,4.49,3.98,9.6,4.71l.14,.02,.11,.09c.37,.31,9.15,7.65,12.17,12.19,.07,.13,3.97,7.74,10.04,6.33l.2-.05,.18,.11c.05,.03,5.56,3.43,15.81,2.94h.24s.16,.17,.16,.17c.04,.04,3.97,4.26,13.09,1.86,.07-.02,.99-.27,2.95-.27Z"></path>
    </g>
    <path d="M463.63,543.65s-.07,0-.11-.01c-.27-.06-.44-.33-.38-.6,1.96-8.8,.55-12.24,.53-12.28-.06-.13-.05-.28,0-.41,9.74-20.93,.28-27.49,.18-27.55-.17-.11-.26-.32-.21-.53,1.92-8.64,.25-11.4,.23-11.43-.15-.23-.08-.54,.15-.69,.23-.15,.53-.09,.69,.14,.08,.12,1.9,2.97-.02,11.88,1.64,1.29,9.14,8.59-.02,28.42,.3,.92,1.22,4.69-.55,12.67-.05,.23-.26,.39-.49,.39Z"></path>
    <path d="M443,547.68c-.13,0-.26-.05-.35-.15-.2-.2-.2-.51,0-.71,.22-.23,22.47-22.74,20.99-44.4-.02-.28,.19-.51,.46-.53,.27-.01,.51,.19,.53,.46,1.51,22.11-21.05,44.95-21.28,45.18-.1,.1-.23,.15-.35,.15Z"></path>
    <path d="M426.39,544.16c-.15,0-.3-.07-.4-.2-.16-.22-.12-.54,.11-.7l8.66-6.4c1.83-1.35,3.22-3.2,4.02-5.33l2.41-6.41c.1-.26,.39-.39,.64-.29,.26,.1,.39,.39,.29,.64l-2.41,6.41c-.87,2.31-2.38,4.31-4.37,5.78l-8.66,6.4c-.09,.07-.19,.1-.3,.1Z"></path>
    <g>
      <path d="M466.43,469.17c.05-.09,.62-1.32,.66-1.41,4.54-8.38,7.77-10.4,7.77-10.4l14.09-2.01c14.09-5.03,13.59-16.61,13.59-16.61,2.01-13.59-19.63-12.58-19.63-12.58l-26.74,5.01-5.47,1.03c-3.21,1.07-6.03,2.54-8.49,4.22-4.6,3.16-7.96,7.09-10.32,10.66-1.73,2.61-2.93,5.02-3.7,6.8-.78,1.78-1.04,3.73-.8,5.66l.58,4.65c.06,.48,0,.96-.18,1.4l-8.28,20.46-10.24,8.93-.03,.12c.61,.01,1.23,.15,1.82,.42,1.98,.92,3.01,3.13,2.45,5.24l-5.07,19,15.1,8.05c3.81-5.34,9.37-20.8,11.83-27.97,.38-1.12,1.1-2.05,2.02-2.71,.92-.65,2.03-1.03,3.21-1.03,2.96,0,5.4,2.32,5.54,5.27,.48,9.94-4.33,23.5-4.47,23.9l8.55-10.56,7.2-23.84c.16-.53,.47-.97,.86-1.29v-.04c2.39-7.61,4.75-13.48,6.89-18l1.27-2.4Z" fill="#f7ce21"></path>
      <path d="M423.68,528.47l-15.83-8.44,5.17-19.39c.5-1.88-.41-3.84-2.17-4.66-.51-.24-1.06-.37-1.62-.38h-.62s.21-.89,.21-.89l10.27-8.96,8.24-20.35c.15-.37,.2-.77,.15-1.15l-.58-4.65c-.25-2.03,.04-4.08,.84-5.92,.7-1.61,1.92-4.12,3.75-6.88,2.92-4.41,6.44-8.04,10.46-10.79,2.66-1.82,5.56-3.26,8.62-4.28l32.27-6.06c.58-.03,12.84-.53,18.06,5.24,1.89,2.09,2.62,4.75,2.15,7.9,.01,.02,.36,11.91-13.92,17.01l-.1,.02-13.97,2c-.51,.37-3.5,2.75-7.52,10.16-.02,.05-.17,.37-.32,.69-.16,.34-.31,.67-.34,.71h0s-1.27,2.4-1.27,2.4c-2.39,5.01-4.69,11.01-6.83,17.81l.02,.17-.21,.21c-.33,.27-.57,.63-.7,1.05l-7.29,24.01-10.36,12.79,.95-2.71c.51-1.45,4.9-14.27,4.45-23.72-.13-2.69-2.34-4.8-5.04-4.8-1.06,0-2.07,.32-2.92,.93-.87,.61-1.5,1.46-1.84,2.46-2.28,6.63-7.99,22.63-11.89,28.1l-.25,.36Zm-14.67-8.95l14.36,7.66c3.82-5.68,9.3-21.04,11.51-27.48,.41-1.2,1.17-2.22,2.21-2.95,1.02-.73,2.23-1.12,3.5-1.12,3.23,0,5.88,2.53,6.04,5.75,.36,7.46-2.23,16.93-3.65,21.5l6.78-8.37,7.17-23.75c.17-.54,.47-1.03,.88-1.41,2.16-6.85,4.48-12.9,6.9-17.98l1.28-2.42c.03-.06,.17-.36,.32-.67,.16-.34,.32-.69,.35-.74,4.55-8.41,7.81-10.51,7.95-10.59l.19-.07,14.04-2.01c13.51-4.85,13.23-15.64,13.21-16.1,.43-2.93-.21-5.32-1.9-7.18-4.91-5.43-17.08-4.93-17.21-4.93l-32.14,6.03c-2.9,.97-5.72,2.37-8.3,4.14-3.91,2.68-7.34,6.22-10.19,10.52-1.79,2.7-2.98,5.14-3.66,6.72-.73,1.68-1,3.54-.76,5.4l.58,4.65c.07,.55,0,1.13-.21,1.65l-8.33,20.58-9.62,8.39c.33,.08,.65,.19,.96,.34,2.2,1.02,3.34,3.47,2.72,5.82l-4.97,18.62Z"></path>
    </g>
    <g>
      <path d="M442.22,436.42c-4.6,3.16-7.96,7.09-10.32,10.66l-1.67-1.43c-.73-.63-.83-1.73-.22-2.48l6.91-8.44c.59-.72,1.64-.87,2.4-.33l2.9,2.03Z" fill="#f7ce21"></path>
      <path d="M432,447.83l-2.1-1.8c-.93-.8-1.06-2.23-.28-3.18l6.91-8.44c.75-.92,2.1-1.11,3.08-.42l3.49,2.44-.59,.41c-3.91,2.68-7.34,6.22-10.19,10.52l-.31,.47Zm6.3-13.26c-.37,0-.74,.16-1,.47l-6.91,8.44c-.44,.53-.37,1.34,.16,1.79l1.24,1.07c2.71-3.98,5.92-7.31,9.55-9.91l-2.31-1.62c-.22-.16-.48-.23-.73-.23Z"></path>
    </g>
    <path d="M429.91,514.46c-.13,0-.26-.05-.35-.15l-11.07-11.07s-.05-.06-.08-.1c-.49-.81-.88-2.86,1.12-4.84,.72-.71,1.25-1.41,1.64-2.16l6.28-12.11,6.19-13.63c.86-1.89,3.06-2.82,5.02-2.11l17.02,6.19c.97,.35,2.05-.04,2.56-.94l4.44-7.78c.28-.49,.42-1.05,.39-1.62l-.35-7.65c-.08-1.68,.47-3.31,1.55-4.6l8.52-10.23c.18-.21,.49-.24,.7-.06,.21,.18,.24,.49,.06,.7l-8.52,10.23c-.92,1.1-1.38,2.49-1.32,3.92l.35,7.65c.03,.76-.15,1.5-.52,2.16l-4.44,7.78c-.76,1.32-2.34,1.9-3.77,1.38l-17.02-6.19c-1.47-.53-3.12,.16-3.77,1.58l-6.21,13.65-6.29,12.13c-.43,.84-1.03,1.62-1.83,2.41-1.77,1.74-1.14,3.28-.99,3.57l11.02,11.02c.2,.2,.2,.51,0,.71-.1,.1-.23,.15-.35,.15Z"></path>
    <g>
      <rect x="51.43" y="56.08" width="392.01" height="275.19" rx="13.33" ry="13.33" fill="#B499FA"></rect>
      <path d="M430.12,331.77H64.76c-7.62,0-13.83-6.2-13.83-13.83V69.41c0-7.62,6.2-13.83,13.83-13.83H430.12c7.62,0,13.83,6.2,13.83,13.83v248.53c0,7.62-6.2,13.83-13.83,13.83ZM64.76,56.58c-7.07,0-12.83,5.75-12.83,12.83v248.53c0,7.07,5.75,12.83,12.83,12.83H430.12c7.07,0,12.83-5.75,12.83-12.83V69.41c0-7.07-5.75-12.83-12.83-12.83H64.76Z"></path>
    </g>
    <g>
      <rect x="63.82" y="68.69" width="362.72" height="249.98" fill="#fff"></rect>
      <path d="M427.03,319.16H63.32V68.19H427.03v250.98Zm-362.72-1H426.03V69.19H64.32v248.98Z"></path>
    </g>
    <g>
      <rect x="102.7" y="89.22" width="22.33" height="21.61" fill="#fff"></rect>
      <path d="M125.54,111.33h-23.33v-22.61h23.33v22.61Zm-22.33-1h21.33v-20.61h-21.33v20.61Z"></path>
    </g>
    <g>
      <rect x="159.62" y="89.22" width="22.33" height="21.61" fill="#fff"></rect>
      <path d="M182.45,111.33h-23.33v-22.61h23.33v22.61Zm-22.33-1h21.33v-20.61h-21.33v20.61Z"></path>
    </g>
    <g>
      <rect x="216.53" y="89.22" width="22.33" height="21.61" fill="#fff"></rect>
      <path d="M239.36,111.33h-23.33v-22.61h23.33v22.61Zm-22.33-1h21.33v-20.61h-21.33v20.61Z"></path>
    </g>
    <g>
      <rect x="273.44" y="89.22" width="22.33" height="21.61" fill="#fff"></rect>
      <path d="M296.27,111.33h-23.33v-22.61h23.33v22.61Zm-22.33-1h21.33v-20.61h-21.33v20.61Z"></path>
    </g>
    <g>
      <rect x="330.35" y="89.22" width="22.33" height="21.61" fill="#fff"></rect>
      <path d="M353.18,111.33h-23.33v-22.61h23.33v22.61Zm-22.33-1h21.33v-20.61h-21.33v20.61Z"></path>
    </g>
    <g>
      <rect x="216.53" y="133.16" width="22.33" height="21.61" fill="#fff"></rect>
      <path d="M239.36,155.27h-23.33v-22.61h23.33v22.61Zm-22.33-1h21.33v-20.61h-21.33v20.61Z"></path>
    </g>
    <g>
      <rect x="273.44" y="133.16" width="22.33" height="21.61" fill="#fff"></rect>
      <path d="M296.27,155.27h-23.33v-22.61h23.33v22.61Zm-22.33-1h21.33v-20.61h-21.33v20.61Z"></path>
    </g>
    <g>
      <rect x="330.35" y="133.16" width="22.33" height="21.61" fill="#fff"></rect>
      <path d="M353.18,155.27h-23.33v-22.61h23.33v22.61Zm-22.33-1h21.33v-20.61h-21.33v20.61Z"></path>
    </g>
    <g>
      <rect x="216.53" y="178.55" width="22.33" height="21.61" fill="#fff"></rect>
      <path d="M239.36,200.66h-23.33v-22.61h23.33v22.61Zm-22.33-1h21.33v-20.61h-21.33v20.61Z"></path>
    </g>
    <g>
      <rect x="273.44" y="178.55" width="22.33" height="21.61" fill="#fff"></rect>
      <path d="M296.27,200.66h-23.33v-22.61h23.33v22.61Zm-22.33-1h21.33v-20.61h-21.33v20.61Z"></path>
    </g>
    <g>
      <rect x="330.35" y="178.55" width="22.33" height="21.61" fill="#fff"></rect>
      <path d="M353.18,200.66h-23.33v-22.61h23.33v22.61Zm-22.33-1h21.33v-20.61h-21.33v20.61Z"></path>
    </g>
    <g>
      <polygon points="213.64 252.03 200.68 252.03 200.68 239.06 187.71 239.06 187.71 226.09 125.04 226.09 125.04 239.06 112.07 239.06 112.07 252.03 99.1 252.03 99.1 264.99 137.64 264.99 137.64 277.96 175.1 277.96 175.1 264.99 213.64 264.99 213.64 252.03" fill="#483181"></polygon>
      <path d="M175.6,278.46h-38.46v-12.97h-38.54v-13.97h12.97v-12.97h12.97v-12.97h63.67v12.97h12.97v12.97h12.97v13.97h-38.54v12.97Zm-37.46-1h36.46v-12.97h38.54v-11.97h-12.97v-12.97h-12.97v-12.97h-61.67v12.97h-12.97v12.97h-12.97v11.97h38.54v12.97Z"></path>
    </g>
    <g>
      <rect x="124.32" y="277.96" width="12.97" height="12.97" fill="#483181"></rect>
      <path d="M137.78,291.43h-13.97v-13.97h13.97v13.97Zm-12.97-1h11.97v-11.97h-11.97v11.97Z"></path>
    </g>
    <g>
      <rect x="111.35" y="290.93" width="12.97" height="12.97" fill="#483181"></rect>
      <path d="M124.82,304.39h-13.97v-13.97h13.97v13.97Zm-12.97-1h11.97v-11.97h-11.97v11.97Z"></path>
    </g>
    <g>
      <rect x="188.43" y="290.93" width="12.97" height="12.97" fill="#483181"></rect>
      <path d="M201.9,304.39h-13.97v-13.97h13.97v13.97Zm-12.97-1h11.97v-11.97h-11.97v11.97Z"></path>
    </g>
    <g>
      <rect x="175.46" y="277.96" width="12.97" height="12.97" fill="#483181"></rect>
      <path d="M188.93,291.43h-13.97v-13.97h13.97v13.97Zm-12.97-1h11.97v-11.97h-11.97v11.97Z"></path>
    </g>
    <g>
      <g>
        <rect x="136.92" y="238.34" width="12.97" height="12.97" fill="#fff"></rect>
        <path d="M150.39,251.81h-13.97v-13.97h13.97v13.97Zm-12.97-1h11.97v-11.97h-11.97v11.97Z"></path>
      </g>
      <g>
        <rect x="162.86" y="238.34" width="12.97" height="12.97" fill="#fff"></rect>
        <path d="M176.32,251.81h-13.97v-13.97h13.97v13.97Zm-12.97-1h11.97v-11.97h-11.97v11.97Z"></path>
      </g>
    </g>
    <g>
      <rect x="142.55" y="216.73" width="1" height="2.16"></rect>
      <path d="M143.55,212.44h-1v-4.29h1v4.29Zm0-8.58h-1v-4.29h1v4.29Zm0-8.58h-1v-4.29h1v4.29Zm0-8.58h-1v-4.29h1v4.29Zm0-8.58h-1v-4.29h1v4.29Zm0-8.58h-1v-4.29h1v4.29Zm0-8.58h-1v-4.29h1v4.29Zm0-8.58h-1v-4.29h1v4.29Zm0-8.58h-1v-4.29h1v4.29Zm0-8.58h-1v-4.29h1v4.29Z"></path>
      <rect x="142.55" y="124.52" width="1" height="2.16"></rect>
    </g>
    <g>
      <rect x="168.48" y="216.73" width="1" height="2.16"></rect>
      <path d="M169.48,212.44h-1v-4.29h1v4.29Zm0-8.58h-1v-4.29h1v4.29Zm0-8.58h-1v-4.29h1v4.29Zm0-8.58h-1v-4.29h1v4.29Zm0-8.58h-1v-4.29h1v4.29Zm0-8.58h-1v-4.29h1v4.29Zm0-8.58h-1v-4.29h1v4.29Zm0-8.58h-1v-4.29h1v4.29Zm0-8.58h-1v-4.29h1v4.29Zm0-8.58h-1v-4.29h1v4.29Z"></path>
      <rect x="168.48" y="124.52" width="1" height="2.16"></rect>
    </g>
    <g>
      <rect x="257.59" y="254.19" width="128.23" height="7.92" rx="3.96" ry="3.96" fill="#f7ce21"></rect>
      <path d="M381.86,262.61h-120.3c-2.46,0-4.46-2-4.46-4.46s2-4.46,4.46-4.46h120.3c2.46,0,4.46,2,4.46,4.46s-2,4.46-4.46,4.46Zm-120.3-7.92c-1.91,0-3.46,1.55-3.46,3.46s1.55,3.46,3.46,3.46h120.3c1.91,0,3.46-1.55,3.46-3.46s-1.55-3.46-3.46-3.46h-120.3Z"></path>
    </g>
    <g>
      <rect x="257.59" y="272.92" width="128.23" height="7.92" rx="3.96" ry="3.96" fill="#B499FA"></rect>
      <path d="M381.86,281.34h-120.3c-2.46,0-4.46-2-4.46-4.46s2-4.46,4.46-4.46h120.3c2.46,0,4.46,2,4.46,4.46s-2,4.46-4.46,4.46Zm-120.3-7.92c-1.91,0-3.46,1.55-3.46,3.46s1.55,3.46,3.46,3.46h120.3c1.91,0,3.46-1.55,3.46-3.46s-1.55-3.46-3.46-3.46h-120.3Z"></path>
    </g>
    <g>
      <rect x="257.59" y="293.81" width="128.23" height="7.92" rx="3.96" ry="3.96" fill="#483181"></rect>
      <path d="M381.86,302.23h-120.3c-2.46,0-4.46-2-4.46-4.46s2-4.46,4.46-4.46h120.3c2.46,0,4.46,2,4.46,4.46s-2,4.46-4.46,4.46Zm-120.3-7.92c-1.91,0-3.46,1.55-3.46,3.46s1.55,3.46,3.46,3.46h120.3c1.91,0,3.46-1.55,3.46-3.46s-1.55-3.46-3.46-3.46h-120.3Z"></path>
    </g>
    <path d="M522.67,299.84l6.35,15.59s16.11-.86,26.89-10.39c0,0-14.26,5.14-33.24-5.2Z"></path>
    <path d="M721.96,315.44s5.44,9.07,13.59,10.07c0,0,2.89-3.25,2.52-20.13l-16.1,10.07Z"></path>
  </g>
  <g>
    <path d="M552.23,228.62c-.15,0-.29-.07-.39-.19-.17-.22-.13-.53,.08-.7,6.59-5.17,13.9-.07,13.98-.01,.22,.16,.28,.47,.12,.7s-.47,.28-.7,.12c-.27-.19-6.78-4.71-12.78-.01-.09,.07-.2,.11-.31,.11Z"></path>
    <path d="M506.71,227.11c-.15,0-.29-.07-.39-.19-.17-.22-.13-.53,.08-.7,6.59-5.16,13.91-.07,13.98-.01,.22,.16,.28,.47,.12,.7-.16,.22-.47,.28-.7,.12-.27-.19-6.78-4.71-12.78-.01-.09,.07-.2,.11-.31,.11Z"></path>
    <ellipse cx="557.09" cy="239.59" rx="3.31" ry="5.51"></ellipse>
    <ellipse cx="516.6" cy="238.61" rx="3.31" ry="5.51"></ellipse>
    <path d="M532.62,262.98c-1.79,0-3.43-.5-4.79-1.11-.77-.35-1.31-1.05-1.45-1.89-.14-.85,.15-1.71,.78-2.29,6.05-5.67,8.06-17.55,8.08-17.67,.04-.27,.3-.45,.57-.41,.27,.04,.46,.3,.41,.57-.08,.5-2.07,12.33-8.38,18.24-.38,.36-.56,.88-.48,1.4,.08,.51,.4,.93,.87,1.14,2.72,1.23,6.74,1.96,10.49-1.58,.2-.19,.52-.18,.71,.02,.19,.2,.18,.52-.02,.71-2.27,2.14-4.63,2.88-6.79,2.88Z"></path>
    <path d="M537.04,277.1c-2.78,0-5.94-.73-9.45-2.65-.24-.13-.33-.44-.2-.68,.13-.24,.44-.33,.68-.2,13.54,7.43,21.44-3.64,21.77-4.11,.16-.23,.47-.28,.7-.13,.23,.16,.28,.47,.13,.7-.06,.09-5.01,7.07-13.62,7.07Z"></path>
  </g>
</svg>
