<?xml version="1.0" encoding="UTF-8"?>
<svg xmlns="http://www.w3.org/2000/svg" id="a" width="865.76" height="682.89" viewBox="0 0 865.76 682.89">
  <g>
    <path d="M282.12,606.44h0c-.05,2.12,.39,4.23,1.29,6.16,0,0,5.32,12.97,7.95,18,1.02,1.94,1.91,3.94,2.71,5.97,2.87,7.22,7.68,13.54,13.94,18.23,13.29,6.98,40.22-2.66,40.22-2.66,6.36-2.44-7.09-17.13-14.75-24.85-3.26-3.29-5.77-7.24-7.34-11.59l-5.83-16.07c-26.49,7.33-35.56-2.68-35.56-2.68-1.67,2.89-2.58,6.16-2.62,9.5Z" fill="#483181" stroke="#002346" stroke-miterlimit="10"></path>
    <path d="M281.66,624.85l4.49,7.41c.19,.32,.68,.21,.72-.16l.54-4.52c1.31,0,4.64,12.62,4.64,12.62,2,10.3,16.96,16.96,16.96,16.96,7.65,4.66,32.27,.72,32.27,.72,8.97-1.99,6.97-5.67,6.97-5.67,0,0-26.93,9.64-40.22,2.66-6.26-4.69-11.07-11.01-13.94-18.23-.81-2.03-1.7-4.03-2.71-5.97-2.63-5.02-7.95-18-7.95-18-.9-1.93-1.34-4.03-1.29-6.16-1.84,2.08-2.13,8.52-2.12,12.49,0,2.06,.58,4.08,1.64,5.84Z" fill="#fff" stroke="#002346" stroke-miterlimit="10"></path>
    <path d="M432.18,341.69l-.48-7.34s-10.6,2.07-15.04,.68l-.67,7.29c5.4,.09,10.8-.11,16.18-.63Z" fill="#fff" stroke="#002346" stroke-miterlimit="10"></path>
    <path d="M416.64,335.32s8.57,1.35,15.71-.72c.2-.06,.34-.25,.35-.46,.17-3.8,1.56-37.01,0-41.7,0,0-.33-32.05,.78-48.92,0,0,8.48-66.76-5.76-69.76l-15.5,54.27-.83,105.97,5.26,1.31Z" fill="#483181" stroke="#002346" stroke-miterlimit="10"></path>
    <path d="M358.27,331.46l-48.13-4.49s-12.87,9.95-11.83,22.82c0,0-2.29,9.34-1.25,13.28,0,0-17.36,206.31-22.89,224.57,0,0,11.2,16.32,29.74,15.21,0,0,16.74-1.52,20.34-4.97l13.28-112.05,7.04-41.1c.26-1.74,.63-3.46,1.13-5.14l4.4-17.63c.29-1.17,1.99-1.04,2.1,.16l13.96,153.61s26.07,12.72,46.72-1.56c3.2-2.19,4.93-5.95,4.53-9.8-1.88-17.77-7.33-75.44-5.61-131.41l2.12-32.78s2.49-51.87,2.77-64.88l-58.41-3.85Z" fill="#CDC5F1" stroke="#002346" stroke-miterlimit="10"></path>
    <path d="M302.63,289.5c.87-17.66-1.48-36.42-2.8-54.05l8.93-22.05c1.3-3.21,1.66-6.71,1.05-10.11-1.55-8.59-5.55-25.99-14.65-42.41,0,0,23.8-8.57,45.65-8.48l20.14,4.29h33.4s4.84-3.05,4.84,6.63l29.32,10.51s10.24,2.77,0,24.62l-8,20.14c-2.52,6.33-3.86,13.06-3.98,19.87-.16,9.3-.06,22.4,1.44,29.72,2.16,18.01,2.07,36.23-.28,54.22l-.28,13s-28.46,4.57-42.82-2.12c0,0-45.45,9.48-72.53-6.03l.57-37.75Z" fill="#483181" stroke="#002346" stroke-miterlimit="10"></path>
    <rect x="360.13" y="130.69" width="31.33" height="25.93" fill="#002346" stroke="#002346" stroke-miterlimit="10"></rect>
    <path d="M385.68,165.15s5.01-7.6-3.04-9.93c-3.15-.47-6.28,1-7.93,3.73,0,0-3.61,6.36,2.97,9.04l8-2.84Z" fill="#0071f2"></path>
    <path d="M324.32,342.08l-30.2-89.82c-.16-.45-.16-.93,0-1.38l5.46-14.19,9.69-24.43c1-2.53,1.32-5.28,.93-7.97-1.22-8.37-4.73-27.41-12.89-41.88-.74-1.32-2.48-1.67-3.67-.73-3.88,3.07-11.6,10.16-13.82,19.28,0,0-11.43,43.02-15.41,52.55,0,0-6.86,16.38-2.16,33.13,0,0,28.15,73.33,36.63,90.28l25.43-14.84Z" fill="#483181" stroke="#002346" stroke-miterlimit="10"></path>
    <path d="M381.68,211.94c.58,19.08,.46,39.6-.73,61.46-1.58,29.22-2.54,35.71-6.57,59.86" fill="none" stroke="#002346" stroke-linecap="round" stroke-linejoin="round"></path>
    <circle cx="374.64" cy="215.8" r="3.71" fill="#fff" stroke="#002346" stroke-miterlimit="10"></circle>
    <circle cx="375.03" cy="249.82" r="3.71" fill="#fff" stroke="#002346" stroke-miterlimit="10"></circle>
    <path d="M362.24,595.06c-.04,1.72,.54,3.39,1.64,4.71,4.84,5.83,18.86,4.29,18.86,4.29,9.01-1.06,17.27,4.51,17.27,4.51,6.71,5.86,14.8,9.9,23.51,11.75,17.18,3.43,33.37-5.03,38.97-8.42,.78-.46,1.34-1.23,1.55-2.12,.26-1.11-.08-2.27-.89-3.07-5.08-5-21.35-7.15-21.35-7.15-12.72-1.25-16.27-7-16.27-7l-12.26-18.77c-19.24,14.76-47.07,1.94-47.07,1.94-4.09,3.45-3.95,19.34-3.95,19.34Z" fill="#483181" stroke="#002346" stroke-miterlimit="10"></path>
    <path d="M363.18,612.56l23.03,2.01c3.75,0,3-2.76,3-2.76,6.51-2.51,18.02,5.5,18.02,5.5,22.77,15.01,56.55-3,56.55-3,3.76-1.76,.51-4.51,.51-4.51h-.28c-.2,.89-.76,1.65-1.55,2.12-5.6,3.39-21.79,11.86-38.97,8.42-8.71-1.85-16.8-5.9-23.51-11.75,0,0-8.27-5.52-17.27-4.51,0,0-14.02,1.54-18.86-4.29-3.11,5.68-.67,12.77-.67,12.77Z" fill="#fff" stroke="#002346" stroke-miterlimit="10"></path>
    <path d="M432.18,341.69s3.9,15.6,1.12,21.62c0,0-2.01,10.35-5.56,12.72,0,0-8.48,6.52-12.79,1.57l1.56-35.27s9.89,.04,15.67-.64Z" fill="#f2b3c1" stroke="#002346" stroke-miterlimit="10"></path>
    <path d="M428,365.63s-3.86,1.85-3.09-7.57" fill="none" stroke="#002346" stroke-linecap="round" stroke-linejoin="round"></path>
    <path d="M425.53,371.2s-5.56-.61-.16-7.42" fill="none" stroke="#002346" stroke-linecap="round" stroke-linejoin="round"></path>
    <path d="M423.98,370.73s-5.1,5.88-1.7,7.11" fill="none" stroke="#002346" stroke-linecap="round" stroke-linejoin="round"></path>
    <path d="M429.39,356.52s-1.7,1.55-7.42,2c0,0-.77,1.85,.32,6.19,0,0,.31,9.73-2.95,9.42,0,0-1.39,1.06-3.08-3.08l-.93-.32" fill="none" stroke="#002346" stroke-linecap="round" stroke-linejoin="round"></path>
    <path d="M390.08,124.25l-27.26-.14s0-5.67-9.12-10.09c0,0-26.69-12.18-17.57-36.24,0,0,5.3-23.24,39.84-22.41,0,0,35.69-3.87,43.99,34.03l-30.16,3.6s1.65-20.2-14.67-17.16c0,0-9.1,2.54-6.36,12.81,.8,2.8,2.25,5.37,4.24,7.49,2.44,2.7,6.61,5.56,8.83,7.42-.05-.05,9.48,4.64,8.24,20.69Z" fill="#002346" stroke="#002346" stroke-miterlimit="10"></path>
    <path d="M379.4,200.34s11.77-11.51,14.64-20.68c0,0,3.98-9.47,1.32-18.45,0,0-2.66-3.98-6.36-4.82,0,0-7.91-1.97-9.15-.99-2.82,1.01-5.2,2.98-6.73,5.56,0,0-2.2,3.72-4.13,4.24-.07-.01,8.68,27.44,10.41,35.13Z" fill="#fff"></path>
    <path d="M373.46,178.84c1.44,4.55,6.04,21.19,6.04,21.19,2.73-2.2,10.7-12.72,10.7-12.72l-.23-11.47c-.02-1.04-.26-2.06-.71-2.99l-1.73-4.04c-.39-.9-.41-1.93,0-2.83,.6-1.34,1.25-3.61,.26-5.97-2.19-5.23-9.51-6.14-12.81-1.54-.13,.18-.26,.37-.37,.57,0,0-3.41,5.98,2.4,8.78,.26,.13,.32,.46,.11,.66-2.24,2.26-3.34,6.46-3.79,8.44-.1,.63-.05,1.28,.14,1.9Z" fill="#CDC5F1" stroke="#002346" stroke-miterlimit="10"></path>
    <path d="M391.04,149.62s2.49-2.9,1.94,1.66c0,0-.41,4.14,.55,5.39,0,0,4.84,10.37,.69,9.12,0,0-2.35-1.24-6.22-6.22,0,0-2.79-3.91-5.36-4.3-.08-.02-.13-.1-.1-.18,.01-.05,.05-.09,.1-.1,1.85-.79,6.55-2.81,8.4-5.37Z" fill="#483181" stroke="#002346" stroke-miterlimit="10"></path>
    <path d="M379.83,154.91c.13,.05,.19,.2,.14,.33-.03,.08-.11,.14-.2,.16-2.39,.78-4.46,2.32-5.88,4.4,0,0-3.18,5.3-4.98,5.39,0,0-4.6-14.29-14.48-20.4,0,0,2.12-4.24,7-.76,0,0,11.94,7.83,18.39,10.88Z" fill="#483181" stroke="#002346" stroke-miterlimit="10"></path>
    <path d="M393.54,156.62s7.67,12.24-2.9,30.09c0,0-7.65,10.27-11.17,13.37l.86,3.79s13.78-11.75,17.77-29.67c.45-2.09,.73-4.22,.86-6.36,.38-5.34,.3-13.99-5.42-11.22Z" fill="#fff" stroke="#002346" stroke-miterlimit="10"></path>
    <path d="M348.82,158.22c.27-.15,.17-.55-.14-.57l-6.88-.24c-1.22-.28-2.05-1.41-1.96-2.66l.16-2.46c1.16-3.19,3.54-5.8,6.61-7.24,1.55-.71,3.24-1.07,4.95-1.06,1.21,0,2.39,.38,3.39,1.06,1.57,1.04,3.02,2.25,4.32,3.6,3.18,3.4,7.21,9.11,10.24,18.38,0,.05,9.46,25.99,11.92,43.15,.05,.36-.43,.52-.6,.21-4.02-7.4-21.77-39.13-35.41-48.26-.56-.36-.72-1.11-.36-1.67,.16-.25,.42-.44,.71-.51l3.04-1.73Z" fill="#fff" stroke="#002346" stroke-miterlimit="10"></path>
    <polygon points="305.7 361.26 311.07 372.29 328.56 359.04 323.26 350.56 305.7 361.26" fill="#f2b3c1" stroke="#002346" stroke-miterlimit="10"></polygon>
    <line x1="306.3" y1="376" x2="337.04" y2="352.68" fill="none" stroke="#002346" stroke-linecap="round" stroke-linejoin="round"></line>
    <rect x="297.56" y="348.51" width="31.52" height="7.42" transform="translate(-134.13 203.85) rotate(-30)" fill="#fff" stroke="#002346" stroke-miterlimit="10"></rect>
    <line x1="351.87" y1="420.51" x2="353.99" y2="374.94" fill="none" stroke="#002346" stroke-linecap="round" stroke-linejoin="round"></line>
  </g>
  <g>
    <rect x="141.57" y="620.33" width="15.44" height="27.83" fill="#e6e7e8" stroke="#002346" stroke-miterlimit="10"></rect>
    <rect x="73.36" y="620.33" width="15.44" height="27.83" fill="#e6e7e8" stroke="#002346" stroke-miterlimit="10"></rect>
    <path d="M190.94,453.48H67.73c-2.57,0-4.66,2.08-4.66,4.66v157.55c0,2.57,2.08,4.66,4.66,4.66h123.21s0-166.86,0-166.86Z" fill="#e6e7e8" stroke="#002346" stroke-miterlimit="10"></path>
    <rect x="89.82" y="453.48" width="124.55" height="166.86" rx="4.66" ry="4.66" fill="#fff" stroke="#002346" stroke-miterlimit="10"></rect>
    <rect x="187.92" y="620.33" width="15.44" height="27.83" fill="#fff" stroke="#002346" stroke-miterlimit="10"></rect>
    <rect x="99.15" y="620.33" width="15.44" height="27.83" fill="#fff" stroke="#002346" stroke-miterlimit="10"></rect>
    <g>
      <path d="M200.99,503.63H103.19c-2.76,0-5-2.24-5-5v-32.17c0-2.76,2.24-5,5-5h97.8c2.76,0,5,2.24,5,5v32.17c0,2.76-2.24,5-5,5Z" fill="#e6e7e8" stroke="#002346" stroke-miterlimit="10"></path>
      <circle cx="152.09" cy="482.54" r="5" fill="#fff" stroke="#002346" stroke-miterlimit="10"></circle>
    </g>
    <g>
      <path d="M200.99,557.13H103.19c-2.76,0-5-2.24-5-5v-32.17c0-2.76,2.24-5,5-5h97.8c2.76,0,5,2.24,5,5v32.17c0,2.76-2.24,5-5,5Z" fill="#e6e7e8" stroke="#002346" stroke-miterlimit="10"></path>
      <circle cx="152.09" cy="536.04" r="5" fill="#fff" stroke="#002346" stroke-miterlimit="10"></circle>
    </g>
    <g>
      <path d="M200.99,610.63H103.19c-2.76,0-5-2.24-5-5v-32.17c0-2.76,2.24-5,5-5h97.8c2.76,0,5,2.24,5,5v32.17c0,2.76-2.24,5-5,5Z" fill="#e6e7e8" stroke="#002346" stroke-miterlimit="10"></path>
      <circle cx="152.09" cy="589.54" r="5" fill="#fff" stroke="#002346" stroke-miterlimit="10"></circle>
    </g>
    <g>
      <path d="M138.81,406.36s-1.13-25.81,1.71-38.57c.48-2.15,1.49-4.15,2.96-5.79,5.78-6.5,23.71-26.31,38.95-39.09,0,0-14.27-2.97-27.75,5.15v8.72l-2.98-6.94s-16.65,9.91-15.06,37.07l.79,26.16,1.39,13.29Z" fill="#7cd295" stroke="#002346" stroke-miterlimit="10"></path>
      <path d="M167.06,427.87c0,12.52-8.97,23.24-21.29,25.46h0c-14.08,2.51-27.52-6.87-30.03-20.94-.27-1.49-.4-3-.4-4.52,0-6.33,2.31-12.43,6.51-17.16l28.02-.19,10.45-.08c4.35,4.76,6.76,10.98,6.75,17.43Z" fill="#483181" stroke="#002346" stroke-miterlimit="10"></path>
      <path d="M135.73,410.62v-2.34c.04-3.09-1.19-6.06-3.39-8.22l-39.18-38.51s18.85-2.38,27.82,5.13l.19,10.25,3.11-8.05s16.84,7.14,15.37,41.73l-3.91,.03Z" fill="#7cd295" stroke="#002346" stroke-miterlimit="10"></path>
      <path d="M144.96,410.55l2.14-17.53c.15-1.25,.7-2.42,1.55-3.34,5.61-6.01,27.81-29.53,40.7-40.2,0,0-14.87-1.39-28.14,5.35l-.4,9.32-2.98-7.14s-14.47,8.13-14.87,36.45v17.08h1.98Z" fill="#7cd295" stroke="#002346" stroke-miterlimit="10"></path>
    </g>
  </g>
  <g>
    <rect x="54.01" y="23.44" width="171" height="236" fill="none" stroke="#002346" stroke-linecap="round" stroke-linejoin="round"></rect>
    <rect x="62.51" y="33.94" width="155" height="215" fill="none" stroke="#002346" stroke-linecap="round" stroke-linejoin="round"></rect>
    <path d="M218.03,244.72c-1.99,.15-4,.22-6.03,.22-40.59,0-73.5-30-73.5-67s32.91-67,73.5-67c1.85,0,3.69,.06,5.51,.19" fill="none" stroke="#002346" stroke-linecap="round" stroke-linejoin="round"></path>
    <path d="M94.69,34.54s30.32,56.9-32.68,91.9" fill="none" stroke="#002346" stroke-linecap="round" stroke-linejoin="round"></path>
    <path d="M192.24,34.57s-60.67,15.83-75.18,102.28c-.79,4.69-1.22,9.44-1.43,14.2-.84,19.73-5.79,85.42-34.62,98.25" fill="none" stroke="#002346" stroke-linecap="round" stroke-linejoin="round"></path>
    <ellipse cx="176.01" cy="180.44" rx="22.5" ry="11.5" fill="none" stroke="#002346" stroke-linecap="round" stroke-linejoin="round"></ellipse>
    <ellipse cx="176.01" cy="176.94" rx="8.5" ry="5" fill="none" stroke="#002346" stroke-linecap="round" stroke-linejoin="round"></ellipse>
    <ellipse cx="183.01" cy="76.44" rx="22.5" ry="11.5" fill="none" stroke="#002346" stroke-linecap="round" stroke-linejoin="round"></ellipse>
    <ellipse cx="183.01" cy="72.94" rx="8.5" ry="5" fill="none" stroke="#002346" stroke-linecap="round" stroke-linejoin="round"></ellipse>
    <ellipse cx="87.01" cy="165.44" rx="11.5" ry="22.5" fill="none" stroke="#002346" stroke-linecap="round" stroke-linejoin="round"></ellipse>
    <ellipse cx="83.51" cy="165.44" rx="5" ry="8.5" fill="none" stroke="#002346" stroke-linecap="round" stroke-linejoin="round"></ellipse>
  </g>
  <polyline points="526.25 111.71 526.25 472.37 797.03 472.37 797.03 115.1" fill="none" stroke="#002346" stroke-linecap="round" stroke-linejoin="round"></polyline>
  <path d="M514.4,37.48V105.68s30.34,25.44,86.22,3.35c0,0,49.66,27.05,117.77,3.98,0,0,55.61,20.69,93.36-6.19V37.48s-296.35,1-297.35,0Z" fill="none" stroke="#002346" stroke-linecap="round" stroke-linejoin="round"></path>
  <path d="M514.4,84s25.34,27.12,86.22,4.04c0,0,53.69,25.92,117.79,2.92,0,0,46.6,25.31,92.35-5.34" fill="none" stroke="#002346" stroke-linecap="round" stroke-linejoin="round"></path>
  <path d="M514.4,93s25.34,27.12,86.22,4.04c0,0,53.69,25.92,117.79,2.92,0,0,46.6,25.31,92.35-5.34" fill="none" stroke="#002346" stroke-linecap="round" stroke-linejoin="round"></path>
  <line x1="551.11" y1="118.09" x2="551.11" y2="435.76" fill="none" stroke="#002346" stroke-linecap="round" stroke-linejoin="round"></line>
  <line x1="625.11" y1="119.09" x2="625.11" y2="435.76" fill="none" stroke="#002346" stroke-linecap="round" stroke-linejoin="round"></line>
  <line x1="772.11" y1="121.09" x2="772.11" y2="434.76" fill="none" stroke="#002346" stroke-linecap="round" stroke-linejoin="round"></line>
  <line x1="702.11" y1="118.09" x2="702.11" y2="435.76" fill="none" stroke="#002346" stroke-linecap="round" stroke-linejoin="round"></line>
  <line x1="551.61" y1="139.05" x2="771.92" y2="139.05" fill="none" stroke="#002346" stroke-linecap="round" stroke-linejoin="round"></line>
  <line x1="551.61" y1="232.05" x2="771.92" y2="232.05" fill="none" stroke="#002346" stroke-linecap="round" stroke-linejoin="round"></line>
  <line x1="551.61" y1="337.05" x2="771.92" y2="337.05" fill="none" stroke="#002346" stroke-linecap="round" stroke-linejoin="round"></line>
  <polyline points="526.25 472.37 551.51 435.94 772.51 435.94 797.03 472.37" fill="none" stroke="#002346" stroke-linecap="round" stroke-linejoin="round"></polyline>
  <g>
    <path d="M601.4,250.86c1.59-7.82,7.81-13.81,15.53-15.85,10.92-2.89,28.86-2.47,43.52,22.64,0,0,13.69,22.2,5.67,54.38,0,0-1.65-16.34-27.45-28.04-2.85-1.29-5.79-2.35-8.78-3.27-8.06-2.5-32.21-11.57-28.49-29.85Z" fill="#7cd295" stroke="#002346" stroke-miterlimit="10"></path>
    <path d="M693.89,223.52c-3.49,.67-6.69,2.5-8.82,5.34-4.15,5.55-7.29,17.17,3.38,40.47,0,0,15.74,33.23-10,72.9,0,0,41.52-18.52,52-57.73,3.63-13.57,2.58-28.05-3.26-40.82-5.28-11.56-15.22-23.61-33.31-20.16Z" fill="#7cd295" stroke="#002346" stroke-miterlimit="10"></path>
    <path d="M670.66,395.35s-20.13-29.72,14.61-59.77c.78-.68,1.59-1.32,2.4-1.96,6.55-5.2,46.1-39.37,18.88-87.21" fill="none" stroke="#002346" stroke-linecap="round" stroke-linejoin="round"></path>
    <path d="M641.57,258.12s36.78,24.33,20.82,67.32c0,0-17.75,43.89,1.09,69.01" fill="none" stroke="#002346" stroke-linecap="round" stroke-linejoin="round"></path>
    <path d="M593.15,327.09c.04-4.96,3.14-9.35,7.61-11.48,6.31-3.01,17.28-4.82,29.07,8.81,0,0,10.68,11.76,9.65,31.96,0,.1-.14,.13-.18,.04-.78-1.92-4.82-9.85-19.72-13.51-1.88-.46-3.78-.77-5.7-.99-5.17-.6-20.82-3.37-20.72-14.82Z" fill="#7cd295" stroke="#002346" stroke-miterlimit="10"></path>
    <path d="M702.96,351.39s25.13-20.03,51.6-.6c0,0,12.23,9.23,9.01,19.01-1.29,3.9-4.82,6.6-8.87,7.28-5.28,.89-14.27,.61-23.93-7.51,0,0-21.47-16.46-27.8-18.19Z" fill="#7cd295" stroke="#002346" stroke-miterlimit="10"></path>
    <path d="M676.49,394.9s3.59-61.91,62.8-42.17" fill="none" stroke="#002346" stroke-linecap="round" stroke-linejoin="round"></path>
    <polygon points="692.64 458.6 637.01 458.6 633.43 393.11 696.23 393.11 692.64 458.6" fill="#fff" stroke="#002346" stroke-miterlimit="10"></polygon>
    <path d="M635.22,419.57c3.64-1.75,9.1-3.73,15.7-3.59,6.44,.14,10.51,2.22,14.81,3.59,6.19,1.97,15.5,3.32,28.7,0" fill="none" stroke="#002346" stroke-linecap="round" stroke-linejoin="round"></path>
    <path d="M635.22,427.65c3.64-1.75,9.1-3.73,15.7-3.59,6.44,.14,10.51,2.22,14.81,3.59,6.19,1.97,15.5,3.32,28.7,0" fill="none" stroke="#002346" stroke-linecap="round" stroke-linejoin="round"></path>
    <path d="M618.17,330.3s24.22,9.87,30.51,62.8" fill="none" stroke="#002346" stroke-linecap="round" stroke-linejoin="round"></path>
  </g>
</svg>
