<?xml version="1.0" encoding="UTF-8"?>
<svg xmlns="http://www.w3.org/2000/svg" id="a" width="865.76" height="682.89" viewBox="0 0 865.76 682.89">
  <polygon points="590.55 376.74 543.47 510.1 555.94 510.1 600.19 380.33 590.55 376.74" fill="#fff" stroke="#002346" stroke-miterlimit="10"></polygon>
  <polygon points="609.92 383.78 600.19 380.33 555.94 510.1 567.38 507.83 609.92 383.78" fill="#e5e6e7" stroke="#002346" stroke-miterlimit="10"></polygon>
  <path d="M422.83,517.74l37.13-7.64s7.92,0,8.09,7.64c0,0,.59,5.65-5.87,8.71l-36.92,6.59-62.24-1.22s-7-.63-6.53-7.72c0,0,0-3.2,3.75-6.36h62.59Z" fill="#e5e6e7" stroke="#002346" stroke-miterlimit="10"></path>
  <path d="M364.33,522.71h59.29l31.09-4.56c1.34-.2,2.59,.73,2.79,2.07,.02,.12,.03,.24,.03,.36h0c0,1.22-.89,2.26-2.1,2.44l-31,4.61h-60.1c-1.36,0-2.46-1.1-2.46-2.46h0c0-1.36,1.1-2.46,2.46-2.46Z" fill="#fff" stroke="#002346" stroke-miterlimit="10"></path>
  <path d="M420.44,502.63l38.29-7.2s7.8-.48,9.09,5.42c0,0,2.35,8.32-7.86,9.25l-37.13,7.64h-62.91c-7-.47-11-8.73-6.72-14.35,.92-1.34,2.35-2.25,3.95-2.52l63.29,1.76Z" fill="#e5e6e7" stroke="#002346" stroke-miterlimit="10"></path>
  <path d="M421.26,507.83l34.63-6.2c1.5-.27,2.94,.72,3.21,2.22,0,.05,.02,.09,.02,.14h0c.2,1.46-.77,2.82-2.21,3.1l-34.7,6.76h-61.3c-1.92,0-3.48-1.55-3.49-3.47h0c0-1.94,1.56-3.5,3.49-3.5,.02,0,.03,0,.05,0l60.3,.95Z" fill="#fff" stroke="#002346" stroke-miterlimit="10"></path>
  <path d="M459.58,292.93l-13.45,40.82,3.76,.84,13.8-40.45c.34-1.13-.3-2.33-1.43-2.67-.09-.03-.18-.05-.27-.06h0c-1.07-.18-2.11,.47-2.41,1.52Z" fill="#B499FA" stroke="#002346" stroke-miterlimit="10"></path>
  <circle cx="559.31" cy="635.9" r="23.64" fill="#002346" stroke="#002346" stroke-miterlimit="10"></circle>
  <circle cx="559.31" cy="635.9" r="17.94" fill="#fff" stroke="#002346" stroke-miterlimit="10"></circle>
  <circle cx="558.51" cy="636.71" r="8.27" fill="#002346" stroke="#002346" stroke-miterlimit="10"></circle>
  <circle cx="375.19" cy="635.9" r="23.64" fill="#002346" stroke="#002346" stroke-miterlimit="10"></circle>
  <circle cx="375.19" cy="635.9" r="17.94" fill="#fff" stroke="#002346" stroke-miterlimit="10"></circle>
  <circle cx="374.39" cy="636.71" r="8.27" fill="#002346" stroke="#002346" stroke-miterlimit="10"></circle>
  <path d="M648.24,342.79l3.75,1.88s17.67-28.38,21.68-33.2c0,0,16.52-16.06,9.6-28.1-.14,4.19-1.06,8.32-2.72,12.17-1.92,4.39-4.13,6.72-9.18,13.12,0,0-2.48,3.13-9.44,12.5-5.08,6.87-9.66,14.1-13.69,21.63Z" fill="#fff" stroke="#002346" stroke-miterlimit="10"></path>
  <path d="M604.85,327.78l28.4-11.49,1.61,17.13s-16.18,12.24-27.63,16.16l-2.38-21.8Z" fill="#f1b2c0" stroke="#002346" stroke-miterlimit="10"></path>
  <polygon points="512.37 469.35 532.9 488.17 548.32 476.99 525.74 453.03 512.37 469.35" fill="#f1b2c0" stroke="#002346" stroke-miterlimit="10"></polygon>
  <path d="M345.79,463.17c-1.42,.59-2.33,1.99-2.28,3.53,.02,2.23,.62,4.43,1.76,6.35,1.1,1.65,2.79,2.81,4.72,3.25,1.07,.27,2.4,.94,2,2.63-.17,.68-.53,1.3-1.05,1.77-1.74,1.65-6.47,7.63,12.86,10.28,0,0,15.48,1.87,23.87-2.81-5.35-7.17-9.06-15.42-10.87-24.18,0,0-15.3-4.13-23.29-2.43-2.64,.15-5.24,.69-7.72,1.61Z" fill="#483181" stroke="#002346" stroke-miterlimit="10"></path>
  <rect x="404.72" y="23.35" width="310.66" height="249.75" fill="#fff" stroke="#002346" stroke-miterlimit="10"></rect>
  <rect x="404.72" y="23.35" width="310.66" height="23.69" fill="#483181" stroke="#002346" stroke-miterlimit="10"></rect>
  <circle cx="563.44" cy="93.58" r="24.86" fill="#B499FA" stroke="#002346" stroke-miterlimit="10"></circle>
  <path d="M513.66,200.08h92.78c10.63,0,19.25,8.62,19.25,19.25h0c0,10.63-8.62,19.25-19.25,19.25h-92.78c-10.63,0-19.25-8.62-19.25-19.25h0c0-10.63,8.62-19.25,19.25-19.25Z" fill="#B499FA" stroke="#002346" stroke-miterlimit="10"></path>
  <rect x="351.53" y="50.3" width="90.7" height="87.48" rx="14.06" ry="14.06" transform="translate(-10.94 87.85) rotate(-12.46)" fill="#B499FA" stroke="#002346" stroke-miterlimit="10"></rect>
  <path d="M408.87,415.65c0,23.45-7.13,32.86-7.13,32.87-8.61,16.63-24.94,15.47-24.94,15.47,0,0,6.93,43.46,43.65,38.64,0,0,28.36,3.37,59.44-60.75,12.97,11.92,26.3,23.98,31.68,28.18,0,0,10.97-10.83,15.2-17.06,0,0-15.33-19.34-30.57-40.62,6.89-13.21,19.47-17.99,22.35-28.16,0,0,57-20,92-34l-5.89-24.4s-55.06,18.91-96.5,24.19c0,0-8.37,1.33-16.13,9.45l-18.25,19.07c-1.41-2.43-2.66-4.73-3.72-6.85,0,0-12.24-28.44-31.52-18.06,0,0-18.17,.93-29.66,62" fill="#B499FA" stroke="#002346" stroke-miterlimit="10"></path>
  <line x1="496.2" y1="412.39" x2="479.89" y2="388.39" fill="none" stroke="#002346" stroke-linecap="round" stroke-linejoin="round"></line>
  <line x1="479.89" y1="441.88" x2="440.57" y2="407.87" fill="none" stroke="#002346" stroke-linecap="round" stroke-linejoin="round"></line>
  <path d="M639.14,309.87l-5.89,6.42,1.61,17.13s4.2,3.69,6.69,0c0,0,2.76-13,2.76-19.19,0,0-3.54-6.13-5.17-4.36Z" fill="#e5e6e7" stroke="#002346" stroke-miterlimit="10"></path>
  <path d="M643.96,307.99s-6.69-6.69-4.82,1.88c0,0,5.34,1.46,4.82,6.42l-2.41,17.13s-2.14,3.21-6.69,0l-2.84,2.11s8.24,6.46,16.27,7.26c0,0,15.47-25.29,24.54-35.27,1.63-1.75,3.09-3.66,4.36-5.68,2.87-4.7,7.18-12.93,6.13-18.47-.12-.54-.66-.87-1.2-.75-.16,.04-.31,.11-.43,.22-4.67,4.34-22.67,20.53-37.73,25.15Z" fill="#483181" stroke="#002346" stroke-miterlimit="10"></path>
  <path d="M555.94,483.6l-7.62-6.61-15.42,11.18s1.19,6.27,7,5.59c-.05,0,14.18-3.55,16.04-10.16Z" fill="#e5e6e7" stroke="#002346" stroke-miterlimit="10"></path>
  <path d="M530.34,485.83s-.82,16.91,2.56,18.61l56.12,3.39s10.02-.5,12.82-3.5c.03-.03,.02-.07-.02-.09-1.62-.61-30.03-11.29-39.09-18.59-.97-.81-1.56-1.98-1.62-3.24l-.33-5.08c-.03-.66-.57-1.19-1.23-1.2-1.48,0-3.81,1.06-3.58,7.47,0,0-2.71,7.28-16.09,10.16,0,0-5.08,1.53-7-5.59l-2.55-2.34Z" fill="#483181" stroke="#002346" stroke-miterlimit="10"></path>
  <path d="M532.9,504.44v5.1l49.45,2.61c3.29,.2,6.59-.04,9.82-.73,4.38-1,9.43-2.98,9.69-7.09,0-.02-.02-.04-.04-.03-.47,.39-5.14,3.98-17.39,3.25l-51.53-3.11Z" fill="#fff" stroke="#002346" stroke-miterlimit="10"></path>
  <path d="M558.96,606.69h23.41c.96,0,1.54,1.07,1.01,1.87l-19.95,30.28c-1.15,1.76-3.23,2.67-5.31,2.34h0c-2.88-.47-4.86-3.17-4.43-6.06l4.08-27.4c.09-.59,.6-1.03,1.19-1.03Z" fill="#fff" stroke="#002346" stroke-miterlimit="10"></path>
  <rect x="380.28" y="599.23" width="14.82" height="7.46" fill="#e5e6e7" stroke="#002346" stroke-miterlimit="10"></rect>
  <path d="M373.46,608.48l-4.07,27.17c-.4,2.66,1.44,5.14,4.1,5.54,.24,.04,.48,.05,.72,.05h0c1.6-.01,3.1-.81,4-2.13l20.52-30.12c.45-.67,.27-1.58-.4-2.02-.24-.16-.52-.24-.81-.25h-22c-1.02,0-1.89,.75-2.06,1.76Z" fill="#fff" stroke="#002346" stroke-miterlimit="10"></path>
  <path d="M461.43,301.91c-.3-.11-.63,.05-.75,.35l-3.81,9.52,1.19-5.35c.24-1.06-.67-2.04-1.75-1.88h0c-2.12,1.86-3.34,4.54-3.34,7.36l-.26,12.39c-.03,1.49-.29,2.96-.77,4.37l-2.02,5.93-3.76-.84,1.35-4.09-1.51-.33c-.59-.09-1.17-.24-1.73-.44-1.45-.46-2.25-2.01-1.79-3.46,.36-1.13,1.4-1.9,2.59-1.91,.49,0,.8,.41,1.09,.92,.5,.89,1.81,.79,2.21-.14h0c.08-.18,.12-.37,.11-.56-.11-1.95-1.46-3.63-3.36-4.15-6.64-1.71-9.53,3.19-9.53,3.19-4.79,7.8,4.49,18.4,4.49,18.4l-4.49,13.53,3-1.08s7.05-3.64,11.63-1.93l.64-10.16c9-3.95,12-25.22,12.89-34,.15-4.14-1.44-5.3-2.32-5.63Z" fill="#f1b2c0" stroke="#002346" stroke-miterlimit="10"></path>
  <path d="M362.79,343.99c-7.92,58.88-61.77,76-74.19,78.76-2.71,.58-5.34,1.52-7.8,2.8-12.88,6.75-11.54,16-11.54,16-6.16-10.3,7.28-22.18,7.28-22.18-45.36,9.52-86.24-14.56-86.24-14.56-58.8-30.29-35.28-73.41-35.28-73.41,11.76-23.52,40.32-16.24,40.32-16.24,58.24,11.76,74.48-13.44,74.48-13.44-21.28,15.12-62.16-2.8-62.16-2.8-31.36-14.56-57.12,9.52-57.12,9.52,8.93-28.91,33.1-33.93,49.45-33.77,7.49,.11,14.9,1.57,21.87,4.32,27.73,10.74,45.72,5.33,45.72,5.33-16.24,1.6-51.52-12.24-51.52-12.24-12.88-7.28-37.52-7.28-37.52-7.28,21.28-10.08,59.92,7.28,59.92,7.28,36.4,14.94,59.19-.52,65.78-6.08,1.65-1.41,3.48-2.6,5.45-3.52,36.18-16.61,52,5.12,52,5.12,18.48-14.56,19,21.84,19,21.84l-17.86,23.77c-8.27-.76-9-10.33-9-10.33,6.16-26.88-6.72-26.32-6.72-26.32,12.88,35.28-13.87,35.86-13.87,35.86" fill="#002346" stroke="#002346" stroke-miterlimit="10"></path>
  <path d="M331.32,351.35l-2.72-24.48,1.7-1s2.29,6,11.91,9.44l-10.89,16.04Z" fill="#f1b2c0" stroke="#002346" stroke-miterlimit="10"></path>
  <rect x="322.54" y="275.11" width="48.16" height="62.15" rx="24.08" ry="24.08" fill="#f1b2c0" stroke="#002346" stroke-miterlimit="10"></rect>
  <path d="M313.77,287.9s6.06-23.86,35.55-22.37c0,0,19.09,30.64-23.78,38.7-17,0,1.75-9.61-11.77-16.33Z" fill="#002346" stroke="#002346" stroke-miterlimit="10"></path>
  <path d="M371.55,304.23s-19.57-2.29-16.64-15.54c0,0,2.76-21.26-7.66-22.16,0,0,24.82-.29,28.3,26.7l-4,11Z" fill="#002346" stroke="#002346" stroke-miterlimit="10"></path>
  <path d="M379.95,371.69l36.15,14.2s-4.17,14.46-5,19.19l-17.24-2.5s2.16-18.65-13.91-30.89Z" fill="#f1b2c0" stroke="#002346" stroke-miterlimit="10"></path>
  <path d="M344.02,464.7s12.41-12.29,10.36-29.07c-.69-4.98-2.82-9.65-6.11-13.45-4.51-5.41-12.09-15.62-12.51-23.56,0,0,14.36-3.36,11.86-35.01l5.93-6.38s29.16,13.65,32.77,19.21c0,0,8.62,11.95,7.51,26.14l15,13.07s2.52,37.71-22.78,47.19c-4.26,1.43-8.84,1.63-13.21,.57-7.17-1.5-22.05-3.51-28.81,1.29Z" fill="#483181" stroke="#002346" stroke-miterlimit="10"></path>
  <path d="M327.29,399.08l278.01,16.07v85.37l-180.05,32.11-59.8,.33c-5.23,.03-9.77-3.61-10.89-8.72l-27.27-125.16Z" fill="none" stroke="#002346" stroke-linecap="round" stroke-linejoin="round"></path>
  <path d="M335.4,408.51l64,131.72h61.88c1.61,0,2.92,1.31,2.92,2.92h0c0,1.61-1.31,2.92-2.92,2.92h-89.54c-5.42-.04-10.72,1.68-15.08,4.9-5.15,3.86-10.08,10.53-9.25,21.79,.89,8.58,6.2,16.06,14,19.73,3.92,1.87,8.21,2.83,12.55,2.8h207.46c15.74,0,28.5,12.76,28.5,28.5v4.73c0,1.15-.93,2.08-2.08,2.08h-.01c-1.15,0-2.08-.93-2.08-2.08h0v-2.37c0-13.97-11.34-25.3-25.31-25.3h0v6h-15.71l.14-7.62h-195.85c-4.92,.03-9.74-1.45-13.79-4.24-8.03-5.43-12.81-14.52-12.73-24.21-.1-10.89,4.51-18.09,9.81-22.77,5.97-5.2,13.64-8.05,21.56-8h19.9l-58.26-120.92-30.01-61.92,4.04-2.94,25.86,54.28Z" fill="#e5e6e7" stroke="#002346" stroke-miterlimit="10"></path>
  <ellipse cx="320.76" cy="309.12" rx="4.88" ry="7.82" transform="translate(-29.15 33.42) rotate(-5.71)" fill="#f1b2c0" stroke="#002346" stroke-miterlimit="10"></ellipse>
  <path d="M321.94,355.1s42.29-41.09,61.57-73.35l18.51-84.16s-5.94-16.32-3-25.21l2.38-21.71c.15-1.33,1.35-2.3,2.68-2.15,.59,.07,1.13,.34,1.53,.78l3.9,4.31c2.07,2.28,3.2,5.27,3.17,8.35-.09,7.78-.21,22.28,.06,22.28,.23,0,2.71-9.24,8.59-11.23,1.79-.61,3.65,.76,3.65,2.65v.07c0,.88-.42,1.69-1.11,2.22-2.02,1.56-6.18,5.73-7.04,14.08,0,0,0,2.63-3.38,6.59-.95,1.11-1.51,2.51-1.63,3.97-.97,12-5.65,65.61-13.53,86.95,0,0-30.77,54.5-57.84,82.31,.06,0-14.79-6.37-18.5-16.75Z" fill="#f1b2c0" stroke="#002346" stroke-miterlimit="10"></path>
  <path d="M324.86,352.41c3.14,5.33,10.54,15.15,23.94,18.74,0,0,1.46,24.07-13,27.47-.03,0-21.26-19.39-13.13-45.69,.34-1.1,1.6-1.52,2.19-.53Z" fill="#483181" stroke="#002346" stroke-miterlimit="10"></path>
  <line x1="405.61" y1="149.31" x2="404.72" y2="169.57" fill="none" stroke="#002346" stroke-linecap="round" stroke-linejoin="round"></line>
  <line x1="409.51" y1="153.62" x2="408.68" y2="170.74" fill="none" stroke="#002346" stroke-linecap="round" stroke-linejoin="round"></line>
  <line x1="357.42" y1="401.08" x2="381.32" y2="503.01" fill="none" stroke="#002346" stroke-linecap="round" stroke-linejoin="round"></line>
  <line x1="401.29" y1="403.36" x2="425.25" y2="532.63" fill="none" stroke="#002346" stroke-linecap="round" stroke-linejoin="round"></line>
  <line x1="435.33" y1="405.33" x2="462.18" y2="526.46" fill="none" stroke="#002346" stroke-linecap="round" stroke-linejoin="round"></line>
  <line x1="472.33" y1="407.33" x2="497.55" y2="520.23" fill="none" stroke="#002346" stroke-linecap="round" stroke-linejoin="round"></line>
  <line x1="531.95" y1="411.46" x2="555.55" y2="510.23" fill="none" stroke="#002346" stroke-linecap="round" stroke-linejoin="round"></line>
  <line x1="500.22" y1="409.08" x2="525.19" y2="514.81" fill="none" stroke="#002346" stroke-linecap="round" stroke-linejoin="round"></line>
  <line x1="566.06" y1="413.32" x2="582.93" y2="504.31" fill="none" stroke="#002346" stroke-linecap="round" stroke-linejoin="round"></line>
  <line x1="605.3" y1="441.55" x2="336.62" y2="441.55" fill="none" stroke="#002346" stroke-linecap="round" stroke-linejoin="round"></line>
  <line x1="604.85" y1="474.37" x2="347.2" y2="488.17" fill="none" stroke="#002346" stroke-linecap="round" stroke-linejoin="round"></line>
  <polyline points="552.8 93.46 559.56 100.36 574.08 86.8" fill="none" stroke="#002346" stroke-linecap="round" stroke-linejoin="round"></polyline>
  <g>
    <path d="M539.95,225.21s-.06-.09-.06-.14v-11.49c0-.06,.02-.1,.06-.14,.04-.04,.09-.06,.14-.06h4.15c.8,0,1.51,.14,2.12,.42,.61,.28,1.08,.69,1.42,1.22,.33,.53,.5,1.14,.5,1.84v4.93c0,.7-.17,1.32-.5,1.84-.33,.53-.81,.93-1.42,1.22-.61,.28-1.32,.42-2.12,.42h-4.15c-.06,0-.11-.02-.14-.06Zm2-1.64h2.38c.6,0,1.08-.19,1.44-.57,.36-.38,.54-.89,.55-1.52v-4.3c0-.65-.18-1.16-.54-1.54-.36-.38-.85-.57-1.46-.57h-2.36c-.06,0-.08,.03-.08,.08v8.33c0,.06,.03,.08,.08,.08Z" fill="#002346"></path>
    <path d="M552.15,224.92c-.66-.35-1.16-.84-1.52-1.47-.36-.63-.54-1.37-.54-2.19v-3.88c0-.82,.18-1.54,.54-2.17,.36-.63,.87-1.12,1.52-1.46,.65-.35,1.4-.52,2.25-.52s1.62,.17,2.27,.52c.65,.35,1.16,.83,1.52,1.46,.36,.63,.54,1.35,.54,2.17v3.88c0,.83-.18,1.56-.54,2.19-.36,.63-.87,1.12-1.52,1.47-.65,.35-1.41,.52-2.27,.52s-1.6-.17-2.26-.52Zm3.98-1.84c.43-.44,.65-1.03,.65-1.75v-3.96c0-.74-.21-1.33-.65-1.77-.43-.44-1-.66-1.72-.66s-1.27,.22-1.7,.66c-.43,.44-.65,1.03-.65,1.77v3.96c0,.73,.21,1.31,.65,1.75,.43,.44,1,.66,1.7,.66s1.29-.22,1.72-.66Z" fill="#002346"></path>
    <path d="M567.92,213.43s.09-.06,.14-.06h1.56c.06,0,.1,.02,.14,.06s.06,.09,.06,.14v11.49c0,.06-.02,.1-.06,.14-.04,.04-.09,.06-.14,.06h-1.51c-.11,0-.19-.04-.24-.14l-4.9-8.02s-.05-.05-.07-.04c-.02,0-.03,.03-.03,.08l.03,7.92c0,.06-.02,.1-.06,.14-.04,.04-.09,.06-.14,.06h-1.56c-.06,0-.11-.02-.14-.06-.04-.04-.06-.09-.06-.14v-11.49c0-.06,.02-.1,.06-.14,.04-.04,.09-.06,.14-.06h1.51c.11,0,.19,.05,.24,.14l4.88,8.02s.04,.05,.07,.04c.02,0,.03-.03,.03-.08l-.02-7.92c0-.06,.02-.1,.06-.14Z" fill="#002346"></path>
    <path d="M580.16,215.01s-.09,.06-.14,.06h-5.8c-.06,0-.08,.03-.08,.08v3.18c0,.06,.03,.08,.08,.08h3.89c.06,0,.1,.02,.14,.06,.04,.04,.06,.09,.06,.14v1.29c0,.06-.02,.1-.06,.14-.04,.04-.09,.06-.14,.06h-3.89c-.06,0-.08,.03-.08,.08v3.28c0,.06,.03,.08,.08,.08h5.8c.06,0,.1,.02,.14,.06,.04,.04,.06,.09,.06,.14v1.29c0,.06-.02,.1-.06,.14-.04,.04-.09,.06-.14,.06h-7.65c-.06,0-.11-.02-.14-.06-.04-.04-.06-.09-.06-.14v-11.49c0-.06,.02-.1,.06-.14,.04-.04,.09-.06,.14-.06h7.65c.06,0,.1,.02,.14,.06s.06,.09,.06,.14v1.29c0,.06-.02,.1-.06,.14Z" fill="#002346"></path>
  </g>
  <g>
    <path d="M462.91,148.18s-.07-.1-.07-.16v-5.09c0-.05,0-.09-.02-.11l-3.91-7.58c-.03-.05-.04-.09-.04-.11,0-.1,.07-.15,.21-.15h1.88c.13,0,.21,.06,.27,.17l2.66,5.3c.04,.05,.08,.05,.11,0l2.68-5.3c.06-.11,.15-.17,.27-.17h1.9c.09,0,.15,.03,.18,.08,.03,.05,.03,.11,0,.19l-3.93,7.58c-.03,.05-.04,.09-.04,.11v5.09c0,.06-.02,.12-.07,.16-.04,.04-.1,.07-.16,.07h-1.75c-.06,0-.12-.02-.16-.07Z" fill="#002346"></path>
    <path d="M470.98,147.66c-.72-.51-1.22-1.21-1.51-2.11-.22-.68-.32-1.41-.32-2.17,0-.81,.1-1.53,.3-2.17,.29-.89,.8-1.58,1.52-2.07,.72-.49,1.59-.74,2.6-.74s1.79,.25,2.5,.74c.7,.49,1.2,1.18,1.49,2.05,.23,.61,.34,1.33,.34,2.17s-.11,1.52-.32,2.17c-.29,.9-.79,1.61-1.5,2.12-.71,.51-1.55,.77-2.53,.77s-1.86-.25-2.57-.76Zm3.78-1.54c.33-.27,.58-.64,.73-1.12,.13-.42,.19-.95,.19-1.6,0-.68-.06-1.22-.19-1.6-.14-.48-.38-.85-.72-1.11-.34-.26-.76-.39-1.25-.39-.47,0-.87,.13-1.22,.39s-.59,.63-.74,1.11c-.13,.44-.19,.98-.19,1.6s.06,1.15,.19,1.6c.14,.48,.38,.85,.73,1.12,.35,.27,.77,.4,1.26,.4,.47,0,.87-.13,1.21-.4Z" fill="#002346"></path>
    <path d="M485.8,138.63s.1-.07,.16-.07h1.73c.06,0,.12,.02,.16,.07,.04,.04,.07,.1,.07,.16v9.25c0,.06-.02,.12-.07,.16-.04,.04-.1,.07-.16,.07h-1.73c-.06,0-.12-.02-.16-.07-.04-.04-.07-.1-.07-.16v-.61s-.01-.06-.04-.08c-.03-.01-.05,0-.08,.04-.52,.67-1.3,1.01-2.34,1.01-.96,0-1.77-.28-2.42-.84-.65-.56-.98-1.35-.98-2.38v-6.4c0-.06,.02-.12,.07-.16,.04-.04,.1-.07,.16-.07h1.75c.06,0,.12,.02,.16,.07,.04,.04,.07,.1,.07,.16v5.78c0,.6,.16,1.07,.47,1.43s.74,.53,1.3,.53,1.03-.18,1.37-.53c.34-.35,.51-.83,.51-1.43v-5.78c0-.06,.02-.12,.07-.16Z" fill="#002346"></path>
    <path d="M495.86,138.69c.1,.05,.14,.15,.11,.29l-.32,1.71c-.01,.15-.1,.2-.27,.13-.19-.06-.41-.09-.67-.09-.17,0-.29,0-.38,.02-.53,.03-.98,.21-1.33,.56-.35,.35-.53,.8-.53,1.36v5.38c0,.06-.02,.12-.07,.16-.04,.04-.1,.07-.16,.07h-1.75c-.06,0-.12-.02-.16-.07-.04-.04-.07-.1-.07-.16v-9.25c0-.06,.02-.12,.07-.16,.04-.04,.1-.07,.16-.07h1.75c.06,0,.12,.02,.16,.07,.04,.04,.07,.1,.07,.16v.85c0,.05,0,.08,.03,.09,.02,0,.04,0,.07-.05,.53-.82,1.27-1.24,2.22-1.24,.41,0,.76,.08,1.06,.25Z" fill="#002346"></path>
    <path d="M503.41,147.88c-.74-.39-1.3-.93-1.7-1.64-.4-.71-.6-1.53-.6-2.45v-4.33c0-.91,.2-1.72,.61-2.42,.41-.7,.97-1.25,1.7-1.63,.73-.39,1.57-.58,2.52-.58s1.81,.19,2.54,.58c.73,.39,1.29,.93,1.7,1.63,.41,.7,.61,1.51,.61,2.42v4.33c0,.92-.2,1.74-.61,2.45-.41,.71-.97,1.26-1.7,1.64-.73,.39-1.57,.58-2.54,.58s-1.79-.19-2.53-.58Zm4.45-2.06c.48-.49,.72-1.15,.72-1.96v-4.43c0-.82-.24-1.48-.72-1.98s-1.12-.74-1.92-.74-1.42,.25-1.9,.74-.72,1.15-.72,1.98v4.43c0,.81,.24,1.46,.72,1.96,.48,.49,1.11,.74,1.9,.74s1.44-.25,1.92-.74Z" fill="#002346"></path>
    <path d="M518.6,138.69c.1,.05,.14,.15,.11,.29l-.32,1.71c-.01,.15-.1,.2-.27,.13-.19-.06-.41-.09-.67-.09-.17,0-.29,0-.38,.02-.53,.03-.98,.21-1.33,.56-.35,.35-.53,.8-.53,1.36v5.38c0,.06-.02,.12-.07,.16-.04,.04-.1,.07-.16,.07h-1.75c-.06,0-.12-.02-.16-.07-.04-.04-.07-.1-.07-.16v-9.25c0-.06,.02-.12,.07-.16,.04-.04,.1-.07,.16-.07h1.75c.06,0,.12,.02,.16,.07,.04,.04,.07,.1,.07,.16v.85c0,.05,0,.08,.03,.09,.02,0,.04,0,.07-.05,.53-.82,1.27-1.24,2.22-1.24,.41,0,.76,.08,1.06,.25Z" fill="#002346"></path>
    <path d="M526.06,135.03s.1-.07,.16-.07h1.75c.06,0,.12,.02,.16,.07,.04,.04,.07,.1,.07,.16v12.84c0,.06-.02,.12-.07,.16-.04,.04-.1,.07-.16,.07h-1.75c-.06,0-.12-.02-.16-.07-.04-.04-.07-.1-.07-.16v-.57s-.01-.06-.04-.08c-.03-.01-.05,0-.08,.04-.56,.66-1.29,.99-2.18,.99s-1.66-.23-2.28-.7c-.62-.47-1.07-1.12-1.35-1.96-.23-.71-.34-1.5-.34-2.38s.11-1.67,.32-2.32c.28-.84,.73-1.49,1.35-1.96,.62-.47,1.4-.7,2.34-.7,.87,0,1.59,.32,2.15,.95,.03,.03,.05,.04,.08,.03s.04-.03,.04-.07v-4.12c0-.06,.02-.12,.07-.16Zm-.09,8.37c0-.99-.16-1.74-.47-2.26-.34-.56-.82-.84-1.44-.84s-1.15,.27-1.52,.8c-.38,.56-.57,1.33-.57,2.32,0,.89,.15,1.62,.46,2.19,.35,.61,.89,.91,1.62,.91,.65,0,1.15-.3,1.5-.91,.29-.52,.44-1.25,.44-2.2Z" fill="#002346"></path>
    <path d="M538.86,143.38l-.02,.59c0,.15-.08,.23-.23,.23h-5.95c-.06,0-.09,.03-.09,.09,.04,.42,.09,.7,.17,.85,.3,.91,1.04,1.37,2.22,1.39,.86,0,1.54-.35,2.05-1.06,.05-.08,.11-.11,.19-.11,.05,0,.09,.02,.13,.06l1.18,.97c.11,.09,.13,.19,.06,.3-.39,.56-.92,.99-1.57,1.29-.65,.3-1.38,.46-2.18,.46-.99,0-1.83-.22-2.52-.67-.69-.44-1.19-1.06-1.51-1.86-.29-.68-.44-1.63-.44-2.85,0-.73,.08-1.33,.23-1.79,.25-.89,.73-1.59,1.43-2.1,.7-.51,1.55-.77,2.54-.77,2.5,0,3.9,1.3,4.22,3.91,.05,.32,.08,.67,.08,1.06Zm-5.46-2.73c-.31,.23-.53,.56-.66,.98-.08,.22-.13,.49-.15,.84-.03,.06,0,.09,.08,.09h3.86c.06,0,.09-.03,.09-.09-.03-.32-.06-.56-.11-.72-.11-.46-.34-.81-.67-1.06-.33-.25-.76-.38-1.26-.38-.47,0-.86,.12-1.17,.35Z" fill="#002346"></path>
    <path d="M546.46,138.69c.1,.05,.14,.15,.11,.29l-.32,1.71c-.01,.15-.1,.2-.27,.13-.19-.06-.41-.09-.67-.09-.17,0-.29,0-.38,.02-.53,.03-.98,.21-1.33,.56-.35,.35-.53,.8-.53,1.36v5.38c0,.06-.02,.12-.07,.16-.04,.04-.1,.07-.16,.07h-1.75c-.06,0-.12-.02-.16-.07-.04-.04-.07-.1-.07-.16v-9.25c0-.06,.02-.12,.07-.16,.04-.04,.1-.07,.16-.07h1.75c.06,0,.12,.02,.16,.07,.04,.04,.07,.1,.07,.16v.85c0,.05,0,.08,.03,.09,.02,0,.04,0,.07-.05,.53-.82,1.27-1.24,2.22-1.24,.41,0,.76,.08,1.06,.25Z" fill="#002346"></path>
    <path d="M552.1,136.85c-.25-.25-.38-.58-.38-.97s.13-.72,.38-.97c.25-.25,.58-.38,.97-.38s.72,.13,.97,.38c.25,.25,.38,.58,.38,.97s-.13,.72-.38,.97c-.25,.25-.58,.38-.97,.38s-.72-.13-.97-.38Zm-.1,11.35s-.07-.1-.07-.16v-9.27c0-.06,.02-.12,.07-.16,.04-.04,.1-.07,.16-.07h1.75c.06,0,.12,.02,.16,.07,.04,.04,.07,.1,.07,.16v9.27c0,.06-.02,.12-.07,.16-.04,.04-.1,.07-.16,.07h-1.75c-.06,0-.12-.02-.16-.07Z" fill="#002346"></path>
    <path d="M558.17,148.03c-.6-.23-1.07-.56-1.4-.97s-.49-.87-.49-1.38v-.17c0-.06,.02-.12,.07-.16,.04-.04,.1-.07,.16-.07h1.67c.06,0,.12,.02,.16,.07s.07,.1,.07,.16v.04c0,.32,.17,.59,.52,.83,.35,.23,.79,.35,1.32,.35s.92-.1,1.24-.31,.47-.47,.47-.79c0-.29-.13-.51-.39-.66-.26-.15-.68-.3-1.26-.47l-.72-.23c-.65-.19-1.19-.39-1.63-.61-.44-.22-.82-.51-1.12-.88-.3-.37-.46-.85-.46-1.43,0-.89,.35-1.59,1.05-2.12,.7-.53,1.61-.79,2.75-.79,.77,0,1.45,.12,2.03,.37,.58,.25,1.03,.59,1.35,1.03,.32,.44,.47,.93,.47,1.49,0,.06-.02,.12-.07,.16s-.1,.07-.16,.07h-1.62c-.06,0-.12-.02-.16-.07-.04-.04-.07-.1-.07-.16,0-.33-.16-.6-.48-.83-.32-.22-.76-.33-1.32-.33-.49,0-.9,.09-1.21,.28-.31,.18-.47,.44-.47,.77,0,.3,.15,.54,.45,.69,.3,.16,.79,.33,1.49,.52l.42,.11c.67,.2,1.23,.41,1.69,.62s.84,.5,1.16,.87c.32,.37,.47,.86,.47,1.45,0,.9-.35,1.61-1.06,2.12-.71,.51-1.65,.77-2.83,.77-.8,0-1.5-.12-2.1-.35Z" fill="#002346"></path>
    <path d="M571.98,147.86c-.72-.37-1.28-.9-1.67-1.57-.39-.67-.59-1.45-.59-2.34v-4.69c0-.89,.2-1.67,.59-2.34,.39-.67,.95-1.19,1.67-1.56,.72-.37,1.56-.55,2.51-.55s1.77,.18,2.49,.53c.72,.35,1.28,.85,1.67,1.5s.59,1.39,.59,2.24c0,.06-.02,.12-.07,.16-.04,.04-.1,.07-.16,.07l-1.75,.1c-.15,0-.23-.07-.23-.21,0-.75-.23-1.35-.69-1.81-.46-.46-1.08-.68-1.85-.68s-1.39,.23-1.86,.68-.7,1.06-.7,1.81v4.85c0,.73,.23,1.33,.7,1.79s1.09,.68,1.86,.68,1.39-.22,1.85-.67c.46-.45,.69-1.05,.69-1.8,0-.14,.08-.21,.23-.21l1.75,.08c.06,0,.12,.02,.16,.06,.04,.04,.07,.08,.07,.13,0,.86-.2,1.62-.59,2.27-.39,.65-.95,1.16-1.67,1.51-.72,.35-1.55,.53-2.49,.53s-1.79-.19-2.51-.56Z" fill="#002346"></path>
    <path d="M582.91,147.66c-.72-.51-1.22-1.21-1.51-2.11-.22-.68-.32-1.41-.32-2.17,0-.81,.1-1.53,.3-2.17,.29-.89,.8-1.58,1.52-2.07,.72-.49,1.59-.74,2.6-.74s1.79,.25,2.5,.74c.7,.49,1.2,1.18,1.49,2.05,.23,.61,.34,1.33,.34,2.17s-.11,1.52-.32,2.17c-.29,.9-.79,1.61-1.5,2.12-.71,.51-1.55,.77-2.53,.77s-1.86-.25-2.57-.76Zm3.78-1.54c.33-.27,.58-.64,.73-1.12,.13-.42,.19-.95,.19-1.6,0-.68-.06-1.22-.19-1.6-.14-.48-.38-.85-.72-1.11-.34-.26-.76-.39-1.25-.39-.47,0-.87,.13-1.22,.39s-.59,.63-.74,1.11c-.13,.44-.19,.98-.19,1.6s.06,1.15,.19,1.6c.14,.48,.38,.85,.73,1.12,.35,.27,.77,.4,1.26,.4,.47,0,.87-.13,1.21-.4Z" fill="#002346"></path>
    <path d="M599.04,139.32c.61,.61,.92,1.44,.92,2.49v6.23c0,.06-.02,.12-.07,.16-.04,.04-.1,.07-.16,.07h-1.75c-.06,0-.12-.02-.16-.07-.04-.04-.07-.1-.07-.16v-5.78c0-.58-.16-1.05-.49-1.42-.33-.36-.77-.54-1.31-.54s-.99,.18-1.32,.53c-.34,.35-.5,.82-.5,1.41v5.79c0,.06-.02,.12-.07,.16-.04,.04-.1,.07-.16,.07h-1.75c-.06,0-.12-.02-.16-.07-.04-.04-.07-.1-.07-.16v-9.25c0-.06,.02-.12,.07-.16,.04-.04,.1-.07,.16-.07h1.75c.06,0,.12,.02,.16,.07,.04,.04,.07,.1,.07,.16v.61s.01,.06,.04,.08,.04,0,.06-.04c.52-.68,1.3-1.03,2.36-1.03s1.85,.3,2.46,.91Z" fill="#002346"></path>
    <path d="M607.48,138.61s.07,.1,.07,.16v1.5c0,.06-.02,.12-.07,.16-.04,.04-.1,.07-.16,.07h-1.88c-.06,0-.09,.03-.09,.1v7.45c0,.06-.02,.12-.07,.16-.04,.04-.1,.07-.16,.07h-1.75c-.06,0-.12-.02-.16-.07-.04-.04-.07-.1-.07-.16v-7.45c0-.06-.03-.1-.09-.1h-1.18c-.06,0-.12-.02-.16-.07-.04-.04-.07-.1-.07-.16v-1.5c0-.06,.02-.12,.07-.16,.04-.04,.1-.07,.16-.07h1.18c.06,0,.09-.03,.09-.1v-.34c0-.82,.11-1.46,.32-1.91,.21-.45,.57-.77,1.06-.96,.49-.19,1.19-.28,2.09-.27h.67c.06,0,.12,.02,.16,.07,.04,.04,.07,.1,.07,.16v1.33c0,.06-.02,.12-.07,.16-.04,.04-.1,.07-.16,.07h-.49c-.54,0-.92,.11-1.13,.32s-.31,.61-.31,1.18v.19c0,.06,.03,.1,.09,.1h1.88c.06,0,.12,.02,.16,.07Zm2.21-1.76c-.25-.25-.38-.58-.38-.97s.13-.72,.38-.97c.25-.25,.58-.38,.97-.38s.71,.13,.97,.38c.25,.25,.38,.58,.38,.97s-.13,.72-.38,.97c-.25,.25-.58,.38-.97,.38s-.72-.13-.97-.38Zm-.1,11.35s-.07-.1-.07-.16v-9.27c0-.06,.02-.12,.07-.16,.04-.04,.1-.07,.16-.07h1.75c.06,0,.12,.02,.16,.07,.04,.04,.07,.1,.07,.16v9.27c0,.06-.02,.12-.07,.16-.04,.04-.1,.07-.16,.07h-1.75c-.06,0-.12-.02-.16-.07Z" fill="#002346"></path>
    <path d="M619.83,138.69c.1,.05,.14,.15,.11,.29l-.32,1.71c-.01,.15-.1,.2-.27,.13-.19-.06-.41-.09-.67-.09-.17,0-.29,0-.38,.02-.53,.03-.98,.21-1.33,.56-.35,.35-.53,.8-.53,1.36v5.38c0,.06-.02,.12-.07,.16-.04,.04-.1,.07-.16,.07h-1.75c-.06,0-.12-.02-.16-.07-.04-.04-.07-.1-.07-.16v-9.25c0-.06,.02-.12,.07-.16,.04-.04,.1-.07,.16-.07h1.75c.06,0,.12,.02,.16,.07,.04,.04,.07,.1,.07,.16v.85c0,.05,0,.08,.03,.09,.02,0,.04,0,.07-.05,.53-.82,1.27-1.24,2.22-1.24,.41,0,.76,.08,1.06,.25Z" fill="#002346"></path>
    <path d="M634.08,139.29c.55,.59,.83,1.41,.83,2.46v6.29c0,.06-.02,.12-.07,.16-.04,.04-.1,.07-.16,.07h-1.73c-.06,0-.12-.02-.16-.07s-.07-.1-.07-.16v-5.83c0-.58-.16-1.04-.47-1.39-.31-.34-.72-.51-1.24-.51s-.94,.17-1.27,.51c-.33,.34-.49,.8-.49,1.37v5.85c0,.06-.02,.12-.07,.16-.04,.04-.1,.07-.16,.07h-1.73c-.06,0-.12-.02-.16-.07-.04-.04-.07-.1-.07-.16v-5.83c0-.58-.16-1.04-.47-1.39-.32-.34-.74-.51-1.25-.51-.48,0-.88,.14-1.19,.42-.31,.28-.49,.66-.54,1.14v6.17c0,.06-.02,.12-.07,.16-.04,.04-.1,.07-.16,.07h-1.75c-.06,0-.12-.02-.16-.07-.04-.04-.07-.1-.07-.16v-9.25c0-.06,.02-.12,.07-.16,.04-.04,.1-.07,.16-.07h1.75c.06,0,.12,.02,.16,.07,.04,.04,.07,.1,.07,.16v.63s.01,.06,.04,.08,.05,0,.08-.04c.28-.35,.62-.62,1.04-.79,.41-.17,.87-.26,1.38-.26,.62,0,1.17,.13,1.63,.38s.83,.62,1.08,1.1c.04,.05,.08,.05,.13,0,.28-.51,.67-.88,1.16-1.12,.49-.24,1.04-.36,1.65-.36,.97,0,1.74,.29,2.29,.88Z" fill="#002346"></path>
    <path d="M645.33,143.38l-.02,.59c0,.15-.08,.23-.23,.23h-5.95c-.06,0-.09,.03-.09,.09,.04,.42,.09,.7,.17,.85,.3,.91,1.04,1.37,2.22,1.39,.86,0,1.54-.35,2.05-1.06,.05-.08,.11-.11,.19-.11,.05,0,.09,.02,.13,.06l1.18,.97c.11,.09,.13,.19,.06,.3-.39,.56-.92,.99-1.57,1.29-.65,.3-1.38,.46-2.18,.46-.99,0-1.83-.22-2.52-.67-.69-.44-1.19-1.06-1.51-1.86-.29-.68-.44-1.63-.44-2.85,0-.73,.08-1.33,.23-1.79,.25-.89,.73-1.59,1.43-2.1,.7-.51,1.55-.77,2.54-.77,2.5,0,3.9,1.3,4.22,3.91,.05,.32,.08,.67,.08,1.06Zm-5.46-2.73c-.31,.23-.53,.56-.66,.98-.08,.22-.13,.49-.15,.84-.03,.06,0,.09,.08,.09h3.86c.06,0,.09-.03,.09-.09-.03-.32-.06-.56-.11-.72-.11-.46-.34-.81-.67-1.06-.33-.25-.76-.38-1.26-.38-.47,0-.86,.12-1.17,.35Z" fill="#002346"></path>
    <path d="M653.44,135.03s.1-.07,.16-.07h1.75c.06,0,.12,.02,.16,.07,.04,.04,.07,.1,.07,.16v12.84c0,.06-.02,.12-.07,.16-.04,.04-.1,.07-.16,.07h-1.75c-.06,0-.12-.02-.16-.07-.04-.04-.07-.1-.07-.16v-.57s-.01-.06-.04-.08c-.03-.01-.05,0-.08,.04-.56,.66-1.29,.99-2.18,.99s-1.66-.23-2.28-.7c-.62-.47-1.07-1.12-1.35-1.96-.23-.71-.34-1.5-.34-2.38s.11-1.67,.32-2.32c.28-.84,.73-1.49,1.35-1.96,.62-.47,1.4-.7,2.34-.7,.87,0,1.59,.32,2.15,.95,.03,.03,.05,.04,.08,.03s.04-.03,.04-.07v-4.12c0-.06,.02-.12,.07-.16Zm-.09,8.37c0-.99-.16-1.74-.47-2.26-.34-.56-.82-.84-1.44-.84s-1.15,.27-1.52,.8c-.38,.56-.57,1.33-.57,2.32,0,.89,.15,1.62,.46,2.19,.35,.61,.89,.91,1.62,.91,.65,0,1.15-.3,1.5-.91,.29-.52,.44-1.25,.44-2.2Z" fill="#002346"></path>
    <path d="M658.93,147.85c-.25-.25-.37-.58-.37-.97s.12-.71,.37-.96c.25-.25,.57-.37,.96-.37s.72,.12,.97,.37c.25,.25,.38,.57,.38,.96s-.13,.72-.38,.97c-.25,.25-.58,.38-.97,.38s-.71-.13-.96-.38Zm.25-4.13s-.07-.1-.07-.16l-.21-8.36c0-.06,.02-.12,.07-.16,.04-.04,.1-.07,.16-.07h1.75c.06,0,.12,.02,.16,.07,.04,.04,.07,.1,.07,.16l-.21,8.36c0,.06-.02,.12-.07,.16-.04,.04-.1,.07-.16,.07h-1.33c-.06,0-.12-.02-.16-.07Z" fill="#002346"></path>
  </g>
  <g>
    <path d="M483.57,157.85v1.15c0,.12-.06,.18-.18,.18h-3.46s-.07,.02-.07,.07v10.84c0,.12-.06,.18-.18,.18h-1.37c-.12,0-.18-.06-.18-.18v-10.84s-.03-.07-.07-.07h-3.29c-.12,0-.18-.06-.18-.18v-1.15c0-.12,.06-.18,.18-.18h8.62c.12,0,.18,.06,.18,.18Z" fill="#002346"></path>
    <path d="M491.92,161.83c.58,.57,.86,1.34,.86,2.31v5.94c0,.12-.06,.18-.18,.18h-1.37c-.12,0-.18-.06-.18-.18v-5.6c0-.6-.18-1.09-.52-1.46s-.81-.56-1.38-.56-1.03,.19-1.39,.56-.54,.85-.54,1.44v5.62c0,.12-.06,.18-.18,.18h-1.37c-.12,0-.18-.06-.18-.18v-12.24c0-.12,.06-.18,.18-.18h1.37c.12,0,.18,.06,.18,.18v4.09s0,.04,.03,.05c.02,.01,.03,0,.04-.02,.52-.66,1.28-.99,2.29-.99s1.76,.29,2.34,.85Z" fill="#002346"></path>
    <path d="M500.52,161.35c.54,.26,.96,.62,1.26,1.08,.29,.46,.44,.99,.44,1.57v6.08c0,.12-.06,.18-.18,.18h-1.37c-.12,0-.18-.06-.18-.18v-.65c0-.06-.03-.07-.09-.04-.31,.32-.69,.57-1.14,.75-.45,.17-.95,.26-1.5,.26-.89,0-1.62-.23-2.21-.67-.58-.45-.87-1.13-.87-2.04s.33-1.67,.98-2.2c.65-.53,1.57-.8,2.75-.8h2.02s.07-.02,.07-.07v-.49c0-.53-.15-.94-.46-1.23-.31-.29-.77-.44-1.4-.44-.5,0-.91,.1-1.23,.3-.32,.2-.51,.47-.58,.8-.04,.12-.11,.17-.22,.16l-1.46-.2c-.12-.02-.18-.07-.16-.14,.1-.71,.47-1.29,1.13-1.74,.66-.45,1.49-.68,2.48-.68,.73,0,1.37,.13,1.92,.39Zm-.73,7.1c.47-.34,.7-.76,.7-1.28v-1.06s-.03-.07-.07-.07h-1.69c-.71,0-1.27,.14-1.69,.41s-.63,.66-.63,1.15c0,.44,.16,.78,.48,1.01s.73,.34,1.25,.34c.64,0,1.19-.17,1.66-.5Z" fill="#002346"></path>
    <path d="M510.98,161.83c.58,.57,.87,1.34,.87,2.31v5.94c0,.12-.06,.18-.18,.18h-1.37c-.12,0-.18-.06-.18-.18v-5.6c0-.6-.17-1.09-.52-1.46s-.81-.56-1.39-.56-1.03,.19-1.38,.56c-.36,.37-.54,.85-.54,1.44v5.62c0,.12-.06,.18-.18,.18h-1.37c-.12,0-.18-.06-.18-.18v-8.8c0-.12,.06-.18,.18-.18h1.37c.12,0,.18,.06,.18,.18v.65s0,.04,.03,.05c.02,.01,.03,0,.04-.02,.52-.66,1.28-.99,2.29-.99s1.77,.29,2.34,.85Z" fill="#002346"></path>
    <path d="M514.29,170.09v-12.24c0-.12,.06-.18,.18-.18h1.37c.12,0,.18,.06,.18,.18v6.93s.01,.04,.04,.05c.02,.01,.04,0,.05-.02l3.33-3.62c.05-.06,.12-.09,.22-.09h1.6c.07,0,.12,.02,.13,.06,.02,.04,0,.09-.04,.15l-2.32,2.68s-.03,.08-.02,.11l2.75,5.94,.02,.07c0,.1-.05,.14-.16,.14h-1.44c-.1,0-.16-.05-.2-.14l-2.14-4.9c-.02-.06-.05-.07-.09-.02l-1.69,1.87s-.04,.08-.04,.09v2.92c0,.12-.06,.18-.18,.18h-1.37c-.12,0-.18-.06-.18-.18Z" fill="#002346"></path>
    <path d="M524.71,170.05c-.55-.22-.97-.51-1.27-.89s-.45-.79-.45-1.25v-.2c0-.12,.06-.18,.18-.18h1.29c.12,0,.18,.06,.18,.18v.09c0,.34,.18,.63,.55,.88,.37,.25,.83,.38,1.39,.38s.98-.12,1.31-.35,.5-.53,.5-.89-.16-.61-.47-.78-.82-.36-1.51-.55c-.68-.19-1.26-.39-1.72-.59-.46-.2-.85-.48-1.17-.85-.32-.37-.48-.84-.48-1.41,0-.8,.32-1.44,.95-1.92,.63-.47,1.47-.71,2.51-.71,.7,0,1.31,.11,1.85,.33,.53,.22,.94,.53,1.23,.93,.29,.4,.43,.84,.43,1.33v.05c0,.12-.06,.18-.18,.18h-1.26c-.12,0-.18-.06-.18-.18v-.05c0-.35-.17-.64-.51-.87-.34-.23-.81-.35-1.39-.35-.53,0-.96,.1-1.29,.31-.33,.2-.5,.48-.5,.83s.16,.61,.48,.79c.32,.18,.83,.37,1.54,.58,.7,.19,1.27,.38,1.74,.57,.46,.19,.86,.46,1.18,.83,.32,.37,.48,.84,.48,1.43,0,.82-.32,1.46-.96,1.94-.64,.48-1.5,.72-2.56,.72-.72,0-1.35-.11-1.9-.32Z" fill="#002346"></path>
    <path d="M544.14,159.16h-6.37s-.07,.02-.07,.07v3.87s.02,.07,.07,.07h4.38c.12,0,.18,.06,.18,.18v1.13c0,.12-.06,.18-.18,.18h-4.38s-.07,.02-.07,.07v5.35c0,.12-.06,.18-.18,.18h-1.37c-.12,0-.18-.06-.18-.18v-12.24c0-.12,.06-.18,.18-.18h7.99c.12,0,.18,.06,.18,.18v1.13c0,.12-.06,.18-.18,.18Z" fill="#002346"></path>
    <path d="M546.49,169.74c-.66-.45-1.12-1.08-1.38-1.88-.22-.65-.32-1.38-.32-2.2s.1-1.57,.31-2.16c.26-.79,.72-1.41,1.38-1.86,.66-.45,1.45-.68,2.36-.68,.86,0,1.62,.23,2.26,.68,.64,.45,1.1,1.06,1.38,1.84,.22,.61,.32,1.33,.32,2.16s-.11,1.58-.32,2.21c-.26,.8-.72,1.43-1.37,1.88-.65,.45-1.41,.67-2.29,.67s-1.66-.23-2.32-.67Zm3.58-1.22c.36-.27,.62-.65,.78-1.14,.13-.46,.2-1.02,.2-1.69s-.06-1.23-.18-1.67c-.16-.49-.41-.87-.77-1.14-.36-.27-.8-.4-1.31-.4s-.92,.14-1.28,.4c-.36,.27-.62,.65-.78,1.14-.13,.42-.2,.98-.2,1.67s.07,1.26,.2,1.69c.14,.49,.4,.87,.77,1.14,.37,.27,.81,.4,1.32,.4,.48,0,.9-.13,1.26-.4Z" fill="#002346"></path>
    <path d="M560.12,161.25c.08,.04,.11,.11,.09,.22l-.29,1.35c-.01,.11-.08,.14-.22,.11-.2-.08-.44-.13-.72-.13l-.25,.02c-.56,.02-1.03,.22-1.39,.58-.37,.37-.55,.84-.55,1.43v5.26c0,.12-.06,.18-.18,.18h-1.37c-.12,0-.18-.06-.18-.18v-8.8c0-.12,.06-.18,.18-.18h1.37c.12,0,.18,.06,.18,.18v.95s0,.06,.03,.06,.03,0,.04-.03c.54-.84,1.28-1.26,2.21-1.26,.38,0,.73,.08,1.04,.23Z" fill="#002346"></path>
    <path d="M568.47,170.07v-5.06s0-.08-.02-.09l-3.74-7.04s-.02-.05-.02-.09c0-.08,.05-.13,.14-.13h1.48c.11,0,.18,.04,.22,.13l2.75,5.27s.03,.04,.05,.04c.03,0,.04-.01,.05-.04l2.75-5.27c.04-.08,.11-.13,.22-.13h1.49c.06,0,.1,.02,.13,.06,.03,.04,.03,.09,0,.15l-3.76,7.04s-.02,.04-.02,.09v5.06c0,.12-.06,.18-.18,.18h-1.37c-.12,0-.18-.06-.18-.18Z" fill="#002346"></path>
    <path d="M576.07,169.74c-.66-.45-1.12-1.08-1.38-1.88-.22-.65-.32-1.38-.32-2.2s.1-1.57,.31-2.16c.26-.79,.72-1.41,1.38-1.86,.66-.45,1.45-.68,2.36-.68,.86,0,1.62,.23,2.26,.68,.64,.45,1.1,1.06,1.38,1.84,.22,.61,.32,1.33,.32,2.16s-.11,1.58-.32,2.21c-.26,.8-.72,1.43-1.37,1.88-.65,.45-1.41,.67-2.29,.67s-1.66-.23-2.32-.67Zm3.58-1.22c.36-.27,.62-.65,.78-1.14,.13-.46,.2-1.02,.2-1.69s-.06-1.23-.18-1.67c-.16-.49-.41-.87-.77-1.14-.36-.27-.8-.4-1.31-.4s-.92,.14-1.28,.4c-.36,.27-.62,.65-.78,1.14-.13,.42-.2,.98-.2,1.67s.07,1.26,.2,1.69c.14,.49,.4,.87,.77,1.14,.37,.27,.81,.4,1.32,.4,.48,0,.9-.13,1.26-.4Z" fill="#002346"></path>
    <path d="M590.27,161.11h1.35c.12,0,.18,.06,.18,.18v8.8c0,.12-.06,.18-.18,.18h-1.35c-.12,0-.18-.06-.18-.18v-.67s0-.04-.03-.04c-.02,0-.04,0-.06,.03-.48,.66-1.22,.99-2.21,.99-.59,0-1.13-.11-1.63-.34-.5-.23-.9-.56-1.2-1.01-.3-.44-.45-.98-.45-1.62v-6.14c0-.12,.06-.18,.18-.18h1.35c.12,0,.18,.06,.18,.18v5.6c0,.62,.16,1.12,.49,1.48,.33,.36,.79,.54,1.4,.54s1.08-.18,1.44-.55c.36-.37,.54-.85,.54-1.47v-5.6c0-.12,.06-.18,.18-.18Z" fill="#002346"></path>
    <path d="M599.38,161.25c.08,.04,.11,.11,.09,.22l-.29,1.35c-.01,.11-.08,.14-.22,.11-.2-.08-.44-.13-.72-.13l-.25,.02c-.56,.02-1.03,.22-1.39,.58-.37,.37-.55,.84-.55,1.43v5.26c0,.12-.06,.18-.18,.18h-1.37c-.12,0-.18-.06-.18-.18v-8.8c0-.12,.06-.18,.18-.18h1.37c.12,0,.18,.06,.18,.18v.95s0,.06,.03,.06,.03,0,.04-.03c.54-.84,1.28-1.26,2.21-1.26,.38,0,.73,.08,1.04,.23Z" fill="#002346"></path>
    <path d="M606.6,169.89c-.67-.36-1.19-.87-1.56-1.52-.37-.65-.56-1.41-.56-2.26v-4.28c0-.85,.19-1.6,.56-2.25,.37-.65,.89-1.15,1.56-1.51s1.45-.54,2.32-.54,1.67,.18,2.34,.54,1.2,.86,1.57,1.51,.56,1.4,.56,2.25v4.28c0,.85-.19,1.61-.56,2.26-.37,.65-.89,1.16-1.57,1.52s-1.45,.54-2.34,.54-1.65-.18-2.32-.54Zm4.3-1.71c.5-.5,.76-1.17,.76-2v-4.37c0-.84-.25-1.51-.76-2.02s-1.16-.77-1.98-.77-1.47,.25-1.97,.77-.75,1.19-.75,2.02v4.37c0,.83,.25,1.49,.75,2s1.15,.76,1.97,.76,1.48-.25,1.98-.76Z" fill="#002346"></path>
    <path d="M620.85,161.25c.08,.04,.11,.11,.09,.22l-.29,1.35c-.01,.11-.08,.14-.21,.11-.21-.08-.45-.13-.72-.13l-.25,.02c-.56,.02-1.03,.22-1.39,.58-.37,.37-.55,.84-.55,1.43v5.26c0,.12-.06,.18-.18,.18h-1.37c-.12,0-.18-.06-.18-.18v-8.8c0-.12,.06-.18,.18-.18h1.37c.12,0,.18,.06,.18,.18v.95s0,.06,.03,.06c.02,0,.03,0,.04-.03,.54-.84,1.28-1.26,2.21-1.26,.38,0,.73,.08,1.04,.23Z" fill="#002346"></path>
    <path d="M628.2,157.67h1.37c.12,0,.18,.06,.18,.18v12.24c0,.12-.06,.18-.18,.18h-1.37c-.12,0-.18-.06-.18-.18v-.59s0-.04-.03-.05c-.02-.01-.04,0-.06,.02-.26,.3-.58,.53-.94,.7-.36,.17-.75,.25-1.17,.25-.87,0-1.58-.21-2.15-.64-.57-.43-.99-1.03-1.25-1.81-.23-.64-.34-1.4-.34-2.3,0-.84,.1-1.57,.29-2.18,.25-.79,.67-1.41,1.24-1.85,.58-.44,1.31-.67,2.21-.67,.41,0,.79,.08,1.16,.24,.37,.16,.68,.39,.95,.69,.02,.02,.04,.03,.06,.02,.02-.01,.03-.03,.03-.05v-4.01c0-.12,.06-.18,.18-.18Zm-.21,8.01c0-1.01-.15-1.78-.45-2.3-.35-.61-.86-.92-1.53-.92-.72,0-1.25,.29-1.6,.86-.38,.6-.58,1.39-.58,2.38,0,.92,.15,1.67,.45,2.23,.35,.66,.92,.99,1.71,.99,.7,0,1.22-.32,1.58-.97,.28-.5,.41-1.26,.41-2.27Z" fill="#002346"></path>
    <path d="M639.75,166.2c0,.12-.06,.18-.18,.18h-5.74s-.07,.02-.07,.07c0,.41,.04,.72,.11,.94,.13,.48,.4,.85,.8,1.12,.4,.27,.91,.4,1.52,.4,.89,0,1.57-.37,2.05-1.1,.06-.12,.14-.14,.23-.05l1.03,.68c.08,.07,.1,.15,.05,.23-.34,.54-.81,.97-1.43,1.28-.62,.31-1.32,.47-2.1,.47-.88,0-1.61-.19-2.21-.58-.6-.38-1.05-.93-1.35-1.64-.29-.71-.43-1.57-.43-2.57,0-.88,.07-1.54,.2-2,.21-.83,.65-1.48,1.29-1.96s1.43-.72,2.36-.72c1.21,0,2.12,.3,2.72,.91s.97,1.5,1.1,2.67c.05,.49,.07,1.04,.05,1.66Zm-5.15-3.36c-.34,.26-.56,.6-.68,1.03-.08,.26-.14,.6-.16,1.01,0,.05,.02,.07,.07,.07h4.12s.07-.02,.07-.07c-.02-.4-.06-.69-.11-.88-.12-.47-.36-.84-.71-1.12-.35-.28-.79-.42-1.32-.42s-.94,.13-1.28,.39Z" fill="#002346"></path>
    <path d="M646.99,161.25c.08,.04,.11,.11,.09,.22l-.29,1.35c-.01,.11-.08,.14-.21,.11-.21-.08-.45-.13-.72-.13l-.25,.02c-.56,.02-1.03,.22-1.39,.58-.37,.37-.55,.84-.55,1.43v5.26c0,.12-.06,.18-.18,.18h-1.37c-.12,0-.18-.06-.18-.18v-8.8c0-.12,.06-.18,.18-.18h1.37c.12,0,.18,.06,.18,.18v.95s0,.06,.03,.06c.02,0,.03,0,.04-.03,.54-.84,1.28-1.26,2.21-1.26,.38,0,.73,.08,1.04,.23Z" fill="#002346"></path>
  </g>
  <polyline points="367.11 82.37 374.94 80.86 385.95 110.44 416.2 102.8" fill="none" stroke="#002346" stroke-linecap="round" stroke-linejoin="round"></polyline>
  <polyline points="376.75 86 414.12 76.58 414.12 96.09 383.59 104.09" fill="none" stroke="#002346" stroke-linecap="round" stroke-linejoin="round"></polyline>
  <circle cx="411.44" cy="74.17" r="9.14" fill="#483181" stroke="#002346" stroke-miterlimit="10"></circle>
  <polyline points="406.55 74.23 409.64 77.73 416.38 71.44" fill="none" stroke="#002346" stroke-linecap="round" stroke-linejoin="round"></polyline>
  <circle cx="396.2" cy="116.81" r="3.65" fill="none" stroke="#002346" stroke-linecap="round" stroke-linejoin="round"></circle>
  <circle cx="410.39" cy="113.16" r="3.65" fill="none" stroke="#002346" stroke-linecap="round" stroke-linejoin="round"></circle>
  <path d="M268.96,344.77l35,12.24c2.46,.87,5.16-.43,6.03-2.9,.02-.06,.04-.12,.06-.18h0c.75-2.44-.58-5.04-3-5.86l-35-12.27c-2.33-.82-4.9,.29-5.91,2.55h0c-1.06,2.39,.01,5.19,2.4,6.26,.14,.06,.28,.11,.42,.16Z" fill="#fff" stroke="#002346" stroke-miterlimit="10"></path>
</svg>
