<?xml version="1.0" encoding="UTF-8"?>
<svg xmlns="http://www.w3.org/2000/svg" id="a" width="865.76" height="682.89" viewBox="0 0 865.76 682.89">
  <path d="M472.6,260.18s31.3,13.74,55,54.12l-69.39,3.14-6.82-51,21.21-6.26Z" fill="#B499FA" stroke="#002346" stroke-miterlimit="10"></path>
  <g>
    <rect x="362.16" y="464.42" width="76" height="34" fill="#B499FA" stroke="#002346" stroke-miterlimit="10"></rect>
    <path id="b" d="M112.55,359.18s25.94-21.35,34.18-11.32c0,0,6.16,3.84-7.35,11.32,0,0-70,21.76-8.26,117.32l41.5-22.52s71.75-34,54.78-62.6c0,0-16.41-53,11.59-56.15,0,0,17,0,12.09,23.95,0,0-10.44,37.14-5.5,52,0,0,18.8-10.71,27.8-17.16,0,0,79.29-64.44,84-65.1s6.59-8.19,6.59-8.19l-11.26-30.92-38.76-11.53s-78.27-9.37-116.88,7.67c0,0,13.75,4.75,6.93,9.32-1.65,1.07-3.58,1.61-5.54,1.55-11.29-.19-64.02,2.37-85.91,62.36Z" fill="#7cd194" stroke="#002346" stroke-miterlimit="10"></path>
    <path d="M131.14,468.78s27.78-202.75,219.9-164.56" fill="none" stroke="#002346" stroke-linecap="round" stroke-linejoin="round"></path>
    <path d="M135.49,335.23s30.89-33,96.83-28" fill="none" stroke="#002346" stroke-linecap="round" stroke-linejoin="round"></path>
    <path d="M180.78,325.74s16.71-17.32,47.07-16.48" fill="none" stroke="#002346" stroke-linecap="round" stroke-linejoin="round"></path>
    <ellipse cx="199.73" cy="368.24" rx="11.81" ry="25.74" fill="#fff" stroke="#002346" stroke-miterlimit="10"></ellipse>
    <circle cx="101.22" cy="347.86" r="11.33" fill="#B499FA" stroke="#002346" stroke-miterlimit="10"></circle>
    <path d="M112.55,421.29c3.43,0,1-34.64,45.87-59.18" fill="none" stroke="#002346" stroke-linecap="round" stroke-linejoin="round"></path>
    <path d="M158.42,292.26v129H73.6l17.42-28.04c4.8-7.74,2.83-17.86-4.51-23.24h0c-7.75-5.69-18.65-4.01-24.34,3.74-.23,.32-.45,.64-.66,.97l-35.49,55.63c-5.24,8.2-2.83,19.1,5.37,24.33,2.83,1.81,6.12,2.77,9.48,2.77h119v56c0,9.55,7.75,17.3,17.3,17.3h0c9.55,0,17.29-7.73,17.3-17.28v-56.02h26.57c9.89,.04,17.94-7.95,17.98-17.84,0-.03,0-.05,0-.08h0c0-9.89-8.02-17.91-17.91-17.92h-26.19l.41-145.39c0-17.09-13.84-30.94-30.93-30.95h-.02c-10.72,0-23.54,4.95-29.18,14.06l-25.05,42.59c-4.83,7.62-2.57,17.72,5.05,22.55,.11,.07,.23,.14,.34,.21h0c7.09,4.25,16.24,2.53,21.31-4l21.57-28.39Z" fill="#B499FA" stroke="#002346" stroke-miterlimit="10"></path>
    <path d="M143.57,243.11s-28.31-56.15,57.08-79.65c0,0,10.08,39.13,48,33.23,0,0,12-8.15-15.83-26.45,0,0-15.35-7.53-21.59-9.31,0,0,41.27-14.61,60.21,9.31,3.79,6.07,6.18,12.9,7,20,0,0,2.49,16.15,11.81,17.34,0,0,7.63,.88,6.76-12.9-.5-7.86-3.43-15.37-8.16-21.67-3.49-4.65-7.84-10.11-10.43-12.09,0,0,40.24,.37,43.15,24,0,0-4.46,27.41,4.34,41.76,4.58,7.48,15.91,4.67,16.53-4.08,.41-5.67-.95-14.19-5.97-26.98,0,0-2.88-10.52-8.16-15.07,0,0,47.35,34.52,54.62,107.81l2,25.32-20.94,7.09s-47.83-8.16-68.39-11.44c0,0-11.89-1.89-16.21-12.44,0,0,25,0,33.59-12.56,1.74-2.41,1.74-5.67,0-8.08-2.25-3-6.91-5.77-16.28-.95,0,0-62.36,42.23-82.51,8.16,0,0,70-13.91,62.84-34.54,0,0-3.36-9-28.78,4.14,0,0-77.12,47.91-96.06-3.16,0,0,29-3.08,33.6-16.69,1.08-3.05-.51-6.4-3.56-7.48-.44-.16-.91-.26-1.38-.31-3.19-.33-8.16,.43-15.89,3.88-.1-.06-13.88,7.11-21.39,13.82Z" fill="#7cd194" stroke="#002346" stroke-miterlimit="10"></path>
    <ellipse cx="197.04" cy="189.39" rx="7.27" ry="15.73" transform="translate(-72.42 235.08) rotate(-53.49)" fill="#fff" stroke="#002346" stroke-miterlimit="10"></ellipse>
    <ellipse cx="177.27" cy="194.19" rx="5.22" ry="9.63" transform="translate(-77.14 260.61) rotate(-62.24)" fill="#fff" stroke="#002346" stroke-miterlimit="10"></ellipse>
    <ellipse cx="227.38" cy="238.05" rx="26.32" ry="9.88" transform="translate(-55.9 70.36) rotate(-15.69)" fill="#fff" stroke="#002346" stroke-miterlimit="10"></ellipse>
    <path d="M363.93,253.04s-7.65,20,6.09,29.86c1.92,1.35,4.13,2.21,6.45,2.53,6.7,1,22.72,1.69,35.82-9.93l-.38-37.6s-8.37,8.75-21.57-7.72c0,0-4.05-7.23-4.61-10.34-.03,0-21.8,22.99-21.8,33.2Z" fill="#483181" stroke="#002346" stroke-miterlimit="10"></path>
    <path d="M282.47,335.23s-7.47-17.85,13.07-26l-13.07,26Z" fill="#fff" stroke="#002346" stroke-miterlimit="10"></path>
    <path d="M785.53,428.88s8.55-8.75,13.89,4.06c0,0,3.05,7.21,1.08,17.48-.88,4.58,1.17,9.24,5.13,11.69,1.48,.91,3.3,1.88,5.55,2.88,0,0,16.38,5.7,19.59,9.26,0,0,16.62-25.39,10.32-57.65-1.18-6.19-4.24-11.87-8.78-16.25-5.63-5.44-12.41-9.54-19.84-12-1.16-.34-1.91-1.45-1.81-2.65,.22-1.61,2.09-3.33,9.78-2.29,0,0,4.47,1.06,10.23,2.92,0,0-9.26-30.69-52.51-32.75h-8.99c-1.62,0-3.18-.85-3.91-2.3s-.55-3.22,.39-4.46c.27-.34,1.34-.72,1-1.06-3.71-3.3-23.88-2.89-23.88-2.89v47.92s6.14-2.5,9.4,3.15c.46,.82,.8,1.71,1,2.63,.64,2.71,1.91,9.85,2.38,25.23l16,.31s8.86-.21,13.98,6.77Z" fill="#7cd194" stroke="#002346" stroke-miterlimit="10"></path>
    <ellipse cx="774.47" cy="400.86" rx="7.49" ry="16.41" transform="translate(-47.19 108.67) rotate(-7.79)" fill="#fff" stroke="#002346" stroke-miterlimit="10"></ellipse>
    <ellipse cx="796.05" cy="407.53" rx="4.67" ry="11.05" transform="translate(-66.14 170.05) rotate(-11.71)" fill="#fff" stroke="#002346" stroke-miterlimit="10"></ellipse>
    <ellipse cx="744.35" cy="351.2" rx="11.05" ry="4.06" transform="translate(-21.06 48.63) rotate(-3.69)" fill="#fff" stroke="#002346" stroke-miterlimit="10"></ellipse>
    <path d="M385.94,527.56s8.13,3.58,29.33,2.76v-35.18l-15.25-.77s-4.46,3.63-7.16,4.5c.03,0,.58,18.54-6.92,28.69Z" fill="#B499FA" stroke="#002346" stroke-miterlimit="10"></path>
    <path d="M519.37,195.79l9.89,.59,1,37.47-9.67-.75s9.43-27.81-1.22-37.31Z" fill="#B499FA" stroke="#002346" stroke-miterlimit="10"></path>
    <path d="M516.88,192.58s5.49-4.12,7.41-6.87c0,0,1.92-3.76,9.06-3.66l9.89-4.85s12.63-5.22,18.67,7.69l-17.89-.52c-6.88,2.26-12.92,6.55-17.3,12.32h-5.21s-.79-1.92-4.63-4.11Z" fill="#f1b2c0" stroke="#002346" stroke-miterlimit="10"></path>
    <path d="M520.62,195.43l6.63-6s5-5.23,8.57-4.49c0,0,18.38-6.82,21.15-.1l-29.05,11.9h-6.37l-.93-1.31Z" fill="#f1b2c0" stroke="#002346" stroke-miterlimit="10"></path>
    <ellipse cx="578.16" cy="286.66" rx="33.36" ry="10.74" transform="translate(-56.25 168.47) rotate(-15.82)" fill="#483181" stroke="#002346" stroke-miterlimit="10"></ellipse>
    <path d="M412.26,301.12s-18.17-2.09-13.33-12c0,0,2.48-4.48,13.22-5.75l.11,17.75Z" fill="#483181" stroke="#002346" stroke-miterlimit="10"></path>
    <path d="M467.83,285.92s4.17,0,6.8,1.76l-4.31,12-2.49-13.76Z" fill="#483181" stroke="#002346" stroke-miterlimit="10"></path>
    <rect x="400.66" y="144.92" width="96" height="135" rx="48" ry="48" fill="#f1b2c0" stroke="#002346" stroke-miterlimit="10"></rect>
    <path d="M400.48,239.04s-3.6,9.53-17.6,17.77c0,0,14-4.67,21.42-14.28-1.42,7.71-5.15,14.79-10.71,20.32,0,0,10.16,4.67,18.67,2.75l-.38-27.72s-4.39,4.35-11.4,1.16Z" fill="#002346" stroke="#002346" stroke-miterlimit="10"></path>
    <path d="M464.29,122.96s3.6,.24,4.82,2.38c0,0,7.35-8.11,12.25-.72,1.13,1.82,1.95,3.82,2.43,5.91,0,0,14.06-.56,0,11.95,0,0-3.94-3.32-13-2.59,0,0-11,2.49-20.72,1.61,.01,0-3.92-19.99,14.22-18.54Z" fill="#002346" stroke="#002346" stroke-miterlimit="10"></path>
    <path d="M398.08,134.69s0-3.17,2.95-5.82c2.24-2.01,5.32-2.74,8.31-2.36,1.47,.19,3.11,.62,4.58,1.52l-5.66,6.66h-10.19Z" fill="#002346" stroke="#002346" stroke-miterlimit="10"></path>
    <path d="M412.26,301.12l-.11-38.7s16,26,55,14l3.97,27.62s-.8,17.08-1.46,24.85c0,0-11.78-26.27-23.67-26.31l-33.73-1.46Z" fill="#f1b2c0" stroke="#002346" stroke-miterlimit="10"></path>
    <path d="M641.16,363.42l-108.07,151.17-114.5-19.28-55.18-2.88c-.01-.13-.01-.26-.02-.39,0,0-2.78-16.67,10-27.8,.23-.2,.08-.57-.23-.55l-10.61,.94-.7-31.77c-.02-.55-.72-.76-1.02-.31-9.65,14.39-32.02,35.06-32.02,35.06l33.74-2.98,.61,27.79h.25c1.36,31.38,18.52,37.92,18.52,37.92-10.71,7.83-38.31,7.83-38.31,7.83l-87.32-3.71c-23.06-4.53-25.12-19.77-25.12-19.77-8.24-21,19.77-57.25,19.77-57.25l54.69-85.94c3.12-4.85,5.87-9.92,8.23-15.18,16.69-37.87,50.07-35.6,50.07-35.6l31.79-16.68c-1.66-7.75,2.7-14.18,3.17-14.84-.55,.9-6.35,11.53,26.16,12.48l20.94,.9s8.41-1.38,17.27,13.5l6.4,12.81,1.46-24.85-.8-4.39,4.31-12s10.4-2.29,13.14,21.05c0,0,51.9-1.1,70.57,25.26l-12.03-38.26s.04-.08,.07-.05c.9,.96,7.02,6.69,22.26,3.72,4.18-.81,9.05-2.28,14.69-4.68,2.42,0,9.59-2.99,16.56-7.7,3.7-2.5,7.35-5.48,10.21-8.77l31.05,85.2Z" fill="#483181" stroke="#002346" stroke-miterlimit="10"></path>
    <path d="M373.39,464.24c-12.78,11.13-10,27.8-10,27.8,.01,.13,.01,.26,.02,.39h-.25s-.61-27.8-.61-27.8l10.61-.94c.31-.02,.46,.35,.23,.55Z" fill="#483181" stroke="#002346" stroke-miterlimit="10"></path>
    <path d="M381.92,530.32s10.24-1.17,11-31.45c0,0-20.73,8.21-27.33,8.48-.03,0,3.53,16.11,16.33,22.97Z" fill="#483181" stroke="#002346" stroke-miterlimit="10"></path>
    <path d="M374.09,464.65v2.24l-7.73,6.5s3.92-6.18,6.93-9.09c.3-.29,.8-.07,.8,.35Z" fill="#483181" stroke="#002346" stroke-miterlimit="10"></path>
    <path d="M599.9,286.99c-6.97,4.71-14.14,7.7-16.56,7.7-5.64,2.4-10.51,3.87-14.69,4.68-2.62-16.78-11.11-32.41-15.12-37.75-1.29-1.71-3.26-2.72-5.39-2.94-15.54-1.63-31.25-22.17-31.25-22.17,3.57-1.65,5.52-6.59,5.52-6.59l37.62,11.26,23-8.79c2.23,1.65,5.8,19.26,5.8,19.26,1.54,10.69,6.02,24.71,11.07,35.34Z" fill="#f1b2c0" stroke="#002346" stroke-miterlimit="10"></path>
    <path d="M395.38,307.26s-3.06,22.99,13.6,39.83c0,0,11.02-22.35,36.35-36.26" fill="none" stroke="#002346" stroke-linecap="round" stroke-linejoin="round"></path>
    <circle cx="463.24" cy="335.23" r="3.98" fill="#fff" stroke="#002346" stroke-miterlimit="10"></circle>
    <path d="M565.39,323.3l-74.31,38.71v209.77l75.02-38.38v-209.67c0-.36-.38-.6-.71-.43Z" fill="#e6e7e8" stroke="#002346" stroke-miterlimit="10"></path>
    <path d="M641.5,571.79l-75.41-38.38v-210.14c0-.15,.16-.24,.29-.17l75.12,40.29v208.4Z" fill="#fff" stroke="#002346" stroke-miterlimit="10"></path>
    <polygon points="641.5 363.39 706.25 331.25 707.25 514.59 641.5 571.79 641.5 363.39" fill="#e6e7e8" stroke="#002346" stroke-miterlimit="10"></polygon>
    <path d="M706.02,292.26v129h-84.82l17.44-28.07c4.8-7.74,2.83-17.86-4.51-23.24h0c-7.75-5.69-18.65-4.01-24.34,3.74-.23,.32-.45,.64-.66,.97l-35.51,55.63c-5.24,8.2-2.83,19.1,5.37,24.33,2.83,1.81,6.12,2.77,9.48,2.77h119v56c0,9.55,7.75,17.3,17.3,17.3h0c9.55,0,17.3-7.75,17.3-17.3v-56l29.42,.56c9.89,.03,17.93-7.97,17.96-17.86,0-.02,0-.03,0-.05h0c0-9.9-8.02-17.92-17.92-17.92l-29-.57,.41-145.39c-.01-17.07-13.85-30.91-30.92-30.92h0c-10.72,0-23.54,4.95-29.18,14.06l-25,42.59c-4.83,7.62-2.57,17.72,5.05,22.55,.11,.07,.23,.14,.34,.21h0c7.09,4.25,16.24,2.53,21.31-4l21.48-28.39Z" fill="#B499FA" stroke="#002346" stroke-miterlimit="10"></path>
    <circle cx="648.82" cy="347.86" r="11.33" fill="#B499FA" stroke="#002346" stroke-miterlimit="10"></circle>
    <path d="M558.67,243.36s-30.13,4.63-34.24-17.18c3.44-7.84,3.38-16.78-.18-24.57-.44-2.03,.61-4.09,2.51-4.92,0,0,6.59-10.92,17.3-12.32l18.53,.52-3.92,58.47Z" fill="#B499FA" stroke="#002346" stroke-miterlimit="10"></path>
    <path d="M464.27,195.55s-27.44,2.06-26.34,18.57c0,0-2.5,14.74,28,19.73l-1.66-38.3Z" fill="#B499FA" stroke="#002346" stroke-miterlimit="10"></path>
    <path d="M394.72,192.94s-30.17-43.16,3.36-58.25c4.85-2.42,9.85-4.55,14.96-6.36,2.69-.95,5.28-2.13,7.77-3.52,4.73-2.63,11.95-6.81,14.14-8.98,0,0,19.09-14.42,29.34,7.13,0,0-16.88-2-14.21,18.54,0,0,6.18,1,17.51-1,0,0,22.86-6.59,23.48,18.95,0,0-11.95-13.18-32.13-5.56,0,0-15.65,3.84-20.32,12.08,0,0-9.61,.82-14.28,13.46,0,0-23.89,30.48-32.4,34,0,0-25,23.89-28,39.55-.01,.06,5.56-29.47,30.78-60.04Z" fill="#483181" stroke="#002346" stroke-miterlimit="10"></path>
    <path d="M449.89,157.1c-4.77,1.37-9.85-.73-12.26-5.06-1.49-2.27-1.9-5.08-1.14-7.68,.85-2.49,2.7-4.51,5.11-5.58,0,0-5.66,11.37,3.42,14.39,.88,.27,1.78,.44,2.7,.49,2.8,.21,9.85,.67,11.22,.19-3.13,.73-6.17,1.82-9.05,3.25Z" fill="#002346" stroke="#002346" stroke-miterlimit="10"></path>
    <circle cx="449.76" cy="146.76" r="2.24" fill="#fff" stroke="#002346" stroke-miterlimit="10"></circle>
    <circle cx="466.51" cy="144.52" r="2.24" fill="#fff" stroke="#002346" stroke-miterlimit="10"></circle>
    <circle cx="484.08" cy="149" r="2.24" fill="#fff" stroke="#002346" stroke-miterlimit="10"></circle>
    <ellipse cx="400.48" cy="220.44" rx="13.76" ry="21.05" transform="translate(-56.37 204.09) rotate(-26.78)" fill="#f1b2c0" stroke="#002346" stroke-miterlimit="10"></ellipse>
    <polygon points="415.27 322.94 415.27 530.32 491.07 571.79 491.07 362.02 415.27 322.94" fill="#fff" stroke="#002346" stroke-miterlimit="10"></polygon>
    <path d="M366.36,473.39c6.86-4.66,12.47-10.95,16.31-18.3l7.81-14.02c1.76-3.16,3.45-6.36,4.85-9.69,1.2-2.85,4.45-7.62,12.98-8.85,2.92-.42,5.79-1.08,8.63-1.89,10.35-2.99,34.01-8.4,48.07-.28,1.78,1.05,2.37,3.34,1.33,5.12-.43,.73-1.1,1.3-1.9,1.6-2.86,.87-5.86,1.21-8.84,1,0,0-25.9-2.92-29.55,4.38,0,0,53.63,.73,50.35,6.56,0,0,5.11,9.13-53.21,5.79-.9-.04-1.67,.66-1.71,1.57,0,.06,0,.12,0,.17h0c.06,.88,.81,1.56,1.69,1.53,8.81-.33,51.27-1.51,49.95,7,0,0,4.9,5.19-47.92,3.07-.09,.02-.15,.11-.12,.21,.02,.06,.06,.11,.12,.12l28.62,3.89s10.58-.29,9.85,3.14c0,0,2.19,6-18.24,4.89l-23.8,1.1s-11.16,27.54-56.07,35.85c0,0-7.41-18.93,.8-33.96Z" fill="#f1b2c0" stroke="#002346" stroke-miterlimit="10"></path>
    <path d="M498.49,184.89s-25.22-4.53-34.22,10.66c0,0-6.9,7.64-3.52,26.31,1.01,5.94,3.98,11.37,8.42,15.43,5,4.5,13,8.25,24.54,5.24l4.78-57.64Z" fill="#B499FA" stroke="#002346" stroke-miterlimit="10"></path>
    <path d="M522.59,214.12c0,13.27-9.53,24-21.29,24-.79,0-1.58-.05-2.37-.15-10.64-1.33-18.9-11.51-18.9-23.87s8.26-22.53,18.9-23.86c.79-.11,1.58-.16,2.37-.15,11.72,.02,21.29,10.77,21.29,24.03Z" fill="#e6e7e8" stroke="#002346" stroke-miterlimit="10"></path>
    <path d="M498.93,190.39c10.64,1.33,18.9,11.51,18.9,23.86s-7.92,22.08-18.22,23.75c.56,.05,1.12,.08,1.69,.08,11.76,0,21.29-10.75,21.29-24s-9.53-24-21.29-24c-.79,0-1.58,.05-2.37,.15" fill="#002346" stroke="#002346" stroke-miterlimit="10"></path>
    <path d="M500.48,184.89c-14.79,0-26.78,13.09-26.78,29.23s12,29.24,26.78,29.24,26.77-13.09,26.77-29.24-11.98-29.23-26.77-29.23Zm.82,53.25c-.79,0-1.58-.05-2.37-.16-10.64-1.32-18.9-11.5-18.9-23.86s8.26-22.54,18.9-23.86c.79-.11,1.58-.16,2.37-.16,11.76,0,21.29,10.76,21.29,24s-9.57,24.04-21.29,24.04Z" fill="#fff" stroke="#002346" stroke-miterlimit="10"></path>
    <path d="M433.68,176.65s-15.1,44.76-67.83,48.46c0,0,16.92-3.87,24.45-10.1,1.17-1,2.35-1.9,3.59-2.78,3.72-2.65,13.07-10.6,30.45-32.83,0,0,3.57-12.09,14.28-13.46,0,0,3.3-8,20.32-12.08,0,0,18.76-8.51,32.13,5.56,4.72,5.71,11.56,9.25,18.95,9.82,0,0-9.5,22.34-30,9.9-1.29-.75-2.85-.86-4.23-.31-3.42,1.31-10.79,2.38-20.5-6.18-.61-.56-1.51-.69-2.25-.32-.62,.34-1,1,.13,2.4,0,0,12.11,7.26-4,5.49-.04,0-9.15-.27-15.49-3.57Z" fill="#002346" stroke="#002346" stroke-miterlimit="10"></path>
    <path d="M584.71,214.12c0,13.27-9.54,24-21.29,24-.8,.02-1.6,0-2.4-.08-10.63-1.33-18.9-11.51-18.9-23.87s8.27-22.53,18.9-23.86c.79-.11,1.58-.16,2.38-.15,11.77-.05,21.31,10.7,21.31,23.96Z" fill="#e6e7e8" stroke="#002346" stroke-miterlimit="10"></path>
    <path d="M561.02,190.39c10.64,1.33,18.91,11.51,18.91,23.86s-7.92,22.08-18.23,23.75c.56,.05,1.13,.08,1.7,.08,11.75,0,21.29-10.75,21.29-24s-9.54-24-21.29-24c-.8,0-1.59,.05-2.38,.15" fill="#002346" stroke="#002346" stroke-miterlimit="10"></path>
    <path d="M562.59,184.89c-14.78,0-26.77,13.09-26.77,29.23s12,29.24,26.77,29.24,26.78-13.09,26.78-29.24-11.99-29.23-26.78-29.23Zm.83,53.25c-.8,0-1.59-.05-2.38-.16-10.63-1.32-18.9-11.5-18.9-23.86s8.27-22.54,18.9-23.86c.79-.11,1.58-.16,2.38-.16,11.75,0,21.29,10.76,21.29,24s-9.54,24.04-21.29,24.04Z" fill="#fff" stroke="#002346" stroke-miterlimit="10"></path>
    <path d="M295.54,309.26l38.61,6.16s-43,53-22.41,102.06c0,0,4.26,23.31,30.87,48.89l-43.18,3.6s-24.22-15.37-27.71-81.09c0,0-.57-39.46,23.82-79.62Z" fill="#B499FA" stroke="#002346" stroke-miterlimit="10"></path>
    <path d="M400.19,201.61s2.64-12.62,40.68-46" fill="none" stroke="#002346" stroke-linecap="round" stroke-linejoin="round"></path>
    <path d="M462.02,118.95s-20.63,1.71-14.5,23.34" fill="none" stroke="#002346" stroke-linecap="round" stroke-linejoin="round"></path>
    <path d="M400.48,133.5s-10.36,24.85,8.67,52.92" fill="none" stroke="#002346" stroke-linecap="round" stroke-linejoin="round"></path>
    <path d="M177.49,206.85s160.66-5.43,197.66,107.57" fill="none" stroke="#002346" stroke-linecap="round" stroke-linejoin="round"></path>
    <path d="M214.94,221.74s32.29-6.41,53.75-1.36" fill="none" stroke="#002346" stroke-linecap="round" stroke-linejoin="round"></path>
    <path d="M262.5,204.4s4.93,13.9,20.54,20.71" fill="none" stroke="#002346" stroke-linecap="round" stroke-linejoin="round"></path>
    <path d="M248.37,245.24s27.13-19.09,72.71-.7" fill="none" stroke="#002346" stroke-linecap="round" stroke-linejoin="round"></path>
    <path d="M328.8,467.61c-.13,.28,36.83-3.21,44.07-3.89,.35-.03,.54,.4,.27,.63-4.01,3.4-18.65,18.61-5.07,50.25" fill="#483181" stroke="#002346" stroke-miterlimit="10"></path>
    <line x1="487.77" y1="308.7" x2="486.32" y2="327.17" fill="none" stroke="#002346" stroke-linecap="round" stroke-linejoin="round"></line>
    <path d="M556.97,184.84s-.94-12.51,4.16-19.88c5.01-7.23,15.84-5.7,18.99,2.51,1.72,4.49,1.74,11.39-3.39,21.84" fill="none" stroke="#002346" stroke-linecap="round" stroke-linejoin="round"></path>
    <path d="M262.5,195.87s24.7,26.93,97.17,5.74c0,0,94.17-31.11,99.33,1.85,0,0,11.51,5.09-56.17,114.03,0,0-76.44,117.81-158.06,142.38,0,0-51.91,17.04-60.76-25.2,0,0-3.78-45.95,84.68-23.59,0,0,82.92,31.88,114.19,40.62" fill="none" stroke="#002346" stroke-linecap="round" stroke-linejoin="round"></path>
    <path d="M458.92,204.4s-49.99-9.63-51.4-33.2c-.76-12.63,12.16-22.01,23.96-17.42,3.47,1.35,7.3,3.79,11.42,7.84,10.34,10.18,15.96,24.21,16.04,38.72,0,1.28,0,2.63-.02,4.06Z" fill="none" stroke="#002346" stroke-linecap="round" stroke-linejoin="round"></path>
    <path d="M566.53,243.3s-13.46,24.9-20.17,90.26" fill="none" stroke="#002346" stroke-linecap="round" stroke-linejoin="round"></path>
    <path d="M489.19,272.89s19.36-14.04,38.03-11.26c5.77,.86,11.61,1.2,17.41,.56,11.67-1.29,27.02-6.01,30.03-21.55" fill="none" stroke="#002346" stroke-linecap="round" stroke-linejoin="round"></path>
    <path d="M744.13,363.83s65.72,9.16,84.12,79.13" fill="none" stroke="#002346" stroke-linecap="round" stroke-linejoin="round"></path>
    <path d="M814.5,372.74s-21.19-16.14-62.77-7.23" fill="none" stroke="#002346" stroke-linecap="round" stroke-linejoin="round"></path>
    <path d="M802.48,395.55s23.14,2.32,29.16,22.84" fill="none" stroke="#002346" stroke-linecap="round" stroke-linejoin="round"></path>
  </g>
</svg>
