<?xml version="1.0" encoding="UTF-8"?>
<svg xmlns="http://www.w3.org/2000/svg" id="a" width="865.76" height="682.89" viewBox="0 0 865.76 682.89">
  <g>
    <g>
      <path d="M401.89,568.55s-2.6,6.44,8.09,4.38c0,0,11.24-3.15,18.5-9.59l-5.17-3.06-21.42,8.27Z" fill="#fff"></path>
      <path d="M406.28,573.83c-2.11,0-3.59-.51-4.42-1.52-1.34-1.63-.46-3.85-.43-3.95l.08-.2,21.85-8.43,5.97,3.53-.51,.46c-7.26,6.44-18.58,9.67-18.7,9.7-1.45,.28-2.73,.42-3.84,.42Zm-3.99-4.9c-.15,.49-.43,1.81,.34,2.75,.7,.85,2.54,1.67,7.26,.76,.07-.02,10.65-3.03,17.74-9.02l-4.36-2.58-20.98,8.1Z" fill="#002346"></path>
    </g>
    <g>
      <polygon points="413.57 500.85 417.81 523.83 433.58 536.75 438.44 526.21 433.99 494.69 413.57 500.85" fill="#f2b3c1"></polygon>
      <path d="M433.76,537.55l-16.41-13.45-.03-.18-4.32-23.42,21.41-6.46,4.55,32.24-5.19,11.26Zm-15.5-13.99l15.13,12.39,4.53-9.82-4.35-30.8-19.43,5.86,4.12,22.36Z" fill="#002346"></path>
    </g>
    <g>
      <path d="M414.78,507.38s14.09,8.15,21.31,2.16l2.35,16.64-4.86,10.54-15.77-12.92-3.03-16.42Z" fill="#fff"></path>
      <path d="M433.76,537.52l-16.41-13.45-.03-.18-3.23-17.49,.94,.54c.14,.08,13.88,7.91,20.74,2.21l.69-.57,2.5,17.67-5.19,11.26Zm-15.5-13.99l15.13,12.39,4.53-9.82-2.21-15.65c-6.48,4.42-17.04-.46-20.25-2.13l2.81,15.21Z" fill="#002346"></path>
    </g>
    <g>
      <path d="M448.66,545.12c-15.85,14.13-28.8,20.08-36.64,22.58-2.64,.93-5.39,1.54-8.18,1.81-6.3-.28,4.94-12.59,4.94-12.59,8.49-12.32,7.12-27.84,7.12-27.84l.18-3.09c.06-1.28,1.13-2.28,2.41-2.26,2.9,.08,6.86,2.16,10,4.16,1.8,1.13,3.54,2.35,5.21,3.66,.93-1.92,2.26-3.63,3.9-5,.69-.56,1.71-.45,2.26,.24,.19,.23,.31,.51,.35,.81l.2,1.47c.28,3.43,3.43,8.28,3.43,8.28l4.82,7.77Z" fill="#483181"></path>
      <path d="M403.89,570.01c-1.23-.05-1.98-.47-2.3-1.25-1.3-3.14,5.99-11.25,6.82-12.17,8.24-11.97,7-27.31,6.99-27.46l.18-3.16c.08-1.55,1.35-2.75,2.92-2.73,3.12,.09,7.3,2.35,10.26,4.24,1.63,1.03,3.24,2.14,4.77,3.32,.94-1.77,2.2-3.32,3.75-4.62,.91-.74,2.24-.6,2.97,.31,.25,.3,.4,.67,.45,1.06l.2,1.47c.27,3.29,3.32,8.03,3.35,8.07l5.05,8.14-.31,.28c-15.8,14.08-28.74,20.11-36.82,22.68-2.66,.94-5.46,1.55-8.28,1.83Zm14.56-45.78c-1,0-1.82,.78-1.87,1.79l-.18,3.09c.01,.08,1.29,15.77-7.21,28.09-3.03,3.33-7.48,9.24-6.68,11.17,.06,.15,.25,.59,1.35,.64,2.68-.27,5.39-.87,7.99-1.78,7.95-2.53,20.64-8.44,36.16-22.2l-4.6-7.41c-.13-.19-3.22-4.99-3.5-8.5l-.2-1.44c-.03-.21-.11-.4-.24-.56-.39-.48-1.09-.55-1.56-.17-1.59,1.33-2.86,2.96-3.76,4.83l-.27,.56-.49-.38c-1.65-1.29-3.39-2.51-5.17-3.63-2.86-1.82-6.87-4-9.75-4.08h-.03Z" fill="#002346"></path>
    </g>
    <g>
      <polygon points="563.08 540.81 569.65 540.81 564.89 434.6 552.04 436.33 563.08 540.81" fill="#fff"></polygon>
      <path d="M570.17,541.31h-7.54l-.05-.45-11.09-104.96,13.87-1.87,4.81,107.28Zm-6.64-1h5.6l-4.71-105.14-11.83,1.59,10.94,103.55Z" fill="#002346"></path>
    </g>
    <g>
      <polygon points="587.54 515.44 577.8 426.17 589.81 413.31 594.34 515.44 587.54 515.44" fill="#fff"></polygon>
      <path d="M594.86,515.94h-7.77l-9.81-89.94,12.98-13.9,.05,1.19,4.55,102.65Zm-6.87-1h5.83l-4.46-100.42-11.04,11.82,9.67,88.6Z" fill="#002346"></path>
    </g>
    <g>
      <polygon points="445.77 534.15 452.55 534.15 464.43 432.43 450.49 430.98 445.77 534.15" fill="#fff"></polygon>
      <path d="M452.99,534.65h-7.75l.02-.52,4.74-103.7,14.97,1.56-11.99,102.67Zm-6.7-1h5.81l11.77-100.78-12.91-1.34-4.67,102.12Z" fill="#002346"></path>
    </g>
    <g>
      <path d="M491.44,493.69l-4.25,14.51-7,24-3.3,4.09c-.52,.7-1.36,1.1-2.23,1.06-2.64-.21-2.11-4.41-2.11-4.41,1.42-6.28-12.29-6.43-12.29-6.43,2.23-7.55,3.72-18.25,4.61-26.5,.77-7.07,1.1-12.35,1.1-12.35l8.15-4.43,17.32,10.46Z" fill="#f2b3c1"></path>
      <path d="M474.77,537.85s-.09,0-.13,0c-.74-.06-1.33-.36-1.77-.9-1.14-1.4-.83-3.96-.82-4.07,.23-1.02,.05-1.85-.53-2.59-2.49-3.15-11.18-3.28-11.27-3.28h-.66s.19-.64,.19-.64c2.27-7.68,3.75-18.6,4.59-26.41,.76-6.98,1.09-12.27,1.1-12.33l.02-.28,8.64-4.7,17.89,10.81-11.45,39.05-3.3,4.09c-.58,.78-1.52,1.25-2.51,1.25Zm-13.85-11.82c2.17,.09,9.01,.63,11.39,3.64,.77,.97,1.01,2.11,.73,3.38-.07,.57-.11,2.38,.61,3.27,.26,.33,.61,.5,1.05,.54,.7,.04,1.36-.29,1.79-.86l3.25-4.03,11.11-38.04-16.74-10.11-7.66,4.16c-.08,1.18-.42,6-1.08,12.1-.83,7.64-2.26,18.26-4.45,25.97Z" fill="#002346"></path>
    </g>
    <g>
      <path d="M487.19,508.2l-7,24-3.3,4.09c-.52,.7-1.36,1.1-2.23,1.06-2.64-.21-2.11-4.41-2.11-4.41,1.42-6.28-12.29-6.43-12.29-6.43,2.23-7.55,3.72-18.25,4.61-26.5,6.64,4.55,14.31,7.37,22.32,8.19Z" fill="#fff"></path>
      <path d="M474.77,537.85s-.09,0-.13,0c-.74-.06-1.33-.36-1.77-.9-1.14-1.4-.83-3.96-.82-4.07,.23-1.02,.05-1.85-.53-2.59-2.49-3.15-11.18-3.28-11.27-3.28h-.66s.19-.64,.19-.64c2.27-7.68,3.75-18.6,4.59-26.41l.09-.83,.69,.47c6.55,4.49,14.19,7.29,22.09,8.11l.6,.06-7.26,24.75-3.3,4.09c-.58,.78-1.52,1.25-2.51,1.25Zm-13.85-11.82c2.17,.09,9.01,.63,11.39,3.64,.77,.97,1.01,2.11,.73,3.38-.07,.57-.11,2.38,.61,3.27,.26,.33,.61,.5,1.05,.54,.7,.04,1.36-.29,1.79-.86l3.25-4.03,6.81-23.33c-7.58-.88-14.9-3.54-21.27-7.75-.84,7.57-2.25,17.71-4.36,25.14Z" fill="#002346"></path>
    </g>
    <g>
      <path d="M459.23,222.53s-27.06-.72-30.56,23.26c0,0-4.37,17.09-8.01,27.49-1.28,3.67-.43,7.74,2.21,10.59l15.46,16.7h125.71l-1.47-24.92s-.42-42.92-14.49-50.31l-8.14-3.3-49.25-5.72-16.22-13.53-15.24,19.74Z" fill="#483181"></path>
      <path d="M564.57,301.07h-126.46l-15.6-16.86c-2.77-3-3.66-7.25-2.32-11.09,3.59-10.26,7.95-27.28,7.99-27.45,3.33-22.82,27.99-23.62,30.8-23.63l15.41-19.96,16.5,13.76,49.23,5.73,8.14,3.3c14.22,7.47,14.79,49,14.8,50.77l1.5,25.43Zm-126.02-1h124.96l-1.44-24.39c0-.45-.58-42.73-14.22-49.9l-8.03-3.25-49.33-5.73-15.94-13.29-15.08,19.53h-.25c-.28,0-26.66-.43-30.05,22.82-.05,.22-4.43,17.28-8.03,27.58-1.22,3.49-.42,7.36,2.11,10.08l15.31,16.54Z" fill="#002346"></path>
    </g>
    <g>
      <path d="M590.14,412.04c-.08,.43-.19,.85-.33,1.27-2.92,8.86-17.78,18.8-18.24,19.11h0c-5.21,7.7-21.29,5.89-21.29,5.89l-99.78-3.72c-11.45-1.9-4.64-14.14-4.64-14.14l23.11-58.48-7.48-14.26s67.8-6.91,109.49-6.3c18.21,.26,31.44,2,31.85,6.3,1.35,14.28-12.69,64.33-12.69,64.33Z" fill="#e6e7e8"></path>
      <path d="M554.43,439.01c-2.34,0-4-.18-4.21-.2l-99.74-3.72c-3.25-.53-5.39-1.89-6.42-4.05-2.14-4.44,1.22-10.58,1.37-10.84l23-58.21-7.72-14.71,.74-.07c.68-.07,68.3-6.91,109.55-6.3,21.36,.3,31.94,2.51,32.34,6.75,1.34,14.17-12.05,62.17-12.7,64.49-.09,.44-.2,.88-.34,1.31-2.83,8.6-16.48,18.05-18.36,19.32-3.7,5.35-12.3,6.23-17.5,6.23Zm-92.15-90.87l7.24,13.81-23.19,58.69c-.06,.12-3.28,6.01-1.37,9.98,.89,1.84,2.78,3.01,5.62,3.49l99.72,3.71c.2,.02,15.88,1.69,20.86-5.67l.13-.13c1.57-1.05,15.28-10.46,18.04-18.85,.13-.39,.23-.8,.31-1.21v-.04c.15-.5,14.01-50.12,12.68-64.15-.19-2.02-4.52-5.46-31.36-5.85-38.86-.57-101.22,5.48-108.7,6.22Z" fill="#002346"></path>
    </g>
    <g>
      <path d="M460.23,345.95s.84,4.86,0,14.89c0,0-4.89,6.8,6.36,6.15l22.25,.05s3-13.32,18.81-8.14l50.78,19.1s2.92-21.69,1.62-32.05h-99.82Z" fill="#483181"></path>
      <path d="M558.84,378.69l-51.37-19.32c-5.04-1.65-9.27-1.55-12.55,.31-4.42,2.5-5.59,7.43-5.6,7.48l-.09,.39-22.65-.05c-4.08,.24-6.63-.49-7.55-2.16-1.01-1.85,.34-4.11,.7-4.66,.81-9.74,0-14.58,0-14.63l-.1-.58h100.85l.05,.44c1.29,10.3-1.59,31.96-1.62,32.18l-.08,.62Zm-57.94-21.49c2.11,0,4.42,.41,6.91,1.22l50.21,18.88c.45-3.57,2.62-21.53,1.59-30.86h-98.8c.19,1.57,.61,6.29-.08,14.43v.14s-.09,.11-.09,.11c-.02,.02-1.55,2.2-.72,3.72,.71,1.28,3,1.85,6.64,1.64l21.9,.05c.38-1.29,1.86-5.4,5.97-7.73,1.89-1.07,4.05-1.61,6.47-1.61Z" fill="#002346"></path>
    </g>
    <g>
      <path d="M558.56,392.17c0,33.73-15,37.07-15,37.07h-26c-3.67,7.68-26.05,64.45-26.05,64.45-8.88,1.78-13.68,.87-16.12-.17h0c-.4-.18-.79-.38-1.17-.61-1.94-1.27-4.08-2.19-6.33-2.73-2.23-.5-4.52-.66-6.8-.46-.84,.08-1.59-.53-1.68-1.37-.01-.12,0-.23,0-.35l3.28-24.7c1.34-16,6.54-25.38,6.54-25.38l11.68-42.28,7.9-28.6c4.08-14.11,18.81-8.14,18.81-8.14l50.78,19.1,.15,14.17Z" fill="#b499fa"></path>
      <path d="M482.51,495.2c-3.49,0-5.81-.58-7.31-1.22-.43-.19-.84-.41-1.24-.64-1.9-1.25-3.98-2.15-6.18-2.67-2.17-.49-4.41-.64-6.64-.45-.54,.06-1.06-.1-1.48-.45-.42-.34-.68-.83-.73-1.37-.02-.16-.01-.32,0-.47l3.28-24.7c1.28-15.27,6.14-24.7,6.57-25.5l19.56-70.83c1.19-4.12,3.38-6.98,6.52-8.5,5.8-2.82,12.67-.09,12.96,.03l51.09,19.21,.15,14.52c0,33.74-14.76,37.42-15.39,37.56h-.11s-25.68,.01-25.68,.01c-4,8.6-25.68,63.57-25.9,64.13l-.1,.25-.27,.05c-3.68,.74-6.67,1.02-9.1,1.02Zm-19.5-6.06c1.68,0,3.35,.19,4.99,.55,2.32,.55,4.51,1.5,6.5,2.8,.34,.21,.71,.4,1.1,.57,2.38,1.01,7.01,1.87,15.55,.19,1.64-4.15,22.45-56.88,25.96-64.23l.14-.28h26.25c.91-.25,14.56-4.65,14.56-36.57l-.15-13.82-50.46-18.98c-.08-.03-6.77-2.68-12.16-.06-2.87,1.4-4.88,4.04-5.99,7.87l-19.62,70.98c-.05,.09-5.17,9.49-6.48,25.18l-3.28,24.72c-.01,.08-.01,.15,0,.24,.03,.27,.16,.52,.37,.69,.21,.17,.47,.25,.75,.23,.66-.06,1.31-.08,1.97-.08Z" fill="#002346"></path>
    </g>
    <g>
      <path d="M488.89,367.04l-14.84,53.73c-10.16,2.25-38.16-1.39-38.16-1.39-9.66-1.43-5.77,4.57-5.77,4.57,1.68,8.21,2.81,16.52,3.39,24.88,.25,3.34,.32,5.41,.32,5.41l2.06,39.28c.91,5.86-19.77,8.14-19.77,8.14-1.81,.41-3.7,.09-5.27-.9l-.15-.1c-4.37-3-4.87-10.72-4.87-10.72-4.28-21.14-15.71-63.77-15.71-63.77-7.43-23.77-7.15-40.8-7.15-40.8,1-7.82,4.32-13.22,8.7-16.92,9.46-8,24.06-8,32.18-7.29h0c2.01,.17,4.02,.44,6,.82,10.29,2.89,33.42,5,33.42,5l5.44,.1c18.3-3.51,20.18-.04,20.18-.04Z" fill="#b499fa"></path>
      <path d="M414.56,502.34c-1.38,0-2.76-.39-3.97-1.16l-.16-.11c-4.52-3.11-5.07-10.78-5.09-11.1-4.22-20.82-15.58-63.25-15.69-63.67-7.36-23.55-7.17-40.77-7.17-40.94,.93-7.3,3.92-13.1,8.88-17.29,9.08-7.68,22.71-8.27,32.55-7.41,2.02,.17,4.06,.45,6.05,.83,10.17,2.85,33.14,4.97,33.37,4.99l5.35,.1c18.09-3.46,20.45-.17,20.66,.22l.1,.18-.05,.19-14.92,54.02-.29,.07c-10.13,2.24-37.19-1.23-38.33-1.38-3.95-.59-5.3,.12-5.75,.81-.72,1.12,.45,2.98,.46,3l.07,.17c1.67,8.21,2.82,16.6,3.4,24.94,.25,3.31,.32,5.41,.32,5.43l2.06,39.27c.12,.79-.1,1.6-.69,2.36-3.43,4.48-18.87,6.23-19.53,6.3-.53,.12-1.08,.18-1.62,.18Zm2.95-140.96c-7.99,0-18.35,1.39-25.51,7.45-4.76,4.02-7.63,9.61-8.53,16.6,0,.11-.19,17.18,7.13,40.59,.12,.45,11.49,42.91,15.72,63.82,.01,.14,.55,7.58,4.66,10.41l.14,.1c1.46,.91,3.19,1.21,4.88,.83,.21-.03,15.72-1.78,18.9-5.93,.42-.54,.58-1.08,.49-1.65l-2.06-39.33s-.07-2.11-.32-5.4c-.58-8.28-1.71-16.59-3.36-24.73-.27-.45-1.38-2.48-.41-4,.89-1.38,3.09-1.8,6.72-1.26,.27,.03,27.49,3.53,37.69,1.46l14.68-53.17c-.67-.54-4.3-2.53-19.53,.39h-.05s-5.49-.09-5.49-.09c-.27-.02-23.33-2.15-33.55-5.02-1.92-.36-3.92-.64-5.91-.8-1.8-.16-3.95-.28-6.3-.28Z" fill="#002346"></path>
    </g>
    <g>
      <path d="M240.89,556.91c1.24,.02,2.46-.3,3.54-.91,1.34-.76,2.39-1.94,3-3.35v-200.77h408.7v200.12c.87,1.46,2.1,2.67,3.56,3.53,1.49,.88,3.18,1.35,4.91,1.38v-205c1.42-1.41,2.59-3.06,3.47-4.86,1.38-2.88,1.99-6.08,1.75-9.27l-428.93,3.6v215.53Z" fill="#e6e7e8"></path>
      <path d="M665.1,557.42h-.51c-1.81-.04-3.59-.54-5.16-1.46-1.53-.9-2.82-2.18-3.74-3.7l-.07-.12v-199.76H247.93v200.37l-.04,.1c-.65,1.5-1.79,2.77-3.21,3.58-1.16,.66-2.49,.95-3.79,.98h-.49v-216.53h.5s429.4-3.61,429.4-3.61l.04,.47c.24,3.27-.38,6.56-1.8,9.52-.87,1.8-2.02,3.43-3.42,4.85v205.3ZM241.39,341.88v214.52c.98-.06,1.94-.35,2.79-.83,1.2-.69,2.18-1.76,2.75-3.02v-201.17h409.7v200.48c.82,1.33,1.97,2.45,3.31,3.24,1.27,.74,2.69,1.19,4.16,1.29v-204.69l.15-.15c1.38-1.38,2.52-2.97,3.37-4.72,1.28-2.66,1.87-5.6,1.73-8.55l-427.96,3.59Z" fill="#002346"></path>
    </g>
    <g>
      <path d="M697.31,302.47l-27.49,35.38-99.27,.86-16.09,.14-313.57,2.71,23.3-37.86c1.71-2.77,4.69-4.46,7.88-4.45l424,.63c.85-.03,1.56,.65,1.59,1.53,.01,.39-.11,.77-.35,1.06Z" fill="#fff"></path>
      <path d="M239.99,342.07l23.77-38.63c1.81-2.94,4.92-4.69,8.3-4.69h0l424,.63c.5-.03,1.03,.17,1.43,.54,.41,.38,.64,.9,.66,1.47,.02,.51-.15,1-.46,1.39l-27.64,35.57h-.24s-115.36,1.01-115.36,1.01l-314.47,2.71Zm32.08-42.32c-3.04,0-5.82,1.58-7.45,4.22l-22.83,37.09,312.67-2.7,115.12-1.01,27.35-35.2c.17-.21,.25-.46,.24-.73,0-.3-.13-.57-.35-.77-.2-.19-.43-.29-.73-.28l-424.02-.63h0Z" fill="#002346"></path>
    </g>
    <g>
      <rect x="469.85" y="209.57" width="43" height="62" rx="21.5" ry="21.5" fill="#f2b3c1"></rect>
      <path d="M491.35,272.07c-12.13,0-22-9.87-22-22v-19c0-12.13,9.87-22,22-22s22,9.87,22,22v19c0,12.13-9.87,22-22,22Zm0-62c-11.58,0-21,9.42-21,21v19c0,11.58,9.42,21,21,21s21-9.42,21-21v-19c0-11.58-9.42-21-21-21Z" fill="#002346"></path>
    </g>
    <g>
      <path d="M472.22,278.59s-13.27-3.79-11.13-18l.94-14.69s-11.37-61.84,23-61.13c0,0,3.08-3.56,15.4,1.42l10.66,2.84s15.64,4.27,14,26.3c1.99,3.51,5.97,5.41,9.95,4.74,0,0,4.74-1.42,5.93,4,0,0-18,8.29-20.62,26.78,0,0-.71,28.19-15.87,26.53,0,0,5.92-3.31,5.68-15.63,0,0-2.84-13.75-1.89-21.09,0,0,1.18-8.77-5.21-7.11,0,0-12.09,1.66-17.3-3.79,0,0-5.45-4.27-6.16-10.66,0,0-1.69-.19-1.56,1.76,.06,.72,.03,1.45-.1,2.17-1.01,4.4-2.78,8.6-5.21,12.41,0,0,1.18,12.33-3.08,17.06-.03,.02-8.56,18.27,2.57,26.09Z" fill="#002346"></path>
      <path d="M474.93,279.89l-2.85-.81c-.14-.04-13.67-4.08-11.49-18.55l.93-14.59c-.41-2.28-6.74-38.66,6.75-54.52,4.11-4.83,9.68-7.24,16.57-7.14,.85-.71,4.73-3.01,15.78,1.46l10.6,2.82c.16,.04,15.95,4.61,14.38,26.67,1.91,3.24,5.65,4.99,9.36,4.36,.03-.01,2.12-.62,3.99,.49,1.26,.74,2.1,2.05,2.51,3.9l.09,.39-.37,.17c-.18,.08-17.78,8.4-20.33,26.4-.01,.66-.53,17.71-8.19,24.4-2.33,2.04-5.1,2.9-8.23,2.56l-1.55-.17,1.37-.76c.05-.03,5.65-3.36,5.42-15.18-.11-.47-2.84-13.83-1.89-21.16,0-.05,.56-4.42-1.34-6.1-.76-.67-1.85-.82-3.25-.46-.56,.08-12.46,1.64-17.79-3.93-.17-.13-5.31-4.22-6.23-10.47-.13,.03-.26,.09-.37,.2-.2,.2-.29,.53-.26,1,.06,.76,.03,1.54-.11,2.29-1.02,4.44-2.77,8.62-5.19,12.45,.13,1.58,.9,12.6-3.17,17.22-.47,1.02-8.07,18.01,2.44,25.4l2.43,1.7Zm29.62-47.05c1,0,1.86,.3,2.54,.91,2.3,2.04,1.69,6.78,1.67,6.98-.93,7.17,1.86,20.79,1.88,20.92,.19,9.33-3.03,13.64-4.8,15.3,2.31-.03,4.37-.82,6.15-2.38,7.33-6.4,7.85-23.56,7.85-23.73,2.42-17.11,17.93-25.71,20.54-27.04-.37-1.36-1.02-2.32-1.94-2.87-1.5-.88-3.25-.38-3.27-.38-4.24,.71-8.44-1.29-10.53-4.97l-.08-.13v-.15c1.6-21.34-13-25.61-13.62-25.78l-10.66-2.84c-11.77-4.75-14.87-1.6-14.9-1.57l-.15,.17h-.23c-6.65-.14-12.04,2.15-15.98,6.79-13.33,15.67-6.58,53.38-6.51,53.76v.06s-.93,14.75-.93,14.75c-1.43,9.53,4.31,14.26,7.96,16.25-2.36-2.67-3.56-6.25-3.55-10.67,0-6.54,2.77-13.16,3.3-14.02l-.02-.02c4.06-4.51,2.96-16.56,2.95-16.68l-.02-.17,.09-.15c2.41-3.77,4.14-7.89,5.14-12.25,.12-.65,.15-1.33,.09-2.02-.05-.79,.14-1.39,.57-1.8,.61-.59,1.45-.51,1.55-.5l.4,.04,.04,.4c.68,6.11,5.92,10.28,5.97,10.32,5.03,5.26,16.81,3.71,16.92,3.69,.55-.15,1.08-.22,1.57-.22Z" fill="#002346"></path>
    </g>
    <g>
      <path d="M527.46,300.25l-11.74-44.1s-1.13-7.83-4.39-10.33c0,0-6.09-4.76-5.93-16.43,0,0,1.3-10.67-.71-12.77,0,0-5.13-5.47-4.87-8.9,.11-.74,.8-1.26,1.54-1.15,.16,.02,.32,.08,.46,.15l1.88,.93s-1.91-5,.76-7.26c0,0-.19-3.83,3.64-1l4.42,3.63s-.79-7.64,4-2.1l7.07,10.89s4.3,3.57,2.3,16.05c0,0-2.29,10.73-.76,12.82l22.93,40.12-20.6,19.45Z" fill="#f2b3c1"></path>
      <path d="M527.19,301.19l-11.96-44.91c-.02-.13-1.15-7.72-4.21-10.06-.26-.2-6.29-5.05-6.13-16.83,.36-2.96,.94-10.84-.57-12.42-.22-.23-5.28-5.68-5.01-9.28,.07-.52,.33-.96,.73-1.26,.4-.3,.88-.42,1.38-.35,.22,.03,.43,.1,.63,.21l.83,.41c-.41-1.65-.83-4.71,1.07-6.52,.02-.52,.15-1.66,1.04-2.13,.83-.44,1.94-.13,3.4,.95l3.57,2.93c0-1.22,.19-2.94,1.25-3.4,.94-.41,2.11,.25,3.68,2.08l7.08,10.89c.56,.52,4.32,4.52,2.41,16.46-.87,4.09-1.87,11.05-.85,12.45l23.16,40.51-21.5,20.3Zm-26.03-94.14c-.18,0-.36,.06-.51,.17-.18,.14-.3,.34-.33,.57-.24,3.14,4.69,8.43,4.74,8.49,2.11,2.2,.98,12.06,.84,13.17-.15,11.2,5.68,15.93,5.74,15.98,3.38,2.59,4.53,10.32,4.58,10.65l11.51,43.23,19.7-18.6-22.74-39.78c-1.58-2.16,.47-12.05,.71-13.17,1.93-12.03-2.09-15.53-2.13-15.56l-.1-.11-7.07-10.89c-1.66-1.91-2.33-1.83-2.49-1.76-.6,.26-.73,2.22-.59,3.54l.12,1.21-5.36-4.4c-1.04-.76-1.88-1.08-2.31-.86-.46,.24-.52,1.15-.51,1.45v.25s-.18,.16-.18,.16c-2.37,2-.63,6.65-.62,6.7l.45,1.19-3.02-1.5c-.11-.06-.21-.09-.31-.11-.04,0-.08,0-.12,0Z" fill="#002346"></path>
    </g>
    <g>
      <path d="M485.63,200.97c.17,5.41-12.4,10.13-12.4,10.13l-1,8.56c-.08,2.31-.37,4.6-.89,6.85-.45,2.02-1.12,3.97-2,5.84h0c-.53,1.14-1.21,2.21-2,3.19l-3.85,7.69-8.17,18.29c-1.31,2.93-2.44,5.93-3.38,9-2.43,7.95-8.23,25.17-15.69,35.91-9.07,13.05-16.7,2.32-18,.31-.13-.2-.19-.31-.19-.31-6.11-11.52,1.36-26.3,1.36-26.3,1.09-1.77,2.33-3.44,3.71-5,9.61-8,27.53-44.14,27.53-44.14,2.38-7.28,2-28.17,2-28.17-1.4-6.29,8.9-8,8.9-8,10.66-5.59,12.93-3,12.93-3,4-1.23,5.24,2.09,5.24,2.09,3.14-2.27,4.19,0,4.19,0,1.65,3-4.95,8.12-5.69,8.69,6.53-4.06,7.4-1.63,7.4-1.63Z" fill="#f2b3c1"></path>
      <path d="M427.11,313.3s-.08,0-.12,0c-4.78-.08-8.22-4.83-9.16-6.28-.14-.22-.21-.34-.21-.34-6.16-11.62,1.04-26.15,1.35-26.77,1.12-1.83,2.39-3.53,3.78-5.11,9.47-7.89,27.28-43.67,27.46-44.03,2.25-6.88,1.97-26.76,1.95-27.89-.32-1.48-.06-2.85,.76-4.06,2.19-3.25,7.71-4.34,8.48-4.48,9.14-4.78,12.33-3.67,13.21-3.07,3.16-.85,4.72,.95,5.31,1.92,1.1-.69,2.09-.92,2.95-.7,1.07,.28,1.5,1.18,1.51,1.22,1.08,1.96-.78,4.58-2.77,6.59,1.45-.56,2.61-.69,3.46-.39,.79,.28,1.02,.84,1.04,.9l.03,.15c.17,5.29-10.49,9.74-12.44,10.5l-.96,8.26c-.07,2.29-.38,4.63-.9,6.9-.45,2.04-1.14,4.04-2.04,5.94-.54,1.16-1.22,2.25-2.03,3.25l-3.83,7.64-8.16,18.27c-1.29,2.9-2.42,5.91-3.36,8.94-2.19,7.17-8.12,25.05-15.76,36.05-3.04,4.37-6.25,6.58-9.55,6.58Zm45.12-121.57c-1.74,0-4.92,.65-10.44,3.54l-.15,.05c-.06,0-5.83,1-7.9,4.06-.68,1.01-.87,2.1-.6,3.33v.1c.03,.86,.37,21.06-2.01,28.33-.76,1.55-18.1,36.39-27.69,44.37-1.3,1.48-2.53,3.14-3.6,4.88-.05,.11-7.26,14.65-1.34,25.8,0,0,.06,.1,.17,.27,.87,1.35,4.05,5.76,8.34,5.83,3.03,.08,5.96-2.02,8.83-6.15,7.56-10.88,13.44-28.64,15.62-35.77,.95-3.08,2.09-6.12,3.4-9.06l8.17-18.29,3.92-7.8c.77-.95,1.42-1.98,1.93-3.09,.87-1.83,1.53-3.76,1.96-5.74,.51-2.22,.8-4.49,.88-6.76l1.04-8.9,.29-.11c.12-.05,12.04-4.58,12.08-9.53-.06-.07-.19-.2-.46-.28-.67-.2-2.36-.18-6.18,2.2l-.57-.82c2.61-2,6.71-5.96,5.56-8.05-.02-.05-.28-.55-.89-.71-.66-.17-1.55,.13-2.57,.87l-.53,.38-.23-.62c-.04-.12-1.14-2.86-4.62-1.79l-.31,.1-.21-.24s-.47-.43-1.88-.43Z" fill="#002346"></path>
    </g>
    <g>
      <path d="M487.89,548.75v4.86c0,2.18-1.53,4.06-3.66,4.51-3.33,.7-9.55,2-20.93,4.32l-.65,.13c-21.24,4.23-36,1.85-36,1.85-4.87-.93-3.05-4.93-3.05-4.93,12.74,1.43,25.62,.94,38.21-1.46,0,0,18.43-3.83,26.08-9.28Z" fill="#fff"></path>
      <path d="M437.84,565.58c-7.01,0-11.19-.65-11.27-.66-1.71-.33-2.86-1.04-3.42-2.14-.84-1.62-.04-3.42,0-3.49l.15-.33,.36,.04c12.7,1.43,25.51,.94,38.06-1.45,.18-.04,18.41-3.87,25.88-9.2l.79-.56v5.83c0,2.4-1.71,4.5-4.06,5-3.33,.7-9.55,2-20.93,4.32l-.65,.13c-9.99,1.99-18.6,2.51-24.91,2.51Zm-13.9-5.54c-.15,.5-.33,1.46,.1,2.29,.42,.8,1.33,1.34,2.7,1.6,.13,.02,14.91,2.31,35.81-1.85l.65-.13c11.38-2.32,17.59-3.62,20.92-4.32,1.89-.4,3.26-2.09,3.26-4.02v-3.92c-8.02,5.16-24.75,8.68-25.48,8.83-12.53,2.39-25.3,2.9-37.97,1.51Z" fill="#002346"></path>
    </g>
    <g>
      <path d="M664.6,556.91l31.7-38.23v-214l-26.48,33.1c.47,5.25-1.45,10.44-5.22,14.13v205Z" fill="#e6e7e8"></path>
      <path d="M664.1,558.3v-206.6l.15-.15c3.68-3.6,5.53-8.6,5.07-13.73l-.02-.2,.12-.16,27.37-34.21v215.61l-.12,.14-32.58,39.3Zm1-206.18v203.4l30.7-37.02v-212.39l-25.46,31.83c.41,5.29-1.49,10.43-5.24,14.18Z" fill="#002346"></path>
    </g>
    <g>
      <polygon points="247.42 351.88 272.73 351.88 273.3 519.94 247.42 552.65 247.42 351.88" fill="#e6e7e8"></polygon>
      <path d="M246.92,554.09v-202.71h26.31v.5s.57,168.24,.57,168.24l-.11,.14-26.77,33.84Zm1-201.71v198.83l24.88-31.45-.57-167.39h-24.31Z" fill="#002346"></path>
    </g>
    <g>
      <path d="M323.35,297.8v13.63l-14.69-2.11c-2.74-.36-5.25,1.57-5.61,4.31-.03,.2-.04,.39-.04,.59h0c0,2.46,1.81,4.55,4.25,4.89l55.16,7.81c2.47,.35,4.76-1.36,5.11-3.83,.03-.21,.05-.43,.05-.65h0c0-2.25-1.65-4.17-3.88-4.48l-16.12-2.31-.28-17.85h-23.95Z" fill="#b499fa"></path>
      <path d="M363.06,327.47c-.24,0-.47-.02-.71-.05l-55.16-7.81c-2.67-.38-4.68-2.69-4.68-5.39,0-.22,.02-.44,.05-.66,.4-3.01,3.16-5.12,6.17-4.74l14.12,2.03v-13.55h24.94l.28,17.92,15.7,2.25c2.46,.35,4.32,2.49,4.31,4.98,0,.24-.02,.48-.05,.71-.36,2.5-2.51,4.31-4.97,4.31Zm-55.06-17.69c-2.22,0-4.16,1.65-4.46,3.92-.02,.18-.04,.35-.04,.53,0,2.19,1.64,4.08,3.82,4.39l55.16,7.81c1.07,.15,2.12-.12,2.98-.76,.86-.64,1.42-1.58,1.57-2.65,.03-.19,.04-.38,.04-.57,0-1.99-1.48-3.71-3.45-3.99l-16.54-2.37-.28-17.79h-22.96v13.71l-15.26-2.19c-.2-.03-.39-.04-.59-.04Z" fill="#002346"></path>
    </g>
    <g>
      <polygon points="525.69 308.39 600.01 308.39 618.47 287.31 580.23 287.31 525.69 308.39" fill="#b499fa"></polygon>
      <path d="M600.24,308.89h-77.23l57.22-22.08h39.34l-19.34,22.08Zm-71.87-1h71.41l17.58-20.08h-37.04l-51.95,20.08Z" fill="#002346"></path>
    </g>
    <g>
      <polygon points="600.01 308.39 600.01 329.08 615.08 319.65 616.92 302.08 608.22 299.02 600.01 308.39" fill="#b499fa"></polygon>
      <path d="M599.51,329.98v-21.78l8.56-9.76,9.39,3.3-1.91,18.21-16.04,10.04Zm1-21.4v19.6l14.1-8.82,1.77-16.93-8.01-2.82-7.86,8.97Z" fill="#002346"></path>
    </g>
    <g>
      <polygon points="525.69 308.39 525.69 327.37 600.01 329.08 600.01 308.39 525.69 308.39" fill="#fff"></polygon>
      <path d="M600.51,329.59l-75.32-1.73v-19.97h75.32v21.7Zm-74.32-2.71l73.32,1.69v-19.68h-73.32v17.99Z" fill="#002346"></path>
    </g>
    <g>
      <polygon points="247.01 193.98 247.01 291.35 408.12 314.4 408.12 216.99 247.01 193.98" fill="#b499fa"></polygon>
      <path d="M408.62,314.98l-.57-.08-161.54-23.11v-98.38l.57,.08,161.54,23.07v98.42Zm-161.11-24.06l160.11,22.91v-96.4l-160.11-22.87v96.36Z" fill="#002346"></path>
    </g>
    <g>
      <polygon points="255.43 189.73 247.01 193.98 408.12 216.99 408.12 314.4 415.63 311.68 415.63 213.77 255.43 189.73" fill="#b499fa"></polygon>
      <path d="M407.62,315.11v-97.69l-162.25-23.17,9.98-5.04,.16,.02,160.63,24.1v98.69l-8.51,3.08Zm-158.97-121.4l159.97,22.85v97.13l6.51-2.36v-97.13l-159.62-23.95-6.86,3.46Z" fill="#002346"></path>
    </g>
    <g>
      <path d="M487.89,548.75c-7.65,5.45-26.1,9.28-26.1,9.28-12.59,2.4-25.47,2.89-38.21,1.46-.31-.04-.58-.24-.71-.53-2.44-5.63,22.9-16.71,22.9-16.71,10-5.68,14.53-15.74,14.53-15.74,0,0,13.71,.15,12.29,6.43,0,0-.53,4.2,2.11,4.41,.87,.04,1.7-.36,2.23-1.05l3.23-4.07c4.79-7.71,5.76,.16,5.76,.16l1.97,16.36Z" fill="#483181"></path>
      <path d="M437.86,560.79c-4.78,0-9.57-.27-14.34-.8-.5-.07-.91-.37-1.11-.82-2.57-5.92,20.51-16.22,23.16-17.37,9.69-5.5,14.23-15.39,14.27-15.49l.13-.3h.33c.38,0,9.26,.14,12.04,3.67,.77,.97,1.01,2.11,.73,3.38-.07,.57-.11,2.38,.61,3.27,.26,.33,.61,.5,1.05,.54,.69,.02,1.37-.29,1.79-.85l3.24-4.08c1.64-2.64,3.07-3.81,4.35-3.54,1.81,.4,2.25,3.58,2.3,3.94l2.01,16.66-.24,.17c-7.65,5.45-25.53,9.21-26.29,9.36-7.94,1.51-15.98,2.27-24.03,2.27Zm22.74-33.77c-.86,1.74-5.54,10.53-14.59,15.67-9.67,4.23-24.32,12.31-22.69,16.08,.06,.13,.18,.21,.32,.23,12.69,1.43,25.49,.94,38.05-1.46,.17-.04,18.04-3.79,25.66-9.03l-1.93-16.06c-.09-.73-.57-2.88-1.52-3.09-.37-.07-1.41,.07-3.32,3.13l-3.26,4.12c-.62,.82-1.6,1.26-2.64,1.24-.74-.06-1.32-.36-1.76-.9-1.14-1.4-.83-3.96-.82-4.07,.23-1.02,.05-1.85-.53-2.59-2.21-2.8-9.36-3.22-10.96-3.27Z" fill="#002346"></path>
    </g>
    <g>
      <path d="M516.79,309.73l67.23,1.33s18.7-17.5,21.81-39.58c0,0-40.86,12.95-51.37,0,0,0-3.21,6.27-6.44,9.32l-20.56,19.45-10.67,9.48Z" fill="#fff"></path>
      <path d="M584.21,311.57l-68.71-1.36,11.62-10.33,20.55-19.44c3.13-2.96,6.31-9.12,6.34-9.18l.35-.68,.48,.6c10.17,12.54,50.43-.03,50.83-.16l.76-.24-.11,.79c-3.1,22-21.78,39.7-21.96,39.88l-.15,.14Zm-66.14-2.31l65.75,1.3c1.73-1.67,18.18-18.1,21.4-38.36-5.74,1.74-40.11,11.52-50.66,.17-.92,1.7-3.52,6.28-6.2,8.8l-20.56,19.45-9.73,8.64Z" fill="#002346"></path>
    </g>
    <g>
      <path d="M613.03,304.65v19.83h3.86s-.82,8.39-3.08,12.08h56s.11-21-4.19-31.91h-52.59Z" fill="#fff"></path>
      <path d="M670.31,337.06h-57.39l.47-.76c1.85-3.01,2.72-9.41,2.95-11.32h-3.8v-20.83h53.43l.12,.32c4.29,10.87,4.23,31.23,4.22,32.1v.5Zm-55.66-1h54.65c-.02-3.21-.3-21.07-4.03-30.91h-51.75v18.83h3.91l-.05,.55c-.03,.33-.76,7.54-2.73,11.53Z" fill="#002346"></path>
    </g>
    <g>
      <path d="M607.05,284.26s41.27,4.84,62,2.32c0,0,3-.71,17.31-20.84l11.88-16.46h-62.6s-4.26,1.81-11.35,13.31c-.81,1.33-1.66,2.61-2.55,3.83-3.07,4.28-9.85,13.45-14.69,17.84Z" fill="#483181"></path>
      <path d="M654.2,287.8c-20.99,0-46.88-3-47.21-3.04l-1.09-.13,.81-.74c4.68-4.25,11.17-12.95,14.62-17.76,.89-1.21,1.74-2.49,2.53-3.8,7.09-11.51,11.4-13.43,11.58-13.51l.2-.04h63.58l-12.45,17.25c-14.01,19.71-17.27,20.96-17.6,21.03-4.28,.52-9.46,.73-14.97,.73Zm-46.02-3.91c6.63,.73,42.23,4.46,60.81,2.2,.04-.03,3.29-1.4,16.96-20.63l11.31-15.67h-61.51c-.61,.32-4.68,2.76-11.04,13.07-.8,1.33-1.67,2.63-2.57,3.86-3.28,4.57-9.3,12.66-13.96,17.17Z" fill="#002346"></path>
    </g>
    <g>
      <path d="M607.05,284.26l1.61,20.39h63.82s-1.21-13.33-3.42-18.07c0,0-23.55,2.31-62.01-2.32Z" fill="#fff"></path>
      <path d="M673.03,305.15h-64.83l-1.7-21.46,.61,.07c37.95,4.57,61.67,2.34,61.9,2.32l.35-.03,.15,.32c2.22,4.76,3.42,17.69,3.46,18.24l.05,.54Zm-63.91-1h62.81c-.25-2.48-1.37-12.76-3.18-17.04-3.1,.26-25.96,1.91-61.15-2.28l1.53,19.32Z" fill="#002346"></path>
    </g>
    <g>
      <path d="M698.25,249.28l3.14,24.72c.18,1.39-.31,2.78-1.31,3.76l-27.6,26.89s-1.21-11.32-3.42-18.07c0,0,2.34-1,7.66-7.94l21.53-29.36Z" fill="#483181"></path>
      <path d="M672.09,305.73l-.11-1.02c-.01-.11-1.23-11.35-3.4-17.97l-.14-.44,.42-.18s2.35-1.12,7.46-7.78l22.26-30.36,3.3,25.96c.2,1.54-.35,3.1-1.46,4.18l-28.34,27.61Zm-2.43-18.91c1.74,5.55,2.85,13.9,3.2,16.77l26.87-26.18c.89-.86,1.32-2.11,1.16-3.34l-2.98-23.48-20.79,28.35c-4.18,5.45-6.57,7.31-7.46,7.88Z" fill="#002346"></path>
    </g>
    <g>
      <path d="M669.06,322.43s17.31-16.41,25.71-28l-.6-10.94-21.69,21.13h-6.8s2.59,5.31,3.38,17.81Z" fill="#e6e7e8"></path>
      <path d="M668.63,323.53l-.07-1.07c-.77-12.26-3.3-17.57-3.33-17.62l-.35-.72h7.4l22.33-21.76,.67,12.21-.1,.14c-8.33,11.5-25.6,27.91-25.77,28.07l-.78,.73Zm-2.19-18.41c.69,1.77,2.36,6.85,3.05,16.21,3.43-3.31,17.47-17.03,24.78-27.05l-.53-9.66-21.05,20.5h-6.25Z" fill="#002346"></path>
    </g>
    <g>
      <path d="M669.06,322.43c.53,4.69,.8,9.41,.81,14.13h.9l25-31.33s-.22-8-1-10.77c0,0-8.27,11.56-25.71,27.97Z" fill="#b499fa"></path>
      <path d="M671.01,337.06h-1.64v-.5c0-4.69-.28-9.42-.81-14.07l-.03-.25,.18-.17c17.2-16.18,25.56-27.78,25.65-27.9l.61-.85,.28,1c.79,2.8,1.01,10.56,1.02,10.89v.18s-.11,.14-.11,.14l-25.15,31.52Zm-.64-1h.16l24.73-31c-.03-1.06-.23-6.48-.75-9.43-2.28,3-10.49,13.37-24.93,26.99,.5,4.45,.76,8.96,.78,13.44Z" fill="#002346"></path>
    </g>
    <g>
      <polygon points="441.25 310.18 437.25 306.52 428.1 309.01 423.11 321.16 434.26 326.49 442.58 324.82 444.91 316.33 441.25 310.18" fill="#fff"></polygon>
      <path d="M434.19,327.02l-11.73-5.61,5.26-12.82,9.65-2.63,4.29,3.96,3.77,6.33-2.47,8.99-8.79,1.76Zm-10.44-6.1l10.57,5.05,7.85-1.58,2.19-7.99-3.51-5.9-3.74-3.42-8.65,2.35-4.72,11.49Z" fill="#002346"></path>
    </g>
    <g>
      <path d="M437.25,306.51l3,.67,3.34,2.83,2.83,3.16s1.5,4,1,4.67c-.55,1.07-1,2.18-1.34,3.33l-2.83,1,1.64-5.79-3.67-6.16-3.97-3.71Z" fill="#fff"></path>
      <path d="M442.51,322.96l1.84-6.51-3.52-5.92-5.26-4.91,4.91,1.1,3.43,2.91,2.97,3.37c.73,1.94,1.48,4.41,.93,5.14-.49,.97-.93,2.06-1.26,3.17l-.07,.24-3.98,1.41Zm-3.57-15.57l2.72,2.57,3.78,6.34-1.44,5.07,1.68-.59c.34-1.09,.78-2.15,1.3-3.17,.17-.41-.29-2.29-.99-4.18l-2.77-3.09-3.2-2.7-1.09-.24Z" fill="#002346"></path>
    </g>
    <g>
      <path d="M463.72,305.47l-8.09,4v6.63c0,.39,.26,3.33,.26,3.33l6.89,4.51,6.89-.54,4.78-2.52,2.52-3.7,1.19-2.52s.26-4.25,.4-4.67c-.07-1.29-.2-2.57-.4-3.84-.53-1.19-1.15-2.35-1.85-3.45l-4.51,.4-2.25-.27-5.83,2.64Z" fill="#fff"></path>
      <path d="M462.65,324.45l-7.24-4.74-.02-.24c-.03-.3-.26-2.97-.26-3.37v-6.94l8.38-4.14,5.96-2.7,2.34,.28,4.76-.42,.16,.26c.71,1.12,1.34,2.3,1.89,3.51l.04,.13c.2,1.28,.33,2.59,.4,3.89v.09s-.02,.09-.02,.09c-.08,.28-.25,2.53-.38,4.54l-.05,.18-1.19,2.52-2.63,3.87-5.08,2.63-7.06,.55Zm-6.28-5.31l6.54,4.28,6.62-.52,4.58-2.41,2.45-3.6,1.11-2.36c.08-1.26,.25-3.9,.39-4.59-.07-1.22-.2-2.45-.38-3.66-.47-1.06-1.02-2.09-1.63-3.07l-4.26,.38-2.16-.26-5.7,2.58-7.8,3.86v6.32c0,.25,.13,1.88,.24,3.04Z" fill="#002346"></path>
    </g>
    <g>
      <polygon points="498.5 310.75 488.23 321.4 489.37 324.26 493.75 327.11 501.93 329.39 507.06 325.01 506.11 317.6 505.92 314.75 506.87 313.23 500.6 309.23 498.5 310.75" fill="#fff"></polygon>
      <path d="M502.05,329.94l-8.57-2.41-4.51-2.94-1.32-3.31,10.56-10.94,2.38-1.72,6.97,4.45-1.13,1.8,.18,2.69,.98,7.65-5.54,4.73Zm-8.09-3.29l7.85,2.19,4.72-4.03-.92-7.14-.2-3.04,.77-1.24-5.57-3.55-1.79,1.29-10.02,10.39,.96,2.41,4.18,2.72Z" fill="#002346"></path>
    </g>
    <g>
      <path d="M506.01,316.38l3.06,1,2.75,6.91s-1.08,3.05-1.28,3.45-5.23,3.06-5.23,3.06l-7.2,1.08s-3.15-.89-3.25-1.38-7.8-3.75-7.8-3.75l2.31-2.52,4.37,2.85,8.15,2.3,5.13-4.37-1.01-8.63Z" fill="#fff"></path>
      <path d="M498.08,332.39l-.1-.03c-2.91-.82-3.44-1.33-3.56-1.62-.57-.45-4.22-2.12-7.55-3.53l-.65-.28,3.08-3.35,4.66,3.04,7.82,2.21,4.72-4.02-1.07-9.14,4.03,1.32,2.91,7.3-.06,.18c-.11,.32-1.1,3.09-1.3,3.51-.07,.15-.27,.54-5.44,3.28l-.16,.05-7.31,1.1Zm-2.76-2.09c.29,.24,1.65,.73,2.82,1.07l7.01-1.05c2.24-1.19,4.7-2.58,4.99-2.87,.08-.19,.73-1.97,1.15-3.15l-2.59-6.52-2.09-.68,.95,8.12-5.54,4.72-8.54-2.43-4.01-2.62-1.55,1.69c6.49,2.77,7.28,3.42,7.41,3.73Z" fill="#002346"></path>
    </g>
    <g>
      <path d="M383.03,164.12v.13c0,7,7.19,12.64,16.07,12.64,.74,0,1.47,0,2.18-.12,4.62,2.59,9.84,3.93,15.14,3.89,8.11,0,15.3-2.93,20-7.52,8.51-.32,15.29-5.85,15.29-12.62v-.14c5.31-3,8.77-7.91,8.77-13.44s-3.73-10.78-9.38-13.78c.4-1.12,.61-2.29,.62-3.48,0-7-7.2-12.64-16.07-12.64-.94,0-1.88,.06-2.81,.2-3.67-4.62-10.19-7.69-17.62-7.69-9.32,0-17.21,4.83-19.84,11.48-8.69,.16-15.69,5.75-15.69,12.64,0,.69,.07,1.38,.22,2.06-4.31,3.36-7,8-7,13.19-.02,6.28,4.04,11.87,10.12,15.2Z" fill="#fff"></path>
      <path d="M416.18,181.16c-5.23,0-10.41-1.34-14.99-3.87-.7,.1-1.4,.1-2.09,.1-9.07,0-16.46-5.81-16.57-12.97-6.36-3.58-10.14-9.36-10.12-15.5,0-5.05,2.46-9.8,6.95-13.39-.11-.61-.17-1.23-.17-1.86,0-7.11,6.94-12.83,15.85-13.13,2.9-6.89,10.96-11.49,20.18-11.49,7.25,0,13.89,2.86,17.83,7.66,.86-.11,1.72-.16,2.6-.17,9.13,0,16.57,5.89,16.57,13.14,0,1.11-.18,2.19-.51,3.24,5.82,3.23,9.27,8.44,9.27,14.02s-3.27,10.53-8.77,13.73c-.1,6.91-6.89,12.56-15.58,12.96-4.98,4.79-12.34,7.53-20.21,7.53-.08,0-.16,0-.24,0Zm-14.81-4.91l.15,.09c4.54,2.54,9.68,3.9,14.89,3.83,7.69,0,14.85-2.69,19.65-7.38l.14-.13h.19c8.3-.32,14.81-5.64,14.81-12.13v-.43l.25-.14c5.33-3.01,8.52-7.87,8.52-13s-3.41-10.31-9.11-13.34l-.38-.2,.15-.41c.38-1.07,.58-2.18,.59-3.32,0-6.69-6.98-12.13-15.57-12.13-.91,0-1.83,.06-2.74,.2l-.28,.04-.18-.23c-3.73-4.7-10.17-7.5-17.23-7.5-8.95,0-16.73,4.49-19.38,11.16l-.12,.31h-.33c-8.38,.16-15.2,5.61-15.2,12.15,0,.66,.07,1.32,.21,1.95l.07,.31-.25,.19c-4.39,3.42-6.81,7.96-6.81,12.79-.02,5.85,3.67,11.37,9.86,14.76l.26,.14v.43c0,6.69,6.98,12.14,15.57,12.14,.74,0,1.43,0,2.1-.11l.17-.03Z" fill="#002346"></path>
    </g>
    <g>
      <path d="M483.22,161.89c2.23,0,4,1.24,4,2.77s-1.77,2.77-4,2.77-4-1.24-4-2.77,1.77-2.77,4-2.77Z" fill="#fff"></path>
      <path d="M483.22,167.93c-2.52,0-4.5-1.44-4.5-3.27s1.98-3.27,4.5-3.27,4.5,1.44,4.5,3.27-1.98,3.27-4.5,3.27Zm0-5.54c-1.93,0-3.5,1.02-3.5,2.27s1.57,2.27,3.5,2.27,3.5-1.02,3.5-2.27-1.57-2.27-3.5-2.27Z" fill="#002346"></path>
    </g>
    <g>
      <path d="M471.73,150.32c3.34,0,6.06,1.89,6.06,4.22s-2.71,4.22-6.06,4.22-6.06-1.89-6.06-4.22,2.72-4.22,6.06-4.22Z" fill="#fff"></path>
      <path d="M471.73,159.26c-3.62,0-6.56-2.12-6.56-4.72s2.94-4.72,6.56-4.72,6.56,2.12,6.56,4.72-2.94,4.72-6.56,4.72Zm0-8.44c-3.07,0-5.56,1.67-5.56,3.72s2.49,3.72,5.56,3.72,5.56-1.67,5.56-3.72-2.49-3.72-5.56-3.72Z" fill="#002346"></path>
    </g>
    <g id="b">
      <g>
        <path d="M425.89,137.81c-.08-3.17-2.8-5.28-7.07-5.21-4.1,.06-7.05,1.68-8.91,4.48l-5.46-3.47c3-4.34,7.9-7,14.83-7.12,8.14-.11,13.68,3.6,13.86,10.09,.26,9.22-9.19,10.2-9,16.87l-7,.1c-.31-8.37,8.9-10.09,8.75-15.74Zm-9.44,24.85c-.1-2.32,1.68-4.29,4-4.42,.09,0,.19,0,.28,0,2.39-.09,4.41,1.78,4.5,4.17v.12c.12,2.33-1.67,4.33-4,4.46h-.22c-2.43,.09-4.47-1.81-4.56-4.23,0,0,0,0,0,0v-.09Z" fill="#483181"></path>
        <path d="M420.83,167.49c-1.22,0-2.4-.46-3.32-1.31-.96-.89-1.51-2.1-1.56-3.41v-.1c-.11-2.58,1.9-4.79,4.47-4.93,.11,0,.22,0,.33,0,2.61-.11,4.87,1.99,4.97,4.65v.14c.13,2.57-1.87,4.81-4.47,4.96h-.25c-.06,0-.12,0-.18,0Zm-.24-8.76s-.08,0-.12,0c-2.03,.11-3.62,1.86-3.53,3.9v.11c.04,1.03,.48,1.99,1.24,2.7,.76,.71,1.76,1.08,2.8,1.04h.24c2.02-.12,3.61-1.88,3.5-3.93v-.15c-.08-2.09-1.86-3.75-3.98-3.67-.06,0-.11,0-.16,0Zm-3.93-4.68l-.02-.49c-.18-4.83,2.65-7.53,5.14-9.92,1.97-1.88,3.67-3.51,3.61-5.83h0c-.07-2.93-2.63-4.78-6.56-4.72-3.8,.06-6.66,1.49-8.5,4.26l-.27,.41-6.31-4.01,.3-.43c3.24-4.68,8.5-7.22,15.23-7.34,8.7-.12,14.18,3.94,14.37,10.58,.15,5.2-2.69,7.91-5.19,10.3-2.09,2-3.9,3.72-3.81,6.57v.51s-7.98,.11-7.98,.11Zm9.73-16.26c.07,2.76-1.86,4.62-3.92,6.58-2.36,2.26-4.81,4.59-4.84,8.67l6.01-.09c.12-2.99,2.07-4.85,4.12-6.81,2.46-2.36,5.01-4.79,4.88-9.55-.17-6.03-5.3-9.73-13.35-9.6-6.27,.11-11.02,2.29-14.12,6.48l4.61,2.93c2.04-2.8,5.07-4.24,9.04-4.3,4.52-.06,7.49,2.16,7.58,5.7h0Z" fill="#002346"></path>
      </g>
    </g>
    <path d="M460.23,200.06c-.18,0-.35-.09-.44-.26-.13-.24-.04-.55,.2-.68l14.26-7.74c.24-.13,.54-.04,.68,.2,.13,.24,.04,.55-.2,.68l-14.26,7.74c-.08,.04-.16,.06-.24,.06Z" fill="#002346"></path>
    <path d="M465.67,202.16c-.18,0-.35-.09-.44-.26-.13-.24-.05-.55,.2-.68l14.06-7.75c.24-.13,.55-.04,.68,.2,.13,.24,.05,.55-.2,.68l-14.06,7.75c-.08,.04-.16,.06-.24,.06Z" fill="#002346"></path>
    <path d="M469.85,206.86c-.19,0-.37-.11-.46-.3-.11-.25,0-.55,.25-.66l8.38-3.75c.25-.12,.55,0,.66,.25,.11,.25,0,.55-.25,.66l-8.38,3.75c-.07,.03-.14,.04-.2,.04Z" fill="#002346"></path>
    <path d="M510.85,220.07c-.22,0-.43-.15-.49-.38-1.93-7.71-6.72-10.66-6.77-10.69-.24-.14-.31-.45-.17-.69,.14-.24,.45-.31,.69-.17,.21,.13,5.2,3.2,7.23,11.31,.07,.27-.1,.54-.36,.61-.04,0-.08,.01-.12,.01Z" fill="#002346"></path>
    <path d="M516.79,218.12c-.19,0-.38-.11-.46-.3-4.46-10.19-11.44-15.71-11.51-15.77-.22-.17-.26-.48-.09-.7,.17-.22,.48-.26,.7-.09,.07,.06,7.25,5.72,11.81,16.16,.11,.25,0,.55-.26,.66-.07,.03-.13,.04-.2,.04Z" fill="#002346"></path>
    <g>
      <path d="M512.85,203.85s3.5,1.21,7.5,12.21" fill="#f2b3c1"></path>
      <path d="M519.88,216.24c-3.82-10.51-7.17-11.9-7.2-11.92l.34-.94c.15,.05,3.77,1.42,7.81,12.52l-.94,.34Z" fill="#002346"></path>
    </g>
    <path d="M616.89,324.98c-.27,0-.49-.22-.5-.49,0-.28,.21-.5,.49-.51l43.25-.9h.01c.27,0,.49,.22,.5,.49,0,.28-.21,.5-.49,.51l-43.25,.9h-.01Z" fill="#002346"></path>
    <path d="M517.56,429.74s-.1,0-.15-.02c-.26-.08-.41-.37-.33-.63l10.13-31.82c.08-.26,.37-.41,.63-.33,.26,.08,.41,.37,.33,.63l-10.13,31.82c-.07,.21-.26,.35-.48,.35Z" fill="#002346"></path>
  </g>
  <g>
    <g>
      <path d="M164.85,485.26s0,7.82,1.38,16.11c0,0,9.48-31.02,40.64-27.02l-6.12-13.48-5.06-5.06c-12.51,6.49-24.52,2.59-30.84,29.46Z" fill="#7cd295"></path>
      <path d="M166.09,503.54l-.35-2.1c-1.37-8.23-1.39-16.11-1.39-16.19v-.11c4.88-20.72,13.38-23.47,22.37-26.38,2.84-.92,5.78-1.87,8.73-3.4l.33-.17,5.42,5.47,6.49,14.3-.89-.11c-30.35-3.9-40,26.36-40.1,26.67l-.62,2.03Zm-.74-18.23c0,.67,.07,7.02,1.08,14.07,2.66-6.59,13.51-28.48,39.62-25.64l-5.72-12.59-4.74-4.74c-2.91,1.47-5.78,2.4-8.56,3.3-9.09,2.94-16.94,5.48-21.68,25.6Z" fill="#002346"></path>
    </g>
    <g>
      <path d="M253.13,463.99c-28.12,.03-32.32-41.41-3.91-75.9,.09-.11,.27-.04,.26,.11-1.12,11.76,33.4,53.9,10.78,73.19-1.99,1.69-4.51,2.6-7.12,2.6Z" fill="#7cd295"></path>
      <path d="M253.1,464.49c-9.32,0-16.61-4.58-20.54-12.89-7.79-16.49-1.1-42.73,16.27-63.83,.18-.22,.48-.3,.74-.19,.27,.11,.42,.38,.4,.66-.34,3.56,2.87,10.34,6.59,18.19,8.36,17.67,19.82,41.86,4.01,55.33-2.05,1.75-4.7,2.72-7.44,2.72h-.03Zm-4.14-75.3c-19.4,24.04-21.67,48.91-15.5,61.97,3.76,7.95,10.73,12.32,19.64,12.32h.03c2.51,0,4.92-.88,6.8-2.48,15.22-12.98,3.96-36.77-4.27-54.15-3.6-7.6-6.51-13.74-6.7-17.67Z" fill="#002346"></path>
    </g>
    <g>
      <path d="M251.43,448.51c-17.74-10.53-13.74-42.1,38.83-60.73,.1-.03,.2,.06,.16,.15-.6,1.71-4.08,12.88-5.91,44.4-.49,8.4-12.49,28.4-33.08,16.17Z" fill="#7cd295"></path>
      <path d="M263.93,452.85c-3.61,0-7.88-1.02-12.75-3.91-6.92-4.11-10.43-11.09-9.64-19.17,1.6-16.38,19.76-32.25,48.56-42.46,.23-.08,.48-.02,.65,.15,.17,.17,.23,.42,.15,.64-.66,1.91-4.07,13.02-5.88,44.26-.28,4.88-4.43,14.08-12.44,18.34-2.2,1.17-5.1,2.15-8.64,2.15Zm25.78-64.34c-28.01,10.08-45.63,25.51-47.18,41.36-.75,7.67,2.59,14.31,9.15,18.21,7.32,4.35,14.38,4.95,20.42,1.74,7.34-3.9,11.63-12.68,11.91-17.51,1.66-28.6,4.67-40.46,5.7-43.8Z" fill="#002346"></path>
    </g>
    <g>
      <path d="M269.79,517.7c.8,6.21-41.3,6.21-40.5,0-.8-6.21,41.3-6.21,40.5,0Z" fill="#002346"></path>
      <path d="M249.54,522.88c-8.13,0-16.26-.98-19.34-2.93-1.02-.65-1.5-1.41-1.42-2.25-.08-.84,.4-1.6,1.42-2.25,6.15-3.9,32.53-3.9,38.67,0,1.02,.65,1.5,1.41,1.42,2.25,.08,.84-.4,1.6-1.42,2.25-3.07,1.95-11.2,2.93-19.33,2.93Zm0-9.35c-7.95,0-15.9,.92-18.8,2.76-.69,.44-1.02,.89-.96,1.34v.06s0,.06,0,.06c-.06,.45,.26,.9,.96,1.34,5.8,3.68,31.8,3.69,37.59,0,.69-.44,1.02-.89,.96-1.34v-.06s0-.06,0-.06c.06-.45-.26-.9-.96-1.34-2.9-1.84-10.85-2.76-18.8-2.76Z" fill="#002346"></path>
    </g>
    <g>
      <path d="M271.45,572.7c-1.82-.27-48.18,.79-48.29-.86-9.13-4.33-9.52-18.47-9.52-18.47-1.38-18.87,15.65-28.99,15.65-28.99v-6.67c-.8,6.21,41.3,6.21,40.5,0v7.13c22.29,14.63,17.77,46.38,1.66,47.86Z" fill="#483181"></path>
      <path d="M244.33,573.28c-16.11,0-20.39-.34-21.39-.99-9.29-4.42-9.78-18.31-9.8-18.9-1.29-17.69,13.55-27.93,15.65-29.28v-6.01c-.02-.15-.02-.3,0-.45l1,.06v.3c.06,.37,.38,.74,.95,1.11,5.8,3.68,31.8,3.68,37.59,0,.57-.36,.89-.73,.95-1.11v-.3l1-.06c.02,.15,.02,.31,0,.45v6.48c13.65,9.1,17.04,24.56,14.4,35.14-1.96,7.87-6.9,12.92-13.19,13.5h-.06s-.06,0-.06,0c-.5-.08-5.28-.04-10.81,0-6.43,.05-11.79,.08-16.24,.08Zm-20.68-1.69c2.37,.89,24.76,.71,36.91,.61,6.59-.05,10.17-.08,10.9,0,5.83-.56,10.41-5.32,12.26-12.74,2.57-10.3-.78-25.4-14.21-34.21l-.23-.15v-5.45c-.13,.1-.26,.2-.42,.29-6.14,3.9-32.52,3.91-38.67,0-.15-.1-.29-.19-.42-.3v5l-.24,.15c-.17,.1-16.75,10.2-15.41,28.53,0,.16,.5,13.91,9.24,18.06l.26,.13v.08Z" fill="#002346"></path>
    </g>
    <path d="M251.08,528.47c-12.38,0-21.83-3.57-21.97-3.63l.36-.93c.2,.08,20.32,7.67,40.15,.46l.34,.94c-6.49,2.36-13.01,3.16-18.88,3.16Z" fill="#002346"></path>
    <path d="M271.17,533.12c.05,3.58-5.58,3.58-5.52,0-.05-3.58,5.58-3.58,5.52,0Z" fill="#fff"></path>
    <path d="M279.45,541.41c.05,3.58-5.58,3.58-5.52,0-.05-3.58,5.58-3.58,5.52,0Z" fill="#fff"></path>
    <path d="M280.83,554.75c.05,3.58-5.58,3.58-5.52,0-.05-3.58,5.58-3.58,5.52,0Z" fill="#fff"></path>
    <path d="M273.47,564.88c.05,3.58-5.58,3.58-5.52,0-.05-3.58,5.58-3.58,5.52,0Z" fill="#fff"></path>
    <path d="M250.92,567.64c.05,3.58-5.58,3.58-5.52,0-.05-3.58,5.58-3.58,5.52,0Z" fill="#fff"></path>
    <path d="M233.43,564.88c.05,3.58-5.58,3.58-5.52,0-.05-3.58,5.58-3.58,5.52,0Z" fill="#fff"></path>
    <path d="M223.76,557.05c.05,3.58-5.58,3.58-5.52,0-.05-3.58,5.58-3.58,5.52,0Z" fill="#fff"></path>
    <path d="M225.15,541.41c.05,3.58-5.58,3.58-5.52,0-.05-3.58,5.58-3.58,5.52,0Z" fill="#fff"></path>
    <path d="M235.27,532.2c.05,3.58-5.58,3.58-5.52,0-.05-3.58,5.58-3.58,5.52,0Z" fill="#fff"></path>
    <path d="M244.48,540.48c.05,3.58-5.58,3.58-5.52,0-.05-3.58,5.58-3.58,5.52,0Z" fill="#fff"></path>
    <path d="M233.89,547.85c.05,3.58-5.58,3.58-5.52,0-.05-3.58,5.58-3.58,5.52,0Z" fill="#fff"></path>
    <path d="M243.09,557.05c.05,3.58-5.58,3.58-5.52,0-.05-3.58,5.58-3.58,5.52,0Z" fill="#fff"></path>
    <path d="M253.22,549.23c.05,3.58-5.58,3.58-5.52,0-.05-3.58,5.58-3.58,5.52,0Z" fill="#fff"></path>
    <path d="M255.06,533.58c.05,3.58-5.58,3.58-5.52,0-.05-3.58,5.58-3.58,5.52,0Z" fill="#fff"></path>
    <path d="M263.35,543.25c.05,3.58-5.58,3.58-5.52,0-.05-3.58,5.58-3.58,5.52,0Z" fill="#fff"></path>
    <path d="M269.79,549.69c.05,3.58-5.58,3.58-5.52,0-.05-3.58,5.58-3.58,5.52,0Z" fill="#fff"></path>
    <path d="M260.58,558.89c.05,3.58-5.58,3.58-5.52,0-.05-3.58,5.58-3.58,5.52,0Z" fill="#fff"></path>
    <path d="M254.14,517.05c-.27,0-.49-.22-.5-.49-1.19-51.21,8.26-83,16.4-100.64,8.85-19.18,17.85-26.11,18.23-26.4,.22-.17,.53-.12,.7,.1,.17,.22,.12,.53-.1,.7-.09,.07-9.23,7.12-17.97,26.11-8.07,17.54-17.45,49.16-16.26,100.11,0,.28-.21,.51-.49,.51h-.01Z" fill="#002346"></path>
    <g>
      <path d="M294.64,486.64c-15.18-12.36-36.76,4.61-15.19,25.77,0,0,11.05,10.12,15.65,20.71,0,0,21.17-15.19,21.63-35.9,0,0,0-21.17-22.09-10.59Z" fill="#7cd295"></path>
      <path d="M294.89,533.89l-.25-.57c-4.5-10.35-15.42-20.44-15.52-20.54-11.65-11.43-10.55-21.33-6.07-26.34,4.48-5.01,13.56-6.81,21.66-.39,7.1-3.35,12.71-3.78,16.67-1.28,5.78,3.64,5.85,12.1,5.85,12.46-.46,20.73-21.63,36.15-21.84,36.3l-.5,.36Zm-15.13-21.79c1.85,1.42,11.26,10.9,15.54,20.25,3.17-2.44,20.52-16.67,20.93-35.13,0-.07-.07-8.26-5.39-11.6-3.7-2.33-9.08-1.83-15.99,1.48l-.29,.14-.25-.2c-7.69-6.26-16.32-4.63-20.53,.08-4.19,4.68-5.12,14.02,6.01,24.95l-.04,.04Z" fill="#002346"></path>
    </g>
    <path d="M296.06,531l-.99-.16c4.37-26.48,1-47.12-9.02-55.2-4.05-3.26-8.88-4.03-13.61-2.16-8.93,3.54-15.84,15.59-18.04,31.46l-.99-.14c2.28-16.47,9.26-28.53,18.66-32.26,5.08-2.01,10.26-1.19,14.6,2.31,10.31,8.31,13.81,29.3,9.38,56.14Z" fill="#002346"></path>
    <g>
      <path d="M164.85,485.26c23.85-42.04,34.98,.01,70.88-5.98,.54-48.33-70.35-45.12-70.88,5.98Z" fill="#7cd295"></path>
      <path d="M164.33,487.19l.02-1.94c.16-15.82,7.35-28.89,19.7-35.85,11.63-6.55,26.08-6.68,36.8-.33,10.06,5.96,15.52,16.69,15.37,30.21v.42s-.42,.07-.42,.07c-14.57,2.43-24.88-2.85-33.98-7.5-13.06-6.68-22.5-11.51-36.54,13.24l-.96,1.68Zm38.81-41.79c-6.35,0-12.83,1.63-18.6,4.88-6.85,3.86-18.23,13.21-19.14,33.03,14-23.63,24.13-18.45,36.88-11.93,8.87,4.54,18.93,9.68,32.95,7.47,.03-12.95-5.24-23.21-14.88-28.92-5.11-3.03-11.1-4.54-17.2-4.54Z" fill="#002346"></path>
    </g>
    <path d="M243.59,516.57l-1-.04c1.29-31.63-13.06-47.58-21.74-54.28-11.35-8.76-25.61-11.7-38.14-7.86l-.29-.96c12.84-3.94,27.44-.94,39.05,8.02,8.83,6.81,23.44,23.03,22.13,55.11Z" fill="#002346"></path>
  </g>
</svg>
