<?xml version="1.0" encoding="UTF-8"?>
<svg xmlns="http://www.w3.org/2000/svg" xmlns:xlink="http://www.w3.org/1999/xlink" id="a" width="865.76" height="682.89" viewBox="0 0 865.76 682.89">
  <defs>
    <clipPath id="b">
      <path d="M60.44,316.73l321.8-50.28c1.36-.21,2.3-1.49,2.09-2.85,0,0,0,0,0,0l-31.78-203.39c-.21-1.36-1.49-2.3-2.86-2.08L27.89,108.41c-1.36,.21-2.3,1.49-2.08,2.86l31.78,203.39c.21,1.36,1.49,2.29,2.85,2.08Z" fill="none"></path>
    </clipPath>
    <clipPath id="c">
      <path d="M277.5,125.91l-4.71,3.02c-.29,.17-.38,.54-.21,.83,.04,.06,.09,.12,.14,.16,.36,.3,.88,.35,1.29,.13l4.75-3.04c.28-.16,.37-.52,.21-.79-.04-.07-.1-.14-.17-.19-.37-.29-.89-.34-1.3-.11Z" fill="none"></path>
    </clipPath>
    <clipPath id="d">
      <path d="M184.41,185.58l-4.98,3.2c-.4,.29-.59,.8-.47,1.28,.07,.33,.4,.54,.74,.47,.08-.02,.16-.05,.22-.1l5.02-3.22c.4-.29,.58-.8,.45-1.27-.09-.34-.44-.54-.78-.45-.07,.02-.14,.05-.2,.09Z" fill="none"></path>
    </clipPath>
    <clipPath id="e">
      <path d="M238.12,149.07c-.39-.53-1.22-.62-1.86-.21l-17.59,11.26c-.65,.42-.91,1.21-.58,1.79l.05,.09c.33,.58,1.13,.71,1.78,.29l17.82-11.42c.65-.42,.87-1.19,.47-1.72l-.08-.09Z" fill="none"></path>
    </clipPath>
  </defs>
  <g>
    <g>
      <g>
        <path d="M546.41,610.49s.02,7.22,6.63,9.01c2.46,.67,5.08,.25,7.32-.96,3.39-1.83,9.2-6.02,15.94-15.39,0,0,20.91-31.06,27.48-48.98,0,0,5.38-15.53-5.38-22.1l-11.35,36.44-40.64,41.98Z" fill="#fff"></path>
        <path d="M555.46,620.32c-.86,0-1.72-.11-2.55-.34-6.9-1.88-7-9.42-7-9.49v-.2s40.7-42.04,40.7-42.04l11.5-36.94,.55,.33c10.97,6.7,5.64,22.53,5.59,22.69-6.52,17.78-27.33,48.79-27.54,49.1-6.68,9.28-12.45,13.58-16.12,15.55-1.64,.88-3.4,1.34-5.14,1.34Zm-8.54-9.64c.06,1.15,.62,6.8,6.25,8.33,2.25,.61,4.72,.29,6.95-.91,3.58-1.93,9.21-6.13,15.77-15.25,.2-.3,20.94-31.2,27.41-48.86,.05-.14,4.93-14.68-4.62-21.15l-11.19,35.92-.08,.09-40.5,41.83Z"></path>
      </g>
      <g>
        <path d="M820.7,630.74c-.42,1.7-1.54,3.16-3.12,3.92-9.58,4.61-34.6,3.14-34.6,3.14-13.89-1.34-17.36-6.72-18.23-9.32-.53-1.6-1.21-3.16-2.15-4.57-2.48-3.76-4.65-5.32-5.92-5.97-1.81-.93-3.19-2.57-3.58-4.56-.4-1.98,.02-3.64,.02-3.64,0,0,5.97,1.79,10.75,10.15,0,0,4.18,6.57,20.91,6.57,0,0,25.15,1.61,33.92-3.29,.96-.53,1.39-1.68,1.06-2.72l.26,.04c1.97,3.15,1.34,7.59,.69,10.26Z" fill="#fff"></path>
        <path d="M792.09,638.53c-5.01,0-8.75-.21-9.14-.23-13.88-1.34-17.66-6.63-18.67-9.66-.58-1.75-1.27-3.21-2.09-4.45-2.37-3.58-4.42-5.13-5.73-5.81-2.03-1.04-3.44-2.83-3.85-4.91-.42-2.06,0-3.79,.02-3.86l.13-.51,.5,.15c.25,.08,6.22,1.95,11.04,10.39,.03,.04,4.29,6.32,20.47,6.32,.28,.02,25.13,1.54,33.67-3.22,.74-.41,1.09-1.31,.83-2.14l-.24-.75,1.28,.18,.12,.2c2.1,3.37,1.37,8.12,.75,10.65h0c-.47,1.89-1.7,3.44-3.39,4.25-5.95,2.86-17.53,3.42-25.71,3.42Zm-38.59-28.12c-.08,.62-.15,1.69,.09,2.86,.35,1.78,1.56,3.32,3.32,4.22,1.42,.73,3.62,2.38,6.11,6.14,.87,1.32,1.6,2.85,2.21,4.69,.76,2.26,4,7.65,17.8,8.98,.23,.01,24.98,1.41,34.34-3.1,1.42-.68,2.46-1.99,2.85-3.59h0c.51-2.06,1.1-5.67,0-8.59-.21,.65-.66,1.22-1.29,1.57-8.8,4.91-33.16,3.41-34.19,3.35h0c-16.77,0-21.12-6.52-21.29-6.8-3.8-6.66-8.4-9.08-9.94-9.74Z"></path>
      </g>
      <g>
        <path d="M547.04,516.54s10.75,14.93,14.34,28.07l21.5,15.53,7.77-7.77-8.36-34.05-12.54-17.92-22.7,16.13Z" fill="#f7ce21"></path>
        <path d="M582.93,560.8l-21.99-15.88-.05-.17c-3.52-12.9-14.15-27.76-14.26-27.91l-.29-.41,23.52-16.71,12.91,18.5,8.43,34.32-8.27,8.27Zm-21.12-16.49l21.02,15.18,7.27-7.26-8.27-33.68-12.2-17.43-21.88,15.55c1.74,2.49,10.8,15.83,14.08,27.65Z"></path>
      </g>
      <g>
        <polygon points="755.5 578.06 764.46 593 797.91 593.59 782.98 562.53 755.5 578.06" fill="#f7ce21"></polygon>
        <path d="M798.71,594.11l-34.54-.62-9.37-15.61,28.39-16.05,15.52,32.27Zm-33.97-1.61l32.36,.58-14.35-29.85-26.56,15.01,8.55,14.26Z"></path>
      </g>
      <g>
        <path d="M556.59,358.25s-32.85,22.7-45.4,33.45c0,0-22.39,20.39-30.86,35.99-3.16,5.82-3.15,12.86,.05,18.66,2.36,4.28,6.44,9.88,13.49,16.43,0,0,34.05,36.44,50.18,56.15,0,0,21.5,0,29.87-20.31,0,0-7.77-9.56-11.35-19.71,0,0-5.38-31.66-17.92-43.6,0,0,1.79-2.99,42.41-15.53,0,0,33.45-12.54,45.99-22.7,0,0,27.48,63.32,39.42,74.07l81.83,110.5s22.1-11.35,38.83-15.53l-62.12-118.27-8.36-13.14s-13.74-43.01-17.32-72.87l-83.63-15.53-26.28-1.19s-20.91,1.19-38.83,13.14Z" fill="#fff"></path>
        <path d="M754.16,582.29l-.25-.34-81.8-110.46c-11.42-10.35-36.26-66.75-39.25-73.61-12.84,10.02-45.29,22.25-45.62,22.37-33.2,10.25-40.38,14.1-41.84,15.09,12.23,12.19,17.45,42.21,17.67,43.49,3.49,9.87,11.17,19.38,11.24,19.48l.19,.23-.11,.27c-8.39,20.38-30.11,20.62-30.33,20.62h-.24l-.15-.18c-15.93-19.47-49.81-55.76-50.15-56.12-6.05-5.62-10.62-11.19-13.57-16.53-3.29-5.98-3.31-13.13-.05-19.14,8.41-15.49,30.74-35.91,30.97-36.12,12.43-10.66,45.12-33.26,45.45-33.49h0c17.83-11.89,38.86-13.22,39.08-13.23l26.33,1.19,84.06,15.61,.04,.36c3.48,28.96,16.69,70.85,17.28,72.72l8.33,13.09,62.44,118.87-.62,.15c-16.48,4.12-38.5,15.38-38.72,15.49l-.38,.19Zm-120.91-186.01l.26,.6c.27,.63,27.57,63.34,39.3,73.9l.07,.07,81.58,110.17c2.96-1.49,22.63-11.27,37.94-15.22l-61.83-117.71-8.4-13.22c-.14-.43-13.68-43.04-17.3-72.6l-83.26-15.46-26.21-1.19c-.16,.01-20.93,1.33-38.52,13.06-.5,.35-33.01,22.83-45.35,33.42-.21,.19-22.42,20.51-30.75,35.85-3.1,5.71-3.08,12.51,.04,18.18,2.89,5.25,7.4,10.74,13.4,16.3,.36,.39,34.05,36.47,50.07,56.01,2.32-.08,21.31-1.35,29.06-19.72-1.21-1.54-7.98-10.39-11.25-19.62-.07-.4-5.51-31.71-17.79-43.41l-.29-.28,.21-.34c.19-.32,3.04-3.5,42.69-15.75,.31-.12,33.49-12.62,45.83-22.61l.51-.41Z"></path>
      </g>
      <g>
        <path d="M850.12,92.53h-.07c2.8-4.48,.6-10.88-7.34-19.2,0,0-2.99-2.99-9.56-4.18,0,0-29.87-7.17-31.06,21.5,0,0-.49,11.77-5.92,25.1-1.5,3.68-2.89,7.41-4.04,11.22-2.94,9.74-7.84,27.01-8.2,35.12-.02,.35,0,.7,.05,1.04l-.24,.68c-1.59-3.6-2.1-8.28-2.1-12.89,.01-8.55,1.81-17,5.06-24.91l6.33-15.41c4.09-7.52,4.87-19.36,4.87-19.36,0-22.7,16.13-26.28,16.13-26.28,23.89-6.57,34.05,7.17,34.05,7.17,11.35,13.14,2.04,20.4,2.04,20.4Z" fill="#fff"></path>
        <path d="M783.8,165.17l-.51-1.16c-1.42-3.23-2.14-7.64-2.14-13.09,.01-8.44,1.73-16.88,5.1-25.1l6.33-15.41c4.01-7.39,4.83-19.09,4.84-19.2,0-22.8,16.35-26.7,16.52-26.74,23.92-6.58,34.45,7.22,34.56,7.36,4.18,4.84,6.1,9.48,5.67,13.78-.46,4.72-3.6,7.21-3.73,7.31l-.1,.08-1.29,.21,.58-.94c2.75-4.41,.3-10.67-7.28-18.61-.02-.02-2.97-2.89-9.28-4.03-.16-.04-13.79-3.2-22.7,3.54-4.82,3.65-7.44,9.53-7.77,17.49,0,.12-.56,12.01-5.95,25.26-1.68,4.13-3,7.78-4.02,11.18-2.9,9.61-7.82,26.93-8.18,35-.02,.31,0,.63,.04,.95l.02,.12-.7,1.99Zm42.46-101.47c-3.55,0-7.57,.5-12.09,1.74-.67,.15-15.76,3.79-15.76,25.8-.03,.52-.84,12.07-4.93,19.6l-6.3,15.36c-3.32,8.09-5.01,16.41-5.02,24.72,0,4.25,.44,7.83,1.31,10.68,.52-8.35,5.33-25.3,8.19-34.78,1.03-3.43,2.36-7.11,4.05-11.27,5.33-13.08,5.88-24.81,5.88-24.93,.34-8.28,3.09-14.42,8.17-18.25,9.3-7.02,22.93-3.85,23.51-3.72,6.62,1.2,9.67,4.19,9.79,4.31,6.56,6.87,9.4,12.61,8.49,17.14,.72-1.11,1.43-2.66,1.62-4.62,.39-4.01-1.45-8.39-5.46-13.04-.1-.13-6.72-8.76-21.45-8.76Z"></path>
      </g>
      <g>
        <path d="M430.32,95.32c-10.64-4.15-22.88-.97-29.63,8.24-.2,.27-.39,.54-.59,.83,0,0-1.98,1.78-1.61,4.77,.27,2.21,1.82,5.07,6.39,8.37,0,0,16.13,11.35,16.13,24.49l1.79,48.38s1.04,9.34,9.4,11.09c1.59,.33,3.27,.27,4.79-.34,1.49-.6,3.14-1.79,3.73-4.18,0,0,4.18-30.46,2.39-50.77v-14.93s.46-5.04,1.78-8.3c.66-1.62,1.14-3.32,1.29-5.07,.49-5.78-.82-16.71-15.85-22.57Zm4.39,19.9c-.77,2.38-5.82,2.88-11.29,1.12-5.47-1.76-9.29-5.12-8.52-7.5,.77-2.38,5.82-2.88,11.29-1.12,5.47,1.76,9.29,5.12,8.52,7.5Z" fill="#b499fa"></path>
        <path d="M434.08,202.19c-.65,0-1.32-.07-2-.21-8.61-1.81-9.78-11.43-9.79-11.53l-1.79-48.42c0-12.75-15.76-23.99-15.92-24.1-4.03-2.91-6.24-5.84-6.59-8.72-.37-2.99,1.4-4.85,1.72-5.16,.19-.28,.38-.54,.57-.8,6.77-9.24,19.2-12.69,30.21-8.4h0c15.27,5.95,16.68,17.01,16.17,23.08-.14,1.65-.57,3.36-1.33,5.22-1.28,3.15-1.74,8.11-1.75,8.16v14.89c1.78,20.09-2.35,50.54-2.39,50.84-.54,2.17-1.93,3.73-4.04,4.58-.96,.38-2,.58-3.08,.58Zm-13.26-108.17c-7.7,0-15.09,3.5-19.73,9.83-.2,.27-.39,.54-.58,.82l-.08,.09c-.07,.07-1.78,1.66-1.45,4.34,.32,2.59,2.4,5.29,6.18,8.02,.66,.47,16.33,11.65,16.33,24.9l1.79,48.36c0,.05,1.1,8.96,9,10.62,1.6,.33,3.15,.23,4.5-.31,1.82-.73,2.98-2.02,3.43-3.84,.03-.25,4.14-30.59,2.38-50.61v-14.98c.02-.25,.48-5.2,1.81-8.49,.71-1.76,1.12-3.37,1.26-4.93,.49-5.79-.88-16.35-15.54-22.06h0c-3.05-1.19-6.21-1.76-9.32-1.76Zm8.72,23.87c-1.86,0-4.02-.35-6.28-1.07-5.82-1.87-9.71-5.44-8.84-8.13,.86-2.68,6.1-3.32,11.92-1.45,5.82,1.87,9.71,5.44,8.84,8.13h0c-.53,1.65-2.7,2.52-5.65,2.52Zm-9.49-10.73c-2.57,0-4.32,.72-4.68,1.84-.6,1.85,2.56,5.05,8.2,6.87,5.64,1.82,10.07,1.05,10.66-.8,.6-1.85-2.56-5.05-8.2-6.87-2.24-.72-4.29-1.04-5.99-1.04Z"></path>
      </g>
      <g>
        <path d="M448.48,127.68l-1.19,26.88s-.6,31.06-6.57,42.41c0,0,4.18-30.46,2.39-50.77v-14.93s.46-5.04,1.78-8.3c.66-1.62,1.14-3.32,1.29-5.07,.49-5.78-.82-16.71-15.85-22.57-10.64-4.15-22.88-.97-29.63,8.24-.2,.27-.39,.54-.59,.83,0,0-1.98,1.78-1.61,4.77h-.19s-3.58-8.36,4.78-14.33c0,0,12.54-11.35,32.26-3.58,0,0,21.5,5.38,13.14,36.44Z" fill="#fff"></path>
        <path d="M439.83,199.72l.39-2.82c.04-.3,4.15-30.64,2.39-50.66v-14.98c.02-.25,.48-5.2,1.81-8.49,.71-1.76,1.12-3.37,1.26-4.93,.49-5.79-.88-16.35-15.54-22.06-10.6-4.13-22.54-.81-29.05,8.07-.2,.27-.39,.54-.58,.82l-.08,.09c-.07,.07-1.78,1.66-1.45,4.34l.07,.54-1.07,.03-.13-.31c-.04-.09-3.64-8.8,4.95-14.94,.08-.08,12.96-11.43,32.73-3.64,.24,.06,7.42,1.92,11.92,9.58,4.05,6.89,4.57,16.11,1.54,27.4l-1.19,26.82c-.02,1.26-.67,31.3-6.63,42.62l-1.32,2.52Zm-19.01-106.69c3.23,0,6.51,.59,9.68,1.83,15.27,5.95,16.68,17.01,16.17,23.08-.14,1.65-.57,3.36-1.33,5.22-1.28,3.15-1.74,8.11-1.75,8.16v14.89c1.42,16.04-.93,38.69-1.95,47.32,4.58-12.89,5.13-38.68,5.13-38.97l1.21-27c2.97-11.03,2.5-20-1.41-26.67-4.28-7.3-11.3-9.14-11.37-9.16-19.24-7.57-31.68,3.36-31.8,3.47-5.45,3.9-5.69,8.75-5.25,11.54,.43-1.53,1.32-2.46,1.54-2.68,.19-.28,.38-.54,.57-.8,4.83-6.58,12.52-10.23,20.53-10.23Z"></path>
      </g>
      <g>
        <path d="M432.95,146.8h-3.36c-2.11,0-3.81-1.71-3.81-3.81v-4.92c0-2.11,1.71-3.81,3.81-3.81h3.36v12.54Z" fill="#f7ce21"></path>
        <path d="M433.45,147.3h-3.86c-2.38,0-4.31-1.93-4.31-4.31v-4.92c0-2.38,1.93-4.31,4.31-4.31h3.86v13.54Zm-3.86-12.54c-1.83,0-3.31,1.49-3.31,3.31v4.92c0,1.83,1.49,3.31,3.31,3.31h2.86v-11.54h-2.86Z"></path>
      </g>
      <g>
        <path d="M432.95,134.25h0v12.54h0c-2.64,0-4.78-2.14-4.78-4.78v-2.99c0-2.64,2.14-4.78,4.78-4.78Z" fill="#fff"></path>
        <path d="M433.45,147.3h-.5c-2.91,0-5.28-2.37-5.28-5.28v-2.99c0-2.91,2.37-5.28,5.28-5.28h.5v13.54Zm-1-12.51c-2.12,.25-3.78,2.06-3.78,4.25v2.99c0,2.19,1.65,4,3.78,4.25v-11.49Z"></path>
      </g>
      <g>
        <path d="M443.72,150.79c-1.01,1.57-1.63,4.5,.82,9.71,.64,1.35,1.01,2.8,1.04,4.29,.14,5.36,.5,16.06-3.09,28.01l31.06,48.38s19.47,33.14,35.72,27.92l-3.19-43.61-50.45-45.84s.52-24.15-8.27-29.63c-1.24-.77-2.86-.47-3.65,.77Z" fill="#ffc0c0"></path>
        <path d="M505.65,270.16c-15.45,0-31.78-27.47-32.52-28.73l-31.17-48.56,.07-.22c3.48-11.61,3.22-21.94,3.07-27.49v-.36c-.04-1.39-.38-2.76-1.01-4.09-2.57-5.44-1.85-8.54-.79-10.19,.93-1.45,2.84-1.86,4.34-.92,8.57,5.34,8.54,27.19,8.51,29.84l50.43,45.82,3.23,44.2-.37,.12c-1.25,.4-2.51,.59-3.79,.59Zm-62.6-77.44l30.94,48.19c.2,.34,19.17,32.25,34.77,27.83l-3.14-43.01-50.47-45.86v-.23c.01-.24,.42-23.93-8.03-29.19-1.03-.64-2.33-.37-2.97,.61h0c-.92,1.43-1.52,4.2,.85,9.22,.69,1.45,1.05,2.97,1.09,4.49v.36c.15,5.57,.42,15.91-3.04,27.58Z"></path>
      </g>
      <g>
        <path d="M620.51,170.47s-14.34-.38-33.45,9.78l-64.97,35.39c-1.24,.67-2.69,.83-4.04,.45l-.97-.28c-.83-.24-1.72-.16-2.49,.22-3.57,1.75-12.93,8.75-15.33,34.7,0,0,1.79,23.89,26.28,22.7,0,0,23.89-3.58,50.77-26.28,0,0,1.79,31.66,5.38,52.56,0,0,4.78,29.27-1.79,35.84,0,0-17.32,13.74-23.3,22.7,0,0,13.74-5.38,28.67-1.19,0,0,8.36,3.58,23.3,3.58,0,0,11.35,0,25.68,6.57,0,0,49.58,23.3,67.5,2.39,0,0,14.34-14.34,9.56-28.67,0,0-13.74-32.26-16.13-62.72l.6-37.03s43.6,36.44,62.12,7.77c0,0,14.34-23.3-23.3-42.41l-50.77-26.88s-15.53-8.96-28.67-7.77l-34.64-1.42Z" fill="#483181"></path>
        <path d="M678.32,378.89c-20.07,0-42.9-10.57-44.29-11.23-14.05-6.44-25.36-6.52-25.47-6.52-14.86,0-23.41-3.59-23.49-3.62-14.53-4.06-28.16,1.15-28.29,1.2l-1.48,.58,.88-1.32c5.95-8.92,22.69-22.25,23.4-22.81,6.27-6.28,1.66-35.08,1.61-35.37-3.19-18.62-4.98-46.08-5.32-51.62-26.37,21.96-50.02,25.72-50.26,25.76-.6,.03-1.2,.04-1.77,.04-23.07,0-25.06-22.96-25.08-23.2,2.4-26.05,11.72-33.28,15.61-35.19,.89-.44,1.9-.53,2.85-.26l.97,.28c1.23,.35,2.54,.21,3.66-.4l64.97-35.39c19.01-10.1,33.56-9.84,33.7-9.84h0s34.64,1.42,34.64,1.42c13.09-1.2,28.74,7.74,28.9,7.83l50.76,26.87c14.07,7.15,22.59,15.69,25.32,25.39,2.82,10-1.64,17.41-1.83,17.72-4.02,6.22-9.51,9.89-16.35,10.93-18.31,2.78-41.17-14.35-45.71-17.93l-.58,36.01c2.35,29.98,15.95,62.19,16.09,62.51,4.83,14.5-9.52,29.08-9.66,29.22-5.7,6.65-14.44,8.94-23.77,8.94Zm-104.99-23.91c3.75,0,7.87,.42,12.06,1.6,.15,.06,8.52,3.57,23.16,3.57,.11,0,11.62,.08,25.89,6.62,.5,.23,49.44,22.9,66.91,2.52,.17-.17,14.09-14.32,9.46-28.19-.12-.29-13.78-32.64-16.15-62.84l.61-38.13,.8,.67c.26,.21,25.85,21.37,45.73,18.35,6.54-.99,11.8-4.52,15.65-10.47,.04-.06,4.42-7.37,1.71-16.94-2.66-9.41-11.01-17.74-24.81-24.75l-50.78-26.88c-.17-.1-15.57-8.88-28.39-7.71l-34.71-1.41c-.26,0-14.53-.2-33.2,9.72l-64.97,35.38c-1.36,.74-2.93,.91-4.42,.49l-.97-.28c-.71-.2-1.47-.14-2.14,.19-3.74,1.83-12.7,8.84-15.06,34.3,.07,.87,2.04,23.32,25.76,22.15,.19-.03,24.03-3.83,50.47-26.16l.77-.65,.06,1c.02,.32,1.83,31.87,5.37,52.51,.2,1.21,4.74,29.6-1.93,36.28-.21,.17-15.83,12.6-22.36,21.38,2.6-.81,8.38-2.31,15.45-2.31Z"></path>
      </g>
      <g>
        <path d="M732.8,256.11s-20.31-11.95-5.97-33.45l45.4-57.34,8.96-15.53s-3.14-32.99,6.76-40.14c2.16-1.56,5.25-.26,5.61,2.38,.38,2.76-.47,7.71-4.53,16.56-1.34,2.93-2.37,6-3.02,9.15-1.28,6.23-3.11,16.61-2.73,23.55,.13,2.43,1.37,4.7,3.44,5.96,1.86,1.14,4.59,1.84,8.23,.44l-35.84,76.46s-8.36,20.91-26.28,11.95Z" fill="#ffc0c0"></path>
        <path d="M741.41,258.84c-2.83,0-5.78-.76-8.83-2.29l-.03-.02c-.35-.21-8.68-5.2-10.84-14.62-1.41-6.16,.17-12.73,4.71-19.53l45.42-57.38,8.84-15.33c-.25-2.79-2.79-33.38,6.98-40.43,1.16-.84,2.65-1,3.98-.43,1.32,.56,2.22,1.74,2.42,3.15,.48,3.51-1.06,9.18-4.57,16.84-1.36,2.95-2.36,6-2.99,9.05-1.18,5.74-3.1,16.42-2.72,23.42,.13,2.33,1.32,4.41,3.2,5.56,2.26,1.38,4.88,1.52,7.78,.4l1.16-.45-36.37,77.58c-.16,.39-4.17,10.23-12.69,13.47-1.76,.67-3.57,1-5.44,1Zm-8.36-3.17c4.79,2.39,9.31,2.81,13.45,1.24,8.1-3.08,12.09-12.83,12.13-12.93l35.36-75.43c-2.75,.78-5.33,.49-7.54-.86-2.16-1.32-3.54-3.7-3.68-6.36-.38-7.11,1.56-17.89,2.74-23.68,.64-3.12,1.67-6.24,3.06-9.26,3.44-7.49,4.95-12.97,4.49-16.29-.15-1.06-.82-1.95-1.82-2.37-1-.43-2.12-.31-3,.32-9.55,6.89-6.58,39.36-6.55,39.68l.02,.16-9.04,15.67-45.44,57.4c-4.35,6.53-5.89,12.84-4.54,18.71,2.02,8.83,9.99,13.76,10.37,13.99Z"></path>
      </g>
      <g>
        <path d="M842.71,73.33s-2.99-2.99-9.56-4.18c0,0-29.87-7.17-31.06,21.5,0,0-.5,12.1-6.15,25.65-1.37,3.3-2.59,6.66-3.63,10.08-2.92,9.62-8.01,27.43-8.37,35.7-.02,.35,0,.7,.05,1.04,.17,1.25,.73,2.43,1.65,3.32,1.61,1.54,4.5,2.97,9.28,1.26,0,0,5.97,0,11.95-18.52l10.43-31.28c1.19-3.6,3.24-6.85,6-9.45,3.73-3.53,9.62-8.02,17.02-10.04,4.82-1.31,8.11-3.27,9.73-5.87,2.8-4.49,.6-10.9-7.34-19.22Zm-17.62,17.32c-5.77,0-10.45-2.14-10.45-4.78s4.68-4.78,10.45-4.78,10.45,2.14,10.45,4.78-4.68,4.78-10.45,4.78Z" fill="#b499fa"></path>
        <path d="M790.86,168.98c-2.62,0-4.42-1.07-5.57-2.18-.98-.94-1.62-2.22-1.8-3.61-.05-.38-.07-.76-.05-1.13,.37-8.29,5.42-26,8.4-35.82,1.02-3.35,2.24-6.76,3.65-10.13,5.54-13.3,6.1-25.36,6.11-25.48,.34-8.28,3.09-14.42,8.17-18.25,9.3-7.02,22.93-3.85,23.51-3.72,6.62,1.2,9.67,4.19,9.79,4.31h0c7.93,8.31,10.42,14.98,7.4,19.83-1.67,2.68-5.04,4.73-10.02,6.09-7.35,2-13.2,6.5-16.81,9.92-2.67,2.52-4.69,5.72-5.87,9.24l-10.43,31.28c-5.67,17.57-11.46,18.77-12.32,18.85-1.58,.56-2.96,.78-4.16,.78Zm34.52-100.12c-4.6,0-10.44,.85-15.02,4.31-4.82,3.65-7.44,9.53-7.77,17.49,0,.12-.57,12.35-6.19,25.83-1.39,3.34-2.61,6.72-3.61,10.04-2.96,9.78-7.99,27.4-8.35,35.58-.02,.31,0,.63,.04,.95,.16,1.17,.69,2.24,1.51,3.02,1.48,1.42,4.21,2.78,8.77,1.15l.17-.03s5.74-.4,11.47-18.17l10.43-31.29c1.22-3.68,3.34-7.02,6.13-9.65,3.69-3.5,9.68-8.1,17.24-10.16,4.73-1.29,7.9-3.19,9.44-5.65,2.75-4.41,.3-10.67-7.27-18.6-.11-.11-3.07-2.91-9.29-4.04-.08-.02-3.33-.77-7.68-.77Zm-.29,22.28c-6.14,0-10.95-2.32-10.95-5.28s4.81-5.28,10.95-5.28,10.95,2.32,10.95,5.28-4.81,5.28-10.95,5.28Zm0-9.56c-5.4,0-9.95,1.96-9.95,4.28s4.56,4.28,9.95,4.28,9.95-1.96,9.95-4.28-4.56-4.28-9.95-4.28Z"></path>
      </g>
      <g>
        <path d="M560.78,552.98c-1.48-6.4-8.63-8.33-11.1-8.82-.81-.16-1.59-.45-2.28-.89-1.62-1.04-1.2-1.79-.5-2.26,.64-.43,1.43-.56,2.2-.46l11.54,1.54c12.4,1.05,19.26,10.89,19.26,10.89,3.58-7.77-4.78-18.52-4.78-18.52-2.99-5.38,.6-7.17,.6-7.17,0,0,4.78-4.18,7.17-12.54,0,0,8.36,11.35,15.53,17.32,0,0,7.17,5.38-.6,22.7,0,0-16.13,35.24-36.44,55.55,0,0-4.52,3.67-8.89,4.41-3.05,.52-5.87-1.82-6.08-4.9-.17-2.52,.16-6.09,2.43-9.66,0,0,7.17-16.13,10.15-33.45l1.79-13.74Z" fill="#483181"></path>
        <path d="M551.62,615.3c-1.25,0-2.47-.42-3.49-1.23-1.3-1.03-2.12-2.56-2.23-4.21-.17-2.48,.13-6.22,2.51-9.96,.04-.1,7.14-16.21,10.08-33.27l1.78-13.63c-1.47-6.09-8.55-7.93-10.69-8.35-.91-.18-1.74-.5-2.46-.96-.9-.58-1.34-1.16-1.35-1.77,0-.34,.14-.85,.84-1.32,.71-.47,1.61-.66,2.54-.54l11.54,1.54c10.5,.89,17.17,8.09,19.06,10.39,2.55-7.33-4.96-17.12-5.04-17.22-1.22-2.18-1.57-4.03-1.09-5.58,.45-1.46,1.51-2.15,1.79-2.31,.45-.41,4.77-4.55,6.98-12.27l.28-.98,.6,.82c.08,.11,8.41,11.37,15.45,17.23,.29,.21,7.38,5.8-.46,23.29-.16,.36-16.4,35.56-36.54,55.7-.23,.19-4.71,3.8-9.16,4.55-.32,.05-.63,.08-.94,.08Zm-3.01-74.29c-.53,0-1.03,.14-1.43,.41-.15,.1-.4,.29-.4,.48,0,.09,.07,.41,.89,.94,.61,.39,1.32,.67,2.11,.82,2.3,.45,9.93,2.45,11.49,9.2l.02,.09-1.8,13.83c-2.97,17.21-10.12,33.43-10.19,33.59-2.27,3.58-2.55,7.09-2.39,9.42,.09,1.37,.77,2.64,1.85,3.49,1.06,.83,2.35,1.17,3.65,.95,4.19-.71,8.62-4.27,8.66-4.31,19.97-19.98,36.14-55.02,36.3-55.37,7.51-16.76,.82-22.04,.75-22.09-6.05-5.04-12.99-13.94-15.04-16.63-2.47,7.77-6.84,11.66-7.03,11.83l-.11,.07s-.98,.52-1.35,1.77c-.38,1.27-.06,2.86,.97,4.71,.31,.38,8.47,11.02,4.8,18.97l-.36,.79-.5-.71c-.07-.1-6.89-9.66-18.9-10.68l-11.56-1.54c-.14-.02-.28-.03-.42-.03Z"></path>
      </g>
      <g>
        <path d="M818.69,623.16c-8.77,4.89-33.92,3.29-33.92,3.29-16.73,0-20.91-6.57-20.91-6.57-4.78-8.36-10.75-10.15-10.75-10.15l4.93-18.64c.36-1.34,1.27-2.48,2.52-3.09,3.43-1.66,6.64,.01,8.41,1.34,1.16,.87,2.56,1.37,4.01,1.46,20.51,1.25,24.92-3.17,24.92-3.17,4.18-2.39,7.77,14.34,7.77,14.34,1.19,7.77,8.96,12.54,8.96,12.54,3.3,2.31,4.59,4.44,5.1,5.88,0,.02,.01,.04,.02,.05,.33,1.04-.11,2.19-1.06,2.72Z" fill="#483181"></path>
        <path d="M794.15,627.21c-5.12,0-9.01-.24-9.41-.26h0c-16.77,0-21.12-6.52-21.29-6.8-4.62-8.09-10.42-9.93-10.47-9.94l-.46-.14,5.06-19.11c.4-1.51,1.42-2.75,2.79-3.41,3.74-1.81,7.2,.1,8.93,1.39,1.07,.8,2.37,1.27,3.75,1.36,19.88,1.21,24.49-2.98,24.54-3.02l.1-.08c.63-.36,1.31-.39,1.97-.1,3.62,1.62,6.25,13.43,6.53,14.77,1.15,7.47,8.66,12.18,8.73,12.22,3.47,2.43,4.8,4.68,5.31,6.15,.43,1.34-.12,2.74-1.27,3.38h0c-5.4,3.01-16.65,3.61-24.78,3.61Zm-40.43-17.8c1.52,.6,6.47,3.02,10.59,10.22,.03,.04,4.29,6.32,20.47,6.32,.28,.02,25.13,1.54,33.67-3.22h0c.74-.41,1.09-1.31,.83-2.14-.47-1.37-1.7-3.42-4.92-5.68-.3-.18-7.95-4.97-9.17-12.88-.75-3.48-3.28-12.84-5.96-14.03-.35-.16-.68-.15-1.02,.03-.61,.54-5.74,4.44-25.24,3.26-1.57-.1-3.05-.64-4.28-1.56-1.89-1.41-4.8-2.79-7.89-1.29-1.11,.53-1.93,1.54-2.26,2.77l-4.82,18.2Z"></path>
      </g>
      <g>
        <path d="M656.94,139.63l3.58,34.05s4.78,17.92-19.71,16.13c0,0-18.22-.49-20.68-14.89-.46-2.68,.17-5.44,1.64-7.73l3.51-5.45,29.87-23.3,1.79,1.19Z" fill="#ffc0c0"></path>
        <path d="M644.13,190.43c-1.07,0-2.18-.04-3.35-.13-.16,0-18.64-.67-21.14-15.3-.47-2.76,.14-5.63,1.72-8.08l3.62-5.58,30.15-23.52,2.29,1.53,3.61,34.28c.06,.2,1.74,6.72-2.34,11.64-2.85,3.44-7.74,5.17-14.56,5.17Zm-18.47-28.36l-3.46,5.38c-1.44,2.24-2,4.86-1.57,7.38,2.36,13.82,20.02,14.47,20.2,14.47,8.27,.6,14.01-.97,17.09-4.68,3.75-4.53,2.15-10.75,2.13-10.82l-3.57-33.89-1.3-.86-29.51,23.02Z"></path>
      </g>
      <g>
        <rect x="606.31" y="89.57" width="51.95" height="78.26" rx="25.98" ry="25.98" transform="translate(64.83 -178.45) rotate(16.92)" fill="#ffc0c0"></rect>
        <path d="M628.44,167.76c-2.55,0-5.13-.37-7.69-1.15h0c-6.77-2.06-12.33-6.63-15.65-12.87-3.33-6.24-4.03-13.4-1.97-20.17l7.66-25.17c2.06-6.77,6.63-12.33,12.87-15.65s13.4-4.03,20.17-1.97,12.33,6.63,15.65,12.87c3.33,6.24,4.03,13.4,1.97,20.17l-7.66,25.17c-3.47,11.41-13.99,18.77-25.34,18.77Zm-7.4-2.11c13.44,4.09,27.7-3.52,31.79-16.96l7.66-25.17c1.98-6.51,1.31-13.4-1.9-19.41-3.2-6-8.55-10.4-15.06-12.38-6.51-1.98-13.4-1.31-19.41,1.9s-10.4,8.55-12.38,15.06l-7.66,25.17c-4.09,13.44,3.52,27.7,16.96,31.79h0Z"></path>
      </g>
      <g>
        <path d="M681.43,124.1s3.72,15.32-8.91,24.68c-1.7,1.25-3.69,2.41-6.03,3.4,0,0-6.4,2.65-8.58-2.56l-.89-8.8,6.12-12.88-60.72-25.13s-12.99-13.35,11.5-16.34c0,0,24.49-34.05,51.97,2.99,0,0,10.15-4.18,13.14,12.54,0,0,20.91,10.75,2.39,22.1Z"></path>
        <path d="M662.97,153.33c-2.02,0-4.33-.7-5.51-3.52l-.04-.14-.9-8.94,5.96-12.54-60.33-24.97-.07-.07c-.2-.21-4.9-5.11-3.23-9.85,1.33-3.78,6.32-6.24,14.81-7.31,1.26-1.65,11.28-14.21,25.08-14.31,.06,0,.12,0,.17,0,9.49,0,18.63,5.78,27.17,17.18,.98-.31,3.75-.92,6.64,.66,3.34,1.83,5.62,5.92,6.77,12.15,1.51,.82,9.84,5.63,10.09,12.15,.14,3.74-2.41,7.27-7.59,10.52,.46,2.4,2.49,16.19-9.17,24.84-1.8,1.33-3.87,2.5-6.13,3.46-.04,.01-1.74,.7-3.73,.7Zm-4.56-3.84c1.99,4.59,7.66,2.32,7.9,2.22,2.19-.93,4.18-2.05,5.92-3.34,12.21-9.06,8.75-24.01,8.72-24.16l-.09-.35,.31-.19c5.04-3.09,7.54-6.39,7.41-9.81-.24-6.44-9.67-11.37-9.77-11.42l-.22-.11-.04-.24c-1.08-6.04-3.2-9.97-6.29-11.68-3.1-1.71-6.13-.5-6.16-.49l-.36,.15-.23-.31c-8.4-11.33-17.35-17.07-26.58-17.07-.05,0-.1,0-.16,0-14.19,.1-24.32,13.94-24.42,14.08l-.13,.18-.22,.03c-8.21,1-12.99,3.25-14.2,6.67-1.37,3.87,2.38,8.14,2.93,8.75l61.1,25.29-6.29,13.23,.87,8.58Z"></path>
      </g>
      <g>
        <path d="M596.02,125.29s1.57,6.44,7.95,7.1l.89-2.81s17.44-1.19,30.45,4.89c1.23,.57,2.33,1.38,3.29,2.34l1.64,1.64c3.17,3.17,8.14,3.85,11.91,1.44,.81-.52,1.64-1.18,2.46-2.01l-6.63-12.59-5.97-8.36-17.92-6.57s-22.7,0-22.7,.6-5.38,14.34-5.38,14.34Z" fill="#fff"></path>
        <path d="M647.17,141.83c-2.65,0-5.3-1.04-7.29-3.02l-1.64-1.64c-.96-.96-2.02-1.71-3.15-2.24-11.76-5.49-27.38-4.98-29.86-4.86l-.91,2.86-.4-.04c-6.65-.69-8.37-7.42-8.39-7.48l-.04-.15,.06-.15c2.01-5.13,5.23-13.52,5.34-14.2,0-.59,0-1.05,23.2-1.05l.17,.03,18.06,6.62,6.06,8.49,6.83,12.97-.26,.26c-.81,.82-1.66,1.52-2.55,2.08-1.59,1.02-3.42,1.51-5.25,1.51Zm-38.79-12.83c5.82,0,17.69,.61,27.14,5.02,1.24,.58,2.39,1.4,3.43,2.44l1.64,1.64c3.03,3.03,7.78,3.61,11.29,1.38,.73-.46,1.44-1.03,2.11-1.69l-6.45-12.26-5.85-8.18-17.69-6.49c-7.85,0-20.37,.13-22.19,.47-.53,1.81-3.43,9.3-5.27,14,.27,.93,1.9,5.76,7.08,6.53l.87-2.73,.34-.02s1.38-.09,3.55-.09Z"></path>
      </g>
      <g>
        <path d="M666.5,152.17c1.19-9.56-2.99-13.14-2.99-13.14l2.99-5.97c6.57,4.18,5.97,15.53,5.97,15.53l.05,.19c-1.7,1.25-3.69,2.41-6.03,3.4Z" fill="#f7ce21"></path>
        <path d="M665.9,152.97l.11-.86c1.14-9.13-2.78-12.67-2.82-12.7l-.29-.25,3.41-6.82,.47,.3c6.51,4.14,6.26,14.74,6.21,15.89l.13,.44-.28,.21c-1.8,1.33-3.86,2.5-6.13,3.46l-.8,.34Zm-1.77-14.04c.93,.99,3.71,4.67,2.97,12.44,1.78-.81,3.42-1.75,4.88-2.81,.01-.24,.44-10.58-5.28-14.77l-2.57,5.14Z"></path>
      </g>
      <g>
        <path d="M596.02,125.29l1.34-11.62c.51-4.4,2.54-8.51,5.82-11.49,3.78-3.44,9.95-6.76,19.72-6.76,0,0,25.8,1.75,36.62,15.73,3.52,4.55,5.01,10.42,3.65,16.01-1.13,4.65-4.33,9.99-12.79,11.87,0,0-4.78,1.79-7.17-3.58,0,0-4.78-10.75-19.71-13.14l-15.42-1.54c-2.83-.28-5.71,.16-8.25,1.43-1.42,.71-2.81,1.7-3.81,3.1Z" fill="#f7ce21"></path>
        <path d="M648.55,139.81c-1.74,0-4.25-.69-5.8-4.16-.05-.1-4.86-10.54-19.33-12.85l-15.39-1.54c-2.84-.28-5.6,.19-7.98,1.38-1.57,.79-2.79,1.77-3.62,2.94l-1.13,1.58,1.56-13.54c.53-4.58,2.65-8.77,5.98-11.8,5.02-4.57,11.77-6.89,20.06-6.89,.29,.02,26.19,1.93,37.02,15.92,3.74,4.83,5.1,10.82,3.74,16.43-1.09,4.49-4.26,10.26-13.17,12.24h0s-.8,.29-1.93,.29Zm-42.11-19.63c.56,0,1.12,.03,1.69,.08l15.42,1.54c15.06,2.41,20.07,13.33,20.12,13.44,2.16,4.87,6.36,3.38,6.54,3.32,8.47-1.89,11.46-7.3,12.48-11.52,1.29-5.31,0-10.99-3.56-15.59-10.55-13.64-36-15.52-36.26-15.53-8,0-14.52,2.23-19.35,6.63-3.15,2.87-5.16,6.84-5.66,11.18l-1.16,10.02c.8-.76,1.77-1.43,2.9-2,2.07-1.03,4.4-1.57,6.83-1.57Z"></path>
      </g>
      <g>
        <circle cx="661.13" cy="134.85" r="7.17" fill="#ffc0c0"></circle>
        <path d="M661.13,142.52c-4.23,0-7.67-3.44-7.67-7.67s3.44-7.67,7.67-7.67,7.67,3.44,7.67,7.67-3.44,7.67-7.67,7.67Zm0-14.34c-3.68,0-6.67,2.99-6.67,6.67s2.99,6.67,6.67,6.67,6.67-2.99,6.67-6.67-2.99-6.67-6.67-6.67Z"></path>
      </g>
      <g>
        <path d="M422.79,149.78s0-2.39,2.99-5.97c0,0,3.58-3.58,1.79-7.77,0,0-3.58-4.18-8.96,3.58,0,0-5.97,7.77-4.78,11.95,0,0-2.99,1.79-1.19,7.17,0,0-2.99,2.39-.6,8.36,0,0-2.99,5.38,2.99,8.36,0,0,7.77,5.97,10.15,1.19,0,0,1.79-4.18-1.79-7.17,0,0,5.97-4.78,1.19-10.15,0,0,5.97-4.18-1.79-9.56Z" fill="#ffc0c0"></path>
        <path d="M422.13,179.01c-3.27,0-7.22-3.01-7.41-3.15-1.89-.94-3.15-2.28-3.67-3.95-.67-2.16,.13-4.18,.44-4.83-1.97-5.11-.15-7.71,.57-8.48-1.39-4.49,.44-6.58,1.2-7.23-.87-4.42,4.7-11.73,4.94-12.05,2.17-3.13,4.36-4.79,6.49-4.9,2.02-.1,3.19,1.24,3.24,1.29l.08,.13c1.9,4.44-1.74,8.16-1.9,8.32-2.25,2.7-2.72,4.71-2.82,5.38,2.62,1.88,3.96,3.84,3.96,5.85,0,1.98-1.29,3.4-1.98,4.02,1.22,1.52,1.76,3.14,1.62,4.81-.22,2.54-1.95,4.48-2.78,5.28,3.25,3.15,1.52,7.32,1.5,7.36-.56,1.11-1.39,1.79-2.49,2.05-.33,.08-.67,.11-1.02,.11Zm2.8-43.59c-.06,0-.13,0-.19,0-1.78,.1-3.76,1.65-5.72,4.49-.07,.1-5.82,7.63-4.71,11.52l.1,.37-.33,.2c-.1,.06-2.61,1.69-.98,6.58l.11,.33-.27,.22c-.11,.09-2.65,2.27-.45,7.79l.09,.22-.11,.21s-1.14,2.12-.47,4.28c.43,1.39,1.52,2.54,3.24,3.39,.13,.09,4.73,3.59,7.67,2.91,.81-.19,1.4-.67,1.81-1.49,.05-.13,1.58-3.86-1.67-6.56l-.47-.39,.48-.38s2.6-2.12,2.84-4.98c.13-1.54-.45-3.04-1.71-4.46l-.37-.42,.46-.32s1.99-1.43,1.98-3.55c0-1.72-1.28-3.46-3.77-5.19l-.22-.15v-.26c0-.1,.04-2.61,3.1-6.29,.17-.17,3.31-3.39,1.75-7.17-.19-.2-.97-.9-2.21-.9Z"></path>
      </g>
      <path d="M420.35,160.11c-2.15,0-4.91-.19-7.82-.88-.27-.06-.43-.33-.37-.6,.06-.27,.33-.43,.6-.37,6.09,1.45,11.7,.6,11.75,.59,.27-.04,.53,.14,.57,.42,.04,.27-.14,.53-.42,.57-.13,.02-1.81,.28-4.32,.28Z"></path>
      <path d="M421.64,170.11c-2.07,0-5.68-.39-9.83-2.56-.24-.13-.34-.43-.21-.67,.13-.24,.43-.34,.67-.21,6.03,3.16,10.98,2.35,11.03,2.34,.27-.05,.53,.13,.58,.41,.05,.27-.13,.53-.41,.58-.07,.01-.74,.12-1.84,.12Z"></path>
      <g>
        <path d="M807.52,131.52s-4.83-7.47-5.46-11.85c-.19-1.37,.5-2.75,1.8-3.23,1.97-.73,5.33,.48,8.43,13.29,0,0,2.39,11.95-1.79,13.14,0,0,2.99,5.38-2.39,9.56,0,0,4.18,7-8.96,7.08,0,0-5.97,.09-4.78-4.69,0,0,.6-3.58,4.18-4.18,0,0-4.78-7.17,1.19-10.15,0,0-5.38-7.17,7.77-8.96Z" fill="#ffc0c0"></path>
        <path d="M799.13,160.01c-.37,0-3.28-.06-4.68-1.82-.72-.91-.91-2.08-.55-3.5,0,0,.61-3.43,3.88-4.39-.69-1.23-2.03-4.1-1.33-6.72,.37-1.38,1.24-2.48,2.6-3.29-.5-.87-1.36-2.78-.54-4.73,.93-2.21,3.68-3.7,8.19-4.43-1.2-1.94-4.59-7.67-5.12-11.4-.23-1.64,.66-3.23,2.12-3.77,.86-.32,1.76-.25,2.61,.21,2.46,1.31,4.64,5.83,6.48,13.43,.25,1.23,2.18,11.53-1.61,13.53,.6,1.47,1.85,5.84-2.43,9.42,.35,.77,.94,2.52,0,4.18-1.2,2.13-4.43,3.23-9.59,3.26h-.03Zm5.64-43.24c-.24,0-.48,.05-.73,.14-1.02,.38-1.64,1.51-1.48,2.69,.6,4.23,5.33,11.58,5.38,11.65l.43,.66-.78,.11c-4.52,.62-7.34,1.98-8.16,3.94-.86,2.07,.71,4.21,.73,4.23l.36,.48-.54,.27c-1.37,.69-2.24,1.67-2.57,2.92-.78,2.95,1.54,6.48,1.57,6.51l.43,.64-.76,.13c-3.18,.53-3.75,3.64-3.77,3.77-.28,1.13-.16,2.02,.36,2.67,1.15,1.46,3.9,1.45,3.92,1.44,4.71-.03,7.72-.98,8.72-2.75,.93-1.65-.17-3.56-.19-3.58l-.22-.38,.35-.27c4.96-3.86,2.37-8.72,2.26-8.92l-.3-.55,.6-.17c3.07-.88,2.08-9.37,1.44-12.56-2.2-9.09-4.47-11.96-5.97-12.77-.36-.19-.71-.29-1.07-.29Z"></path>
      </g>
      <path d="M810.51,143.37s-.07,0-.11-.01l-10.75-2.39c-.27-.06-.44-.33-.38-.6,.06-.27,.33-.44,.6-.38l10.75,2.39c.27,.06,.44,.33,.38,.6-.05,.23-.26,.39-.49,.39Z"></path>
      <path d="M808.12,152.92s-.06,0-.09,0l-9.56-1.79c-.27-.05-.45-.31-.4-.58,.05-.27,.31-.45,.58-.4l9.56,1.79c.27,.05,.45,.31,.4,.58-.04,.24-.25,.41-.49,.41Z"></path>
      <path d="M622.37,166.44s-3.15,3.06-2.15,9.06c0,0,11-1,17-10,0,0-6.7,2.88-14.85,.94Z"></path>
    </g>
    <g>
      <path d="M373.84,55.79c-.57-3.67-4.01-6.18-7.68-5.61h0S27.74,103.06,27.74,103.06c-3.67,.57-6.18,4.01-5.61,7.68,0,0,0,0,0,0l34.24,219.14c.57,3.67,4.01,6.18,7.68,5.61,0,0,0,0,0,0l338.41-52.87c3.67-.57,6.18-4.01,5.61-7.68l-34.24-219.14Z"></path>
      <g>
        <path d="M363.83,50.57c-.57-3.67-4.01-6.19-7.69-5.61h0S17.73,97.83,17.73,97.83c-3.67,.57-6.18,4.01-5.61,7.68,0,0,0,0,0,0l34.24,219.15c.57,3.67,4.01,6.18,7.68,5.61h0s338.41-52.89,338.41-52.89c3.67-.57,6.18-4.01,5.61-7.68l-34.24-219.15Z" fill="#b499fa"></path>
        <path d="M52.99,330.86c-1.52,0-3-.48-4.24-1.39-1.56-1.14-2.58-2.81-2.88-4.72L11.63,105.6c-.3-1.91,.17-3.82,1.3-5.38s2.82-2.58,4.72-2.88L356.06,44.46c3.94-.61,7.64,2.09,8.26,6.03l34.24,219.15c.61,3.93-2.1,7.63-6.03,8.25L54.12,330.77c-.38,.06-.76,.09-1.13,.09ZM357.18,45.37c-.32,0-.64,.02-.96,.07L17.81,98.33c-1.64,.26-3.09,1.14-4.07,2.48-.98,1.34-1.38,2.99-1.12,4.63l34.24,219.15c.26,1.64,1.14,3.09,2.48,4.07,1.34,.98,2.99,1.38,4.63,1.12l338.42-52.89c3.39-.53,5.72-3.72,5.2-7.11l-34.24-219.15c-.48-3.07-3.14-5.27-6.15-5.27Z"></path>
      </g>
      <g>
        <path d="M356.43,57.1c-.37-2.29-2.51-3.85-4.8-3.49L24.67,104.68c-2.29,.36-3.85,2.51-3.49,4.8l32.6,208.64c.36,2.29,2.51,3.85,4.8,3.49l326.95-51.08c2.29-.36,3.86-2.51,3.51-4.8l-32.62-208.63Z" fill="#fff"></path>
        <path d="M57.92,321.83c-2.11,0-3.97-1.54-4.32-3.68L21.01,109.51c-.37-2.38,1.25-4.62,3.63-5L351.6,53.44c2.38-.37,4.62,1.26,5,3.63h0s32.62,208.63,32.62,208.63c.37,2.38-1.27,4.62-3.65,5L58.61,321.78c-.23,.04-.46,.05-.68,.05ZM352.27,53.73c-.21,0-.42,.02-.63,.05L24.69,104.85c-2.19,.35-3.69,2.42-3.35,4.61l32.6,208.64c.35,2.19,2.41,3.7,4.61,3.35l326.95-51.08c2.2-.34,3.71-2.41,3.36-4.61l-32.62-208.63c-.32-1.98-2.04-3.4-3.98-3.4Z" fill="#263238"></path>
      </g>
      <g clip-path="url(#b)">
        <g>
          <path d="M352.55,60.21c-.21-1.36-1.49-2.3-2.86-2.08L27.89,108.41c-1.36,.21-2.3,1.49-2.08,2.86l31.78,203.39c.21,1.36,1.49,2.3,2.85,2.08h0s321.8-50.28,321.8-50.28c1.36-.21,2.3-1.49,2.09-2.85,0,0,0,0,0,0l-31.78-203.39Z" fill="#f1f2f2"></path>
          <polygon points="229.5 157.48 227.81 146.69 182.6 153.75 183.87 161.83 174.65 163.28 172.97 152.58 158.96 154.77 124.73 156.96 129.35 213.78 262.11 193.04 255.49 150.65 229.5 157.48" fill="#d1d3d4"></polygon>
          <path d="M371.26,179.98c-.14-.88-.97-1.49-1.85-1.35L45.87,229.18c-.88,.14-1.49,.96-1.35,1.85,0,0,0,0,0,0l13.19,84.42c.14,.88,.97,1.49,1.85,1.35l323.54-50.55c.88-.14,1.49-.97,1.35-1.85,0,0,0,0,0,0l-13.19-84.42Z" fill="#f1f2f2"></path>
          <polygon points="180.88 187.85 173.36 187.73 176.39 211.52 183.83 207.7 202.27 209.36 197.88 183.45 180.88 187.85" fill="#e6e7e8"></polygon>
          <polygon points="269.16 122.37 283.02 216.36 380.12 219.72 358.69 96.4 269.16 122.37" fill="#d1d3d4"></polygon>
          <polygon points="235.23 139.64 247.87 215.74 294.62 216.67 281.31 126.7 235.23 139.64" fill="#d1d3d4"></polygon>
          <polygon points="197.17 180.26 202.99 215.25 252.28 215.69 245.27 169.3 197.17 180.26" fill="#d1d3d4"></polygon>
          <path d="M351.51,61.14c-50.39,14.36-47.37,51.66-47.37,51.66l55.13-16.36s6.07-39.24-7.76-35.3Z" fill="#e6e7e8"></path>
          <path d="M335.39,150.05c-21.63,2.55-17.29,28.33-17.29,28.33l6.13,39.25,43.07,1.56-7.25-46.37s-2.95-25.33-24.67-22.77Z" fill="#e6e7e8"></path>
          <path d="M276.95,109.73c-9.62,2.2-8.14,13.01-8.14,13.01l20.33-6.2s-3.38-8.83-12.19-6.81Zm-33.41,19.85c-7.56,1.54-8.29,10.11-8.29,10.11l17.76-4.9s-2.36-6.66-9.47-5.22Z" fill="#e6e7e8"></path>
          <polygon points="268.66 122.5 283.38 217.91 305.16 218.93 289.14 116.43 268.66 122.5" fill="#e6e7e8"></polygon>
          <polygon points="235.06 139.73 247.22 217.18 266 217.25 253.11 134.74 235.06 139.73" fill="#e6e7e8"></polygon>
          <polygon points="68.03 121.21 81.04 207.63 165.16 194.48 153.97 122.85 68.03 121.21" fill="#e6e7e8"></polygon>
          <g>
            <path d="M138.08,152.2c-8.67-.03-8.31,7.38-8.31,7.38l2.06,14.18,17.96-.48-2.33-14.86s-1.01-6.18-9.38-6.22Zm-24.92,1.44c-8.9,.36-7.34,8.07-7.34,8.07l2.09,12.93,15.82-.64-1.88-12.82s-.93-7.85-8.69-7.54Zm21.05-24.01c-7.38,.29-7.49,5.42-7.48,7.73s1.74,11.18,1.74,11.18l17.16-.55s-1.07-7.73-1.45-9.92c-.52-2.88-2.59-8.72-9.97-8.45Zm-26.23,.25c-7.19,.51-6.11,6.46-5.52,10.59,.45,3.22,1.45,8.62,1.45,8.62l15.3-.42-1.63-10.05s-.84-9.36-9.6-8.73Zm-24.17-.28c-7.19,.39-5.35,9.6-5.35,9.6l1.95,10.67,14.36-.48-2.01-11.56s-1.24-8.65-8.96-8.23Zm4.4,25.25c-7.37,.97-6.05,7.99-6.05,7.99l2.02,12.63,14.22-.29-2.27-13.87s-.6-7.43-7.92-6.46Z" fill="#f1f2f2"></path>
          </g>
          <polygon points="101.35 180.85 114.08 262.33 178.95 212 174.69 180.98 101.35 180.85" fill="#f1f2f2"></polygon>
          <path d="M137.99,197.33c-15.7,2.2-16.79,16.57-16.79,16.57l5.84,37.64,30.97-23.26-2.57-20.85s-3.79-12.01-17.45-10.1Z" fill="#e6e7e8"></path>
          <path d="M94.77,149.09l-.39,.06c-.07,.01-.12,.08-.11,.15,0,0,0,0,0,0l.05,.31c.01,.07,.08,.12,.15,.11,0,0,0,0,0,0l.39-.06c.07-.01,.12-.08,.11-.15l-.05-.31c-.01-.07-.08-.12-.15-.11,0,0,0,0,0,0Zm-.21,.35v-.05l.13-.02v.05l-.13,.02Z"></path>
          <path d="M218.32,131.99c-3.88-.87-7.04,5.42-7.04,5.42,0,0,.58-6.17-2.01-8.14-4.94-3.75-9.21,.09-9.39,1.93-.18,1.84,6.43-.34,8.66,5.43,.84,2.24,1.34,4.59,1.5,6.98-.74-2.17-3.22-8.08-8.32-8.31-7.82-.35-8.32,6.62-7.24,7.52,1.13,.94,4.01-1.69,7.82-1.69,3.73,0,6.84,4.45,6.84,4.45,0,0-3.46-1.59-6.24-.16-4.64,2.39-4.56,7.81-3.25,8.29,1.31,.48,8.12-8.52,8.49-6.38,.82,4.8,1.24,30.2,1.24,30.2l7.75-1.74s-4.26-21.98-5.05-29.34c-.15-1.37,1.94-1.74,4.04-.23,2.11,1.51,1.45,6.36,4.38,6.23,.87-.04,1.2-4.98-1.02-7.36-2.58-2.76-5.48-2.38-7.32-1.68,1.37-2.38,3.39-4.68,6.06-4.65,3.26,.04,3.16,5.23,4.86,5.03,1.58-.16,4.81-9.68-4.79-11.81Z" fill="#e6e7e8"></path>
          <polygon points="52.25 154.61 30.22 158.05 55.21 318.02 115.69 270.04 99.53 166.65 52.25 154.61" fill="#d1d3d4"></polygon>
        </g>
      </g>
      <g>
        <circle cx="66.33" cy="146.19" r="19.86" transform="translate(-78.78 77.52) rotate(-40.27)" fill="#483181"></circle>
        <path d="M66.33,166.55c-5.44,0-10.55-2.12-14.4-5.96-7.94-7.94-7.94-20.86,0-28.8h0c3.85-3.85,8.96-5.96,14.4-5.96s10.55,2.12,14.4,5.96c3.85,3.85,5.96,8.96,5.96,14.4s-2.12,10.55-5.96,14.4c-3.85,3.85-8.96,5.96-14.4,5.96Zm-13.69-34.05c-7.55,7.55-7.55,19.83,0,27.38,3.66,3.66,8.52,5.67,13.69,5.67s10.03-2.01,13.69-5.67c3.66-3.66,5.67-8.52,5.67-13.69s-2.01-10.03-5.67-13.69c-3.66-3.66-8.52-5.67-13.69-5.67s-10.03,2.01-13.69,5.67h0Z"></path>
      </g>
      <g>
        <g>
          <rect x="219.93" y="86.98" width="17.67" height="13.29" transform="translate(-11.71 36.44) rotate(-8.88)" fill="#483181"></rect>
          <path d="M220.65,102.13l-2.21-14.12,18.45-2.88,2.21,14.12-18.45,2.88Zm-1.06-13.29l1.9,12.15,16.47-2.57-1.9-12.15-16.47,2.57Z"></path>
        </g>
        <g>
          <rect x="200.66" y="89.99" width="17.67" height="13.29" transform="translate(-12.41 33.5) rotate(-8.88)" fill="#483181"></rect>
          <path d="M201.38,105.14l-2.21-14.12,18.45-2.88,2.21,14.12-18.45,2.88Zm-1.06-13.29l1.9,12.15,16.47-2.57-1.9-12.15-16.47,2.57Z"></path>
        </g>
        <g>
          <rect x="181.27" y="93.02" width="17.67" height="13.29" transform="translate(-13.11 30.54) rotate(-8.88)" fill="#483181"></rect>
          <path d="M181.98,108.17l-2.21-14.12,18.45-2.88,2.21,14.12-18.45,2.88Zm-1.06-13.29l1.9,12.15,16.47-2.57-1.9-12.15-16.47,2.57Z"></path>
        </g>
        <g>
          <rect x="161.99" y="96.03" width="17.67" height="13.29" transform="translate(-13.8 27.6) rotate(-8.88)" fill="#483181"></rect>
          <path d="M162.71,111.18l-2.21-14.12,18.45-2.88,2.21,14.12-18.45,2.88Zm-1.06-13.29l1.9,12.15,16.47-2.57-1.9-12.15-16.47,2.57Z"></path>
        </g>
        <g>
          <rect x="142.79" y="99.03" width="17.67" height="13.29" transform="translate(-14.5 24.67) rotate(-8.88)" fill="#483181"></rect>
          <path d="M143.51,114.18l-2.21-14.12,18.45-2.88,2.21,14.12-18.45,2.88Zm-1.06-13.29l1.9,12.15,16.47-2.57-1.9-12.15-16.47,2.57Z"></path>
        </g>
      </g>
      <polygon points="284.35 243.5 260.58 227.65 215.89 235.29 194.4 238.97 151.57 246.3 135.46 268.03 55.02 281.29 57.41 317.97 203.33 295.77 225 292.48 384.74 266.14 378.12 228.05 284.35 243.5" fill="#e6e7e8"></polygon>
      <g>
        <path d="M213.34,129.1l-.02-.03-1.62,1.05,.02,.04s-.01,.02-.02,.03c-.99,.82-1.4,2.15-1.04,3.39l8.23,26.75,18.51-12.21-20.5-18.59c-.99-.84-2.4-1.01-3.56-.42Z" fill="#b499fa"></path>
        <path d="M218.61,161.12l-8.43-27.39c-.38-1.31-.02-2.69,.91-3.65l-.05-.08,.39-.3,2.04-1.32,.07,.1c1.25-.46,2.66-.21,3.7,.67l20.99,19.04-19.6,12.93Zm-6.45-30.7l-.09,.11c-.89,.75-1.23,1.87-.93,2.92l8.04,26.1,17.41-11.49-20.02-18.16c-.83-.7-2.01-.84-3-.35l-.33,.17-1.07,.7Z"></path>
      </g>
      <g>
        <path d="M236.65,148.61c.93,3.71,2.69,10.98,8.53,12.41,2.23,.55,5.02,.15,8.53-1.57,13.02-6.4,23.76-27.62,23.76-27.62l-6.04-5.46-34.78,22.24Z" fill="#f7ce21"></path>
        <path d="M247.13,161.75c-.73,0-1.42-.08-2.07-.24-6.07-1.48-7.89-8.74-8.86-12.64l-.12-.48,35.4-22.64,6.61,5.98-.17,.34c-.44,.87-10.97,21.45-23.99,27.85-2.51,1.23-4.78,1.84-6.79,1.84Zm-9.91-12.91c.94,3.74,2.7,10.38,8.08,11.7,2.24,.55,5,.04,8.19-1.53,11.83-5.81,21.92-24.33,23.36-27.06l-5.48-4.95-34.15,21.84Z"></path>
      </g>
      <g>
        <path d="M280.47,126.89c-6.26-5.36-12.36-8.61-14.49-7.95-.09,.02-.17,.06-.25,.1h0l-.06,.04c-1.8,1.15,1.49,6.46,7.8,12.3,6.88,6.36,14.64,10.86,16.73,9.5l.07-.05c1.91-1.46-2.68-7.88-9.8-13.95Z" fill="#b499fa"></path>
        <path d="M289.21,141.62c-3.42,0-10.42-4.63-16.08-9.86-5.33-4.93-8.65-9.58-8.44-11.85,.05-.55,.29-.97,.71-1.24,.19-.12,.33-.17,.47-.21,2.37-.74,8.52,2.57,14.93,8.05,6.2,5.29,10.47,10.8,10.4,13.39-.02,.72-.35,1.12-.63,1.34l-.08,.06c-.33,.22-.76,.32-1.27,.32Zm-22.57-22.26c-.19,0-.36,.02-.51,.07-.07,.02-.11,.03-.14,.05-.15,.09-.28,.21-.31,.52-.14,1.61,2.6,5.92,8.13,11.02,7.24,6.69,14.48,10.51,16.12,9.45,.13-.1,.26-.24,.27-.59,.05-1.9-3.45-6.97-10.05-12.6h0c-6.01-5.15-11.32-7.92-13.5-7.92Z"></path>
      </g>
      <g clip-path="url(#c)">
        <polygon points="279.14 126.25 278.33 125.68 279.14 125.68 279.14 126.25" fill="#ebeff2"></polygon>
        <polygon points="279.14 126.66 277.75 125.68 278.33 125.68 279.14 126.25 279.14 126.66" fill="#ebeff2"></polygon>
        <polygon points="279.14 127.07 277.18 125.68 277.75 125.68 279.14 126.66 279.14 127.07" fill="#ecf0f3"></polygon>
        <polygon points="279.14 127.49 276.6 125.68 277.18 125.68 279.14 127.07 279.14 127.49" fill="#edf1f3"></polygon>
        <polygon points="279.14 127.9 276.02 125.68 276.6 125.68 279.14 127.49 279.14 127.9" fill="#eef2f4"></polygon>
        <polygon points="279.14 128.31 275.44 125.68 276.02 125.68 279.14 127.9 279.14 128.31" fill="#eff2f5"></polygon>
        <polygon points="279.14 128.72 274.86 125.68 275.44 125.68 279.14 128.31 279.14 128.72" fill="#f0f3f5"></polygon>
        <polygon points="279.14 129.13 274.28 125.68 274.86 125.68 279.14 128.72 279.14 129.13" fill="#f1f4f6"></polygon>
        <polygon points="279.14 129.54 273.7 125.68 274.28 125.68 279.14 129.13 279.14 129.54" fill="#f2f5f7"></polygon>
        <polygon points="279.14 129.95 273.12 125.68 273.7 125.68 279.14 129.54 279.14 129.95" fill="#f3f6f7"></polygon>
        <polygon points="279.14 130.16 279.06 130.27 279 130.27 272.54 125.68 273.12 125.68 279.14 129.95 279.14 130.16" fill="#f4f7f8"></polygon>
        <polygon points="278.42 130.27 272.41 126 272.41 125.78 272.48 125.68 272.54 125.68 279 130.27 278.42 130.27" fill="#f6f7f9"></polygon>
        <polygon points="277.85 130.27 272.41 126.41 272.41 126 278.42 130.27 277.85 130.27" fill="#f7f8fa"></polygon>
        <polygon points="277.27 130.27 272.41 126.82 272.41 126.41 277.85 130.27 277.27 130.27" fill="#f8f9fa"></polygon>
        <polygon points="276.69 130.27 272.41 127.23 272.41 126.82 277.27 130.27 276.69 130.27" fill="#f9fafb"></polygon>
        <polygon points="276.11 130.27 272.41 127.65 272.41 127.23 276.69 130.27 276.11 130.27" fill="#fafbfc"></polygon>
        <polygon points="275.53 130.27 272.41 128.06 272.41 127.65 276.11 130.27 275.53 130.27" fill="#fbfcfc"></polygon>
        <polygon points="274.95 130.27 272.41 128.47 272.41 128.06 275.53 130.27 274.95 130.27" fill="#fcfcfd"></polygon>
        <polygon points="274.37 130.27 272.41 128.88 272.41 128.47 274.95 130.27 274.37 130.27" fill="#fdfdfe"></polygon>
        <polygon points="273.79 130.27 272.41 129.29 272.41 128.88 274.37 130.27 273.79 130.27" fill="#fefefe"></polygon>
        <polygon points="273.21 130.27 272.41 129.7 272.41 129.29 273.79 130.27 273.21 130.27" fill="#fff"></polygon>
        <polygon points="272.41 129.7 273.21 130.27 272.41 130.27 272.41 129.7" fill="#fff"></polygon>
      </g>
      <g>
        <path d="M218.45,160.26l-35.86,22.95,2.54,7.96s24.78-1.34,36.25-10.82c3.06-2.53,4.58-4.94,5-7.2,1.1-5.93-4.89-10.52-7.93-12.89Z" fill="#f7ce21"></path>
        <path d="M184.77,191.68l-2.78-8.69,36.49-23.35,.4,.31c3.2,2.49,9.14,7.13,8,13.29-.47,2.52-2.21,5.04-5.17,7.49-11.47,9.48-35.52,10.88-36.54,10.93l-.39,.02Zm-1.59-8.26l2.31,7.22c3.18-.22,25.13-2.05,35.57-10.68,2.78-2.3,4.4-4.62,4.83-6.9,1.02-5.46-4.41-9.8-7.47-12.19l-35.24,22.55Z"></path>
      </g>
      <g>
        <path d="M178.16,174.8s-.04,.03-.06,.04h0c-.08,.05-.15,.12-.21,.19-1.58,1.72-1.18,8.81,1.16,16.95,2.67,9.26,6.79,16.28,9.01,15.06,.03-.01,.05-.03,.08-.04,2.22-1.44,1.33-10.64-1.7-19.77-2.76-8.35-6.38-13.64-8.28-12.43Z" fill="#b499fa"></path>
        <path d="M187.52,207.68c-.23,0-.49-.05-.78-.17-2.5-1.04-5.86-7.37-8.18-15.39-2.36-8.19-2.8-15.52-1.05-17.43,.08-.09,.18-.19,.3-.27l.07-.05c.44-.28,.96-.32,1.51-.13,2.25,.8,5.2,5.84,7.51,12.83,2.87,8.62,4.22,18.59,1.5,20.35l-.15,.08c-.17,.09-.42,.18-.74,.18Zm-9.08-32.48l-.1,.07s-.05,.04-.08,.08c-1.31,1.43-1.19,7.98,1.26,16.49,2.47,8.55,5.76,13.98,7.6,14.75,.37,.15,.57,.08,.69,.01,1.79-1.15,1.34-9.6-1.86-19.22-2.51-7.59-5.33-11.64-6.9-12.2-.32-.11-.5-.05-.61,.02Z"></path>
      </g>
      <g clip-path="url(#d)">
        <polygon points="185.51 185.85 184.87 185.4 185.51 185.4 185.51 185.85" fill="#ebeff2"></polygon>
        <polygon points="185.51 186.3 184.24 185.4 184.87 185.4 185.51 185.85 185.51 186.3" fill="#ebeff2"></polygon>
        <polygon points="185.51 186.75 183.6 185.4 184.24 185.4 185.51 186.3 185.51 186.75" fill="#ecf0f3"></polygon>
        <polygon points="185.51 187.21 182.96 185.4 183.6 185.4 185.51 186.75 185.51 187.21" fill="#edf1f3"></polygon>
        <polygon points="185.51 187.66 182.32 185.4 182.96 185.4 185.51 187.21 185.51 187.66" fill="#eef2f4"></polygon>
        <polygon points="185.51 188.11 181.69 185.4 182.32 185.4 185.51 187.66 185.51 188.11" fill="#eff2f5"></polygon>
        <polygon points="185.51 188.56 181.05 185.4 181.69 185.4 185.51 188.11 185.51 188.56" fill="#f0f3f5"></polygon>
        <polygon points="185.51 189.01 180.41 185.4 181.05 185.4 185.51 188.56 185.51 189.01" fill="#f1f4f6"></polygon>
        <polygon points="185.51 189.47 179.77 185.4 180.41 185.4 185.51 189.01 185.51 189.47" fill="#f2f5f7"></polygon>
        <polygon points="185.51 189.92 179.17 185.42 179.18 185.4 179.77 185.4 185.51 189.47 185.51 189.92" fill="#f3f6f7"></polygon>
        <polygon points="185.51 190.12 185.39 190.29 178.95 185.72 179.17 185.42 185.51 189.92 185.51 190.12" fill="#f4f7f8"></polygon>
        <polygon points="185.39 190.29 185.18 190.59 178.84 186.09 178.84 185.88 178.95 185.72 185.39 190.29" fill="#f6f7f9"></polygon>
        <polygon points="185.18 190.59 185.17 190.6 184.56 190.6 178.84 186.55 178.84 186.09 185.18 190.59" fill="#f7f8fa"></polygon>
        <polygon points="183.92 190.6 178.84 187 178.84 186.55 184.56 190.6 183.92 190.6" fill="#f8f9fa"></polygon>
        <polygon points="183.28 190.6 178.84 187.45 178.84 187 183.92 190.6 183.28 190.6" fill="#f9fafb"></polygon>
        <polygon points="182.64 190.6 178.84 187.9 178.84 187.45 183.28 190.6 182.64 190.6" fill="#fafbfc"></polygon>
        <polygon points="182.01 190.6 178.84 188.35 178.84 187.9 182.64 190.6 182.01 190.6" fill="#fbfcfc"></polygon>
        <polygon points="181.37 190.6 178.84 188.81 178.84 188.35 182.01 190.6 181.37 190.6" fill="#fcfcfd"></polygon>
        <polygon points="180.73 190.6 178.84 189.26 178.84 188.81 181.37 190.6 180.73 190.6" fill="#fdfdfe"></polygon>
        <polygon points="180.09 190.6 178.84 189.71 178.84 189.26 180.73 190.6 180.09 190.6" fill="#fefefe"></polygon>
        <polygon points="179.46 190.6 178.84 190.16 178.84 189.71 180.09 190.6 179.46 190.6" fill="#fff"></polygon>
        <polygon points="178.84 190.16 179.46 190.6 178.84 190.6 178.84 190.16" fill="#fff"></polygon>
      </g>
      <g>
        <path d="M233.38,151.72c-2.52-3.62-5.22-6.62-7.61-8.52-2.62-2.08-4.61-2.66-5.99-1.78s-1.68,2.91-.83,6.12c.78,2.94,2.45,6.61,4.76,10.37,2.42,3.95,5.27,7.56,7.99,10.05,3.2,2.93,5.68,3.92,7.34,2.85s1.74-3.74,.35-7.8c-1.2-3.48-3.35-7.5-5.99-11.29Z" fill="#fff"></path>
        <path d="M237.56,171.4c-1.58,0-3.58-1.11-5.99-3.31-2.69-2.46-5.53-6.04-8.02-10.09-2.29-3.74-3.99-7.44-4.78-10.42-.86-3.26-.55-5.38,.91-6.31,1.45-.92,3.53-.32,6.19,1.79,2.43,1.93,5.14,4.97,7.64,8.56,2.69,3.85,4.82,7.88,6.01,11.33,1.44,4.2,1.3,6.89-.42,8-.46,.3-.98,.45-1.56,.45Zm-16.37-30.21c-.49,0-.93,.12-1.32,.37-1.32,.84-1.57,2.84-.76,5.94,.78,2.95,2.46,6.62,4.74,10.33,2.47,4.02,5.29,7.58,7.96,10.02,3.16,2.9,5.56,3.85,7.13,2.83,1.57-1.01,1.66-3.57,.28-7.61-1.18-3.43-3.3-7.42-5.97-11.25h0c-2.48-3.56-5.17-6.57-7.58-8.49-1.79-1.42-3.29-2.14-4.48-2.14Z" fill="#263238"></path>
      </g>
      <path d="M220.12,141.94c-2.1,1.33-.33,8.01,4.31,15.5,5.1,8.23,11.63,14.23,14.1,12.63s-.4-9.93-5.89-17.88c-5-7.24-10.44-11.57-12.53-10.24Z" fill="#f1f2f2"></path>
      <g>
        <path d="M239.75,145.6c-.53-.69-1.7-.76-2.65-.15l-20.94,13.38c-.96,.62-1.33,1.68-.91,2.44l12.47,22.56c.55,.99,1.84,1.25,2.95,.53l13.22-2.82c1.08-.23,2.05-.85,2.7-1.74l8-10.97c1.09-.71,1.39-1.99,.71-2.89l-15.56-20.34Z" fill="#f7ce21"></path>
        <path d="M229.36,185.27c-.2,0-.41-.02-.6-.07-.63-.16-1.15-.56-1.46-1.12l-12.46-22.56c-.56-1.02-.1-2.35,1.08-3.1l20.94-13.38c1.17-.75,2.62-.63,3.31,.27l15.56,20.34c.39,.51,.54,1.14,.43,1.77-.12,.7-.55,1.34-1.19,1.78l-7.95,10.9c-.73,1-1.79,1.69-3,1.94l-13.13,2.8c-.47,.29-1,.44-1.51,.44Zm9.11-39.73c-.35,0-.74,.11-1.09,.34l-20.94,13.38c-.71,.46-1.04,1.24-.74,1.78l12.46,22.56c.18,.33,.47,.55,.83,.64,.45,.11,.96,0,1.41-.29l.17-.07,13.22-2.82c.97-.2,1.82-.75,2.4-1.55l8.14-11.1c.45-.29,.75-.72,.83-1.17,.06-.36-.02-.71-.24-1l-15.56-20.34c-.19-.25-.52-.37-.89-.37Z"></path>
      </g>
      <g>
        <path d="M257.09,165.53c-6.45-8.3-13.14-13.25-15.48-11.75-.22,.15-.4,.35-.53,.58-1.31,2.33,1.31,9.32,6.8,17.16,3,4.28,6.34,8.07,9.37,10.78l.04,.03c.63,.49,2.54-.05,4.46-1.3,.09-.06,.18-.12,.26-.18,1.61-1.11,2.65-2.37,2.62-3.11l-.17-.39c-1.64-3.59-4.21-7.76-7.37-11.82Z" fill="#b499fa"></path>
        <path d="M257.99,183.01c-.4,0-.75-.09-1-.29-3.21-2.85-6.56-6.71-9.51-10.91-5.48-7.83-8.29-15.1-6.83-17.69,.16-.3,.4-.56,.69-.75,3.03-1.95,10.42,4.49,16.15,11.86h0c3.1,3.99,5.74,8.22,7.43,11.92l.22,.57c.06,1.14-1.43,2.58-2.83,3.54-.09,.06-.18,.13-.28,.19-1.33,.87-2.91,1.56-4.04,1.56Zm-15.35-29c-.3,0-.56,.06-.76,.19-.15,.1-.27,.23-.36,.4-1.06,1.88,.96,8.34,6.77,16.63,2.9,4.14,6.21,7.94,9.3,10.69,.31,.24,1.89-.01,3.89-1.32,.09-.06,.17-.11,.25-.17,1.58-1.09,2.34-2.15,2.4-2.6l-.13-.28c-1.66-3.63-4.25-7.79-7.31-11.72-5.85-7.52-11.56-11.83-14.05-11.83Z"></path>
      </g>
      <g>
        <path d="M264.46,177.33c-.58-.54-2.55,0-4.49,1.27-2.01,1.31-3.26,2.91-2.79,3.59,.02,.03,.04,.06,.07,.08l.04,.03c.63,.49,2.54-.05,4.46-1.3,1.74-1.16,2.91-2.52,2.88-3.29,0-.12-.04-.23-.11-.32-.02-.02-.04-.05-.06-.07Z" fill="#fff"></path>
        <path d="M257.99,182.99c-.4,0-.75-.09-1-.29-.12-.11-.17-.17-.21-.22-.12-.17-.25-.47-.16-.91,.19-.97,1.37-2.26,3.08-3.38,1.81-1.18,4.17-2.06,5.09-1.22l.14,.15c.12,.16,.19,.37,.2,.59,.04,1.2-1.65,2.75-3.1,3.72-1.34,.87-2.92,1.57-4.04,1.57Zm5.78-5.37c-.63,0-1.95,.38-3.52,1.4-1.59,1.04-2.54,2.17-2.65,2.74-.02,.09,0,.14,0,.15,.3,.24,1.89-.02,3.88-1.32,1.83-1.22,2.67-2.42,2.66-2.85l-.02-.04c-.06-.05-.18-.08-.35-.08Z"></path>
      </g>
      <g>
        <path d="M267.02,179.65l-1.19-.77c-1.21-.8-2.76-.84-4.01-.11l-2.23,1.38c-1.18,.73-1.77,2.13-1.47,3.49l.29,1.33c.09,.4,.49,.66,.89,.57,.08-.02,.15-.05,.22-.09l7.56-4.68c.3-.21,.38-.63,.16-.93-.06-.08-.13-.15-.22-.2Z" fill="#b499fa"></path>
        <path d="M259.14,186.07c-.24,0-.47-.07-.67-.2-.28-.18-.47-.46-.54-.78l-.29-1.33c-.35-1.56,.33-3.18,1.7-4.02l2.23-1.38c1.41-.83,3.19-.78,4.55,.12l1.17,.76c.14,.08,.27,.2,.37,.34,.18,.26,.25,.57,.2,.88-.05,.31-.22,.58-.48,.75l-7.58,4.69c-.12,.07-.25,.12-.37,.15-.09,.02-.18,.03-.27,.03Zm4.6-7.31c-.58,0-1.15,.15-1.66,.45l-2.22,1.38c-1,.62-1.5,1.81-1.25,2.96l.29,1.33c.03,.13,.16,.22,.29,.19l7.62-4.7s.06-.15,.02-.22l-.08-.07-1.19-.77c-.55-.36-1.18-.55-1.82-.55Z"></path>
      </g>
      <g>
        <path d="M262.05,181.37c-2.4,1.49-3.89,3.35-3.34,4.18s2.98,.29,5.42-1.23,3.91-3.38,3.32-4.19-3-.24-5.39,1.24Z" fill="#f7ce21"></path>
        <path d="M259.75,186.44c-.65,0-1.17-.18-1.45-.61-.13-.2-.27-.54-.16-1.03,.24-1.11,1.67-2.62,3.65-3.85h0c2.35-1.46,5.18-2.3,6.06-1.11,.14,.19,.29,.53,.2,1.03-.21,1.11-1.65,2.63-3.65,3.89-1.58,.99-3.37,1.69-4.64,1.69Zm2.57-4.64h0c-1.99,1.23-3.06,2.53-3.2,3.21-.02,.08-.03,.2,.01,.26,.26,.39,2.26,.17,4.74-1.37,1.93-1.2,3.07-2.53,3.2-3.22,.01-.08,.02-.18-.02-.24-.27-.36-2.18-.21-4.73,1.37Z"></path>
      </g>
      <path d="M262.3,181.73c-1.83,1.13-2.96,2.55-2.54,3.17s2.27,.21,4.11-.93,2.97-2.57,2.52-3.18-2.28-.19-4.1,.94Z" fill="#fff"></path>
      <g>
        <path d="M236.12,179.13c-5.49-8.99-11.49-14.45-13.85-12.93-.23,.15-.42,.35-.56,.58-1.45,2.42,.48,9.92,5.08,18.39,2.52,4.65,5.4,8.76,8.09,11.73l.03,.03c.56,.54,2.45,.02,4.38-1.24l.27-.18c1.64-1.13,2.74-2.44,2.77-3.22-.04-.14-.09-.29-.13-.42-1.27-3.83-3.39-8.34-6.08-12.74Z" fill="#b499fa"></path>
        <path d="M235.62,197.65c-.44,0-.8-.11-1.05-.35-2.86-3.16-5.76-7.36-8.21-11.88-4.59-8.45-6.68-16.21-5.07-18.88,.17-.3,.42-.55,.71-.74,.52-.34,1.17-.42,1.93-.25,3.17,.73,8.12,5.96,12.62,13.33h0c2.64,4.32,4.82,8.88,6.13,12.85,.03,.09,.07,.21,.11,.33l.05,.26c-.04,1.17-1.63,2.68-2.98,3.61l-.27,.18c-1.33,.87-2.86,1.54-3.96,1.54Zm-12.43-31.19c-.26,0-.48,.06-.66,.17-.16,.1-.3,.25-.39,.41-1.18,1.97,.2,8.9,5.09,17.89,2.42,4.46,5.26,8.59,8.02,11.63,.21,.21,1.63,.11,3.77-1.29l.26-.18c1.65-1.14,2.46-2.26,2.54-2.75h0c-.03-.1-.06-.21-.09-.29-1.3-3.91-3.44-8.4-6.04-12.66h0c-4.97-8.13-9.6-12.33-11.99-12.88-.18-.04-.35-.06-.5-.06Z"></path>
      </g>
      <g>
        <path d="M242.2,191.89c-.52-.58-2.45-.08-4.41,1.2-2.04,1.33-3.37,3-2.97,3.73,.02,.03,.04,.06,.06,.09l.03,.03c.56,.54,2.45,.02,4.38-1.24,1.78-1.16,3.01-2.58,3.04-3.4,0-.12-.02-.24-.08-.34-.01-.03-.03-.05-.05-.07Z" fill="#fff"></path>
        <path d="M235.62,197.66c-.44,0-.8-.11-1.05-.35-.11-.13-.16-.19-.19-.26-.64-1.17,1.18-3.09,3.14-4.38,1.83-1.2,4.2-2.06,5.05-1.12l.12,.17c.1,.18,.15,.39,.14,.61-.04,1.17-1.67,2.75-3.26,3.79-1.32,.86-2.86,1.54-3.95,1.54Zm5.87-5.51c-.59,0-1.85,.34-3.43,1.37-2.15,1.41-2.95,2.81-2.81,3.07,.21,.2,1.62,.1,3.77-1.3,1.89-1.23,2.79-2.52,2.81-2.99v-.07c-.05-.05-.17-.08-.34-.08Z"></path>
      </g>
      <g>
        <path d="M243.38,193.58c-1.1-.89-2.63-.98-3.83-.24l-2.26,1.4c-1.23,.79-1.89,2.22-1.7,3.67l.16,1.42c.02,.38,.34,.66,.71,.64,.11,0,.22-.04,.31-.09l7.63-4.73c.35-.23,.44-.7,.22-1.04-.04-.07-.1-.13-.16-.18l-1.08-.85Z" fill="#b499fa"></path>
        <path d="M236.43,200.97c-.29,0-.57-.11-.79-.3-.23-.21-.37-.5-.39-.82l-.16-1.39c-.21-1.63,.54-3.26,1.93-4.15l2.26-1.4c1.38-.86,3.15-.75,4.41,.27l1.07,.85c.1,.08,.19,.18,.27,.29,.18,.28,.25,.62,.18,.94-.07,.33-.26,.61-.54,.79l-7.64,4.74c-.17,.1-.36,.16-.55,.17-.02,0-.04,0-.06,0Zm4.87-7.63c-.51,0-1.03,.14-1.48,.42l-2.26,1.4c-1.06,.68-1.64,1.93-1.47,3.18l.16,1.43c0,.12,.11,.21,.19,.2l7.7-4.75c.06-.04,.09-.11,.1-.15,0-.04,.01-.11-.04-.19l-1.13-.92c-.51-.42-1.14-.63-1.77-.63Z"></path>
      </g>
      <g>
        <path d="M239.55,196.1c-2.42,1.5-4.01,3.43-3.55,4.32s2.84,.4,5.3-1.13,4.03-3.47,3.53-4.34-2.86-.35-5.28,1.15Z" fill="#f7ce21"></path>
        <path d="M237.04,201.37c-.24,0-.46-.03-.65-.08-.49-.14-.72-.42-.83-.63-.68-1.33,1.36-3.51,3.73-4.98,2-1.24,4.01-1.86,5.12-1.58,.49,.12,.74,.4,.86,.61,.75,1.31-1.29,3.52-3.7,5.02-1.68,1.04-3.36,1.65-4.52,1.65Zm6.76-6.34c-.81,0-2.26,.44-3.98,1.5h0c-2.58,1.6-3.58,3.26-3.37,3.67,.03,.07,.13,.11,.21,.13,.7,.19,2.43-.24,4.38-1.45,2.61-1.62,3.59-3.27,3.36-3.67-.04-.07-.15-.11-.23-.13-.1-.03-.22-.04-.37-.04Z"></path>
      </g>
      <path d="M239.76,196.48c-1.84,1.14-3.05,2.62-2.7,3.29s2.16,.29,4.02-.87,3.06-2.64,2.69-3.3-2.17-.26-4.01,.89Z" fill="#fff"></path>
      <g clip-path="url(#e)">
        <polygon points="238.61 149.35 237.34 148.45 238.61 148.45 238.61 149.35" fill="#ebeff2"></polygon>
        <polygon points="238.61 150.72 235.41 148.45 237.34 148.45 238.61 149.35 238.61 150.72" fill="#ebeff2"></polygon>
        <polygon points="238.61 152.08 233.49 148.45 235.41 148.45 238.61 150.72 238.61 152.08" fill="#ecf0f3"></polygon>
        <polygon points="238.61 153.45 231.57 148.45 233.49 148.45 238.61 152.08 238.61 153.45" fill="#edf1f3"></polygon>
        <polygon points="238.61 153.6 238.04 154.41 229.64 148.45 231.57 148.45 238.61 153.45 238.61 153.6" fill="#eef2f4"></polygon>
        <polygon points="238.04 154.41 237.4 155.31 227.72 148.45 229.64 148.45 238.04 154.41" fill="#eff2f5"></polygon>
        <polygon points="237.4 155.31 236.75 156.22 225.8 148.45 227.72 148.45 237.4 155.31" fill="#f0f3f5"></polygon>
        <polygon points="236.75 156.22 236.11 157.13 224.05 148.58 224.14 148.45 225.8 148.45 236.75 156.22" fill="#f1f4f6"></polygon>
        <rect x="229.2" y="145.92" width="1.11" height="14.78" transform="translate(-28.21 252.02) rotate(-54.65)" fill="#f2f5f7"></rect>
        <rect x="228.56" y="146.82" width="1.11" height="14.78" transform="translate(-29.22 251.87) rotate(-54.65)" fill="#f3f6f7"></rect>
        <rect x="227.92" y="147.73" width="1.11" height="14.78" transform="translate(-30.23 251.73) rotate(-54.65)" fill="#f4f7f8"></rect>
        <rect x="227.27" y="148.64" width="1.11" height="14.78" transform="translate(-31.25 251.59) rotate(-54.65)" fill="#f6f7f9"></rect>
        <rect x="226.63" y="149.55" width="1.11" height="14.78" transform="translate(-32.26 251.45) rotate(-54.65)" fill="#f7f8fa"></rect>
        <rect x="225.98" y="150.46" width="1.11" height="14.78" transform="translate(-33.27 251.3) rotate(-54.65)" fill="#f8f9fa"></rect>
        <polygon points="232.25 162.58 232.15 162.71 230.51 162.71 219.55 154.93 220.19 154.02 232.25 162.58" fill="#f9fafb"></polygon>
        <polygon points="228.58 162.71 218.9 155.84 219.55 154.93 230.51 162.71 228.58 162.71" fill="#fafbfc"></polygon>
        <polygon points="226.66 162.71 218.26 156.75 218.9 155.84 228.58 162.71 226.66 162.71" fill="#fbfcfc"></polygon>
        <polygon points="224.74 162.71 217.76 157.75 217.76 157.46 218.26 156.75 226.66 162.71 224.74 162.71" fill="#fcfcfd"></polygon>
        <polygon points="222.81 162.71 217.76 159.12 217.76 157.75 224.74 162.71 222.81 162.71" fill="#fdfdfe"></polygon>
        <polygon points="220.89 162.71 217.76 160.48 217.76 159.12 222.81 162.71 220.89 162.71" fill="#fefefe"></polygon>
        <polygon points="218.97 162.71 217.76 161.85 217.76 160.48 220.89 162.71 218.97 162.71" fill="#fff"></polygon>
        <polygon points="217.76 161.85 218.97 162.71 217.76 162.71 217.76 161.85" fill="#fff"></polygon>
      </g>
      <path d="M266.4,180.78l-6.64,4.12s28.76,45.49,119.32,20.26c0,0-77.26,21.07-112.69-24.37Zm-22.63,14.83l-6.71,4.16c33.09,45.2,72.75,36.39,72.75,36.39-50.49,1.14-66.04-40.56-66.04-40.56Z" fill="#fff"></path>
    </g>
    <g>
      <g>
        <path d="M437.57,348.21l-33.04,.03-.02-25.93c0-7.99-9.65-12-15.33-6.38l-32.6,32.35-178.41,.15c-10.79,0-19.54,8.77-19.53,19.56l.04,53.46c0,10.8,8.77,19.54,19.56,19.53l259.4-.21c10.8,0,19.54-8.77,19.53-19.56h0l-.04-53.48c-.02-10.79-8.78-19.52-19.56-19.51Z" fill="#fff" fill-rule="evenodd"></path>
        <path d="M178.23,441.48c-11.05,0-20.04-8.98-20.05-20.03l-.04-53.46c0-11.05,8.98-20.05,20.03-20.06l178.2-.15,32.46-32.2c2.77-2.75,6.73-3.52,10.34-2.02,3.6,1.5,5.84,4.85,5.84,8.75l.02,25.43,32.54-.03h.02c11.04,0,20.03,8.97,20.05,20.01l.04,53.48c0,5.35-2.08,10.39-5.86,14.18s-8.82,5.88-14.17,5.88l-259.4,.21h-.02Zm217.23-127.67c-2.18,0-4.29,.85-5.93,2.48l-32.75,32.49h-.21l-178.41,.15c-10.5,0-19.04,8.56-19.03,19.06l.04,53.46c0,10.5,8.55,19.03,19.05,19.03h.02l259.4-.21c5.09,0,9.87-1.99,13.46-5.59s5.57-8.39,5.57-13.47l-.04-53.48c-.02-10.48-8.56-19.01-19.05-19.01h-.02v-.5s0,.5,0,.5l-33.54,.03-.02-26.43c0-3.49-2.01-6.49-5.23-7.83-1.09-.45-2.21-.67-3.32-.67Z"></path>
      </g>
      <g>
        <path d="M381.05,384.91l-165.46,.14c-2.79,0-5.05,2.26-5.05,5.04,0,2.79,2.26,5.05,5.04,5.05h.02s165.46-.14,165.46-.14c2.79,0,5.04-2.27,5.03-5.06,0-2.78-2.26-5.03-5.04-5.03Z" fill="#483181"></path>
        <path d="M215.59,395.64c-1.5,0-2.89-.58-3.94-1.63-1.05-1.05-1.62-2.44-1.62-3.92s.58-2.87,1.63-3.92c1.05-1.05,2.44-1.62,3.92-1.62h0l165.46-.14c3.05,0,5.53,2.49,5.54,5.53,0,1.48-.57,2.88-1.61,3.93-1.05,1.05-2.44,1.63-3.92,1.64l-165.46,.14Zm-.01-10.09c-1.21,0-2.35,.47-3.21,1.33-.86,.86-1.33,2-1.33,3.21,0,1.21,.47,2.36,1.33,3.22,.86,.86,2,1.33,3.21,1.33l165.48-.14c2.51,0,4.54-2.05,4.54-4.56,0-2.5-2.04-4.53-4.54-4.54l-165.46,.14h0Z"></path>
      </g>
      <g>
        <path d="M418.15,398.57l-202.56,.17c-2.79,0-5.05,2.26-5.05,5.04,0,2.79,2.26,5.05,5.04,5.05h.02s202.56-.17,202.56-.17c2.79,0,5.05-2.26,5.05-5.04,0-2.79-2.26-5.05-5.04-5.05h-.02Z" fill="#f7ce21"></path>
        <path d="M215.61,409.34c-1.5,0-2.89-.58-3.94-1.63-1.05-1.05-1.62-2.44-1.62-3.92s.58-2.87,1.63-3.92c1.05-1.05,2.44-1.62,3.92-1.62h0l202.57-.17c1.48,0,2.88,.58,3.92,1.63,1.05,1.05,1.62,2.44,1.62,3.92s-.58,2.87-1.63,3.92c-1.05,1.05-2.44,1.62-3.92,1.62h0l-202.56,.17Zm-.01-10.09c-1.21,0-2.35,.47-3.21,1.33-.86,.86-1.33,2-1.33,3.21,0,1.21,.47,2.36,1.33,3.22,.86,.86,2,1.33,3.21,1.33l202.57-.17h0c1.21,0,2.35-.47,3.21-1.33,.86-.86,1.33-2,1.33-3.21,0-2.51-2.04-4.55-4.54-4.55l-.02-.5v.5s-202.56,.17-202.56,.17h0Z"></path>
      </g>
      <g>
        <path d="M351.12,398.63l-135.53,.11c-2.79,0-5.05,2.26-5.05,5.04,0,2.79,2.26,5.05,5.04,5.05h.02s135.53-.11,135.53-.11c2.79,0,5.04-2.27,5.03-5.06,0-2.78-2.26-5.03-5.04-5.03h0Z" fill="#fff"></path>
        <path d="M215.61,409.34c-1.5,0-2.89-.58-3.94-1.63-1.05-1.05-1.62-2.44-1.62-3.92s.58-2.87,1.63-3.92c1.05-1.05,2.44-1.62,3.92-1.62h0l135.53-.11c3.05,0,5.53,2.48,5.54,5.53,0,1.48-.57,2.88-1.61,3.93-1.04,1.05-2.44,1.63-3.92,1.63l-135.53,.11Zm-.01-10.09c-1.21,0-2.35,.47-3.21,1.33-.86,.86-1.33,2-1.33,3.21,0,1.21,.47,2.36,1.33,3.22,.86,.86,2,1.33,3.21,1.33l135.54-.11c1.21,0,2.35-.48,3.21-1.34,.86-.86,1.33-2,1.32-3.22,0-2.5-2.04-4.53-4.54-4.54l-135.53,.11h0Z"></path>
      </g>
      <g>
        <circle cx="209.06" cy="395.49" r="29.04" fill="#fff"></circle>
        <path d="M209.06,425.03c-16.28,0-29.52-13.23-29.54-29.51,0-7.89,3.06-15.31,8.63-20.89,5.57-5.58,12.99-8.66,20.88-8.67v.5s0-.5,0-.5h.02c7.88,0,15.29,3.07,20.87,8.63,5.58,5.57,8.66,12.99,8.67,20.88,.01,16.29-13.23,29.55-29.51,29.56h-.02Zm0-58.08h-.02c-7.62,0-14.79,2.98-20.17,8.38-5.39,5.39-8.35,12.56-8.34,20.19,.01,15.73,12.81,28.51,28.54,28.51h.02c15.74-.01,28.53-12.83,28.51-28.56,0-7.62-2.98-14.79-8.38-20.17-5.39-5.38-12.55-8.34-20.16-8.34Z"></path>
      </g>
      <g>
        <circle cx="209.16" cy="395.49" r="25.35" fill="#483181"></circle>
        <path d="M209.16,421.34c-14.24,0-25.84-11.58-25.85-25.83-.01-14.25,11.57-25.86,25.83-25.87h.02c14.24,0,25.84,11.58,25.85,25.83,0,6.9-2.68,13.4-7.56,18.28-4.88,4.89-11.37,7.58-18.27,7.59h-.02Zm-.02-50.69h0c-13.7,.01-24.84,11.17-24.83,24.87,.01,13.69,11.16,24.83,24.85,24.83h.02c6.64,0,12.87-2.6,17.56-7.29,4.69-4.7,7.27-10.94,7.26-17.58-.01-13.69-11.16-24.83-24.85-24.83h-.02Z"></path>
      </g>
      <g>
        <path d="M209.15,378.33c-5.68,0-10.29,4.62-10.28,10.3,0,5.68,4.62,10.29,10.3,10.28,5.68,0,10.29-4.62,10.28-10.3s-4.62-10.29-10.3-10.28h0Z" fill="#fff"></path>
        <path d="M209.16,399.42c-2.88,0-5.58-1.12-7.62-3.15-2.04-2.04-3.17-4.75-3.17-7.63s1.12-5.59,3.15-7.64,4.75-3.17,7.63-3.17h.01c2.88,0,5.59,1.12,7.62,3.15,2.04,2.04,3.17,4.75,3.17,7.63,0,5.95-4.83,10.79-10.78,10.8h-.01Zm-.01-21.09v.5c-5.4,0-9.79,4.4-9.78,9.8,0,2.62,1.02,5.07,2.88,6.92,1.85,1.84,4.3,2.86,6.92,2.86h.01c5.4,0,9.79-4.4,9.78-9.8,0-5.4-4.4-9.78-9.79-9.78h0v-.5Z"></path>
      </g>
      <g>
        <path d="M209.17,400.19c-8.23,0-15.49,5.4-17.87,13.28,9.9,9.84,25.89,9.83,35.77-.03-2.4-7.88-9.66-13.26-17.9-13.25Z" fill="#fff"></path>
        <path d="M209.17,421.32c-6.6,0-13.2-2.5-18.22-7.5l-.21-.21,.09-.29c2.46-8.15,9.84-13.63,18.35-13.64h.02c8.51,0,15.88,5.47,18.36,13.61l.09,.29-.21,.21c-5.03,5.02-11.64,7.53-18.25,7.53Zm-17.3-8c9.62,9.34,25.03,9.33,34.63-.03-2.43-7.56-9.35-12.61-17.31-12.61h-.01c-7.97,0-14.89,5.07-17.31,12.64Z"></path>
      </g>
    </g>
  </g>
  <path d="M617.03,142.1c-.75,0-1.53-.18-2.32-.53-.44-.2-.75-.6-.83-1.08-.08-.48,.09-.97,.44-1.31,2.75-2.58,3.67-8.02,3.68-8.08,.04-.27,.3-.46,.57-.41,.27,.04,.46,.3,.41,.57-.04,.24-.98,5.83-3.98,8.64-.12,.11-.17,.26-.14,.41,.02,.15,.12,.27,.25,.33,1.19,.54,2.95,.86,4.59-.69,.2-.19,.52-.18,.71,.02,.19,.2,.18,.52-.02,.71-.99,.93-2.14,1.4-3.37,1.4Z"></path>
  <path d="M619.11,148.69c-1.33,0-2.85-.35-4.53-1.27-.24-.13-.33-.44-.2-.68,.13-.24,.44-.33,.68-.2,6.09,3.34,9.64-1.62,9.79-1.83,.16-.23,.47-.28,.7-.13,.23,.16,.28,.47,.13,.69-.03,.04-2.42,3.41-6.56,3.41Z"></path>
  <path d="M660.9,138.39c-.07,0-.14-.01-.21-.05-.25-.12-.36-.41-.25-.66,.4-.88,.63-1.85,.65-2.81,.02-.91-.13-1.8-.45-2.65-.1-.26,.04-.55,.29-.64,.26-.09,.55,.04,.64,.29,.36,.97,.53,1.99,.51,3.02-.03,1.1-.28,2.21-.74,3.21-.08,.18-.27,.29-.45,.29Z"></path>
</svg>
